{"glyphs":{"0":{"ha":815,"x_min":85,"x_max":755,"o":"m 713 378 l 750 610 q 754 687 755 648 q 748 760 754 726 q 725 847 741 805 q 680 921 708 889 q 604 979 650 957 q 496 1002 559 1000 q 396 990 441 1003 q 313 954 351 977 q 259 907 283 933 q 215 850 235 881 q 158 738 180 800 q 127 610 137 675 l 91 376 q 86 299 85 338 q 92 225 86 261 q 112 150 98 186 q 148 85 125 115 q 226 15 178 42 q 345 -14 275 -12 q 439 -4 396 -16 q 517 28 482 7 q 595 94 562 54 q 653 180 629 133 q 690 275 675 224 q 713 378 705 326 m 484 870 q 549 850 525 869 q 585 804 572 832 q 600 742 597 776 q 600 675 602 707 l 258 441 q 261 453 260 447 q 265 483 262 460 l 291 640 q 305 708 296 673 q 330 773 314 743 q 352 809 340 792 q 380 838 365 825 q 426 863 400 854 q 484 870 452 871 m 356 117 q 292 136 316 118 q 256 181 269 153 q 240 242 243 208 q 239 308 237 275 l 581 541 q 576 511 578 522 q 572 484 574 500 l 550 349 q 538 293 545 321 q 522 238 532 264 q 493 184 511 210 q 450 142 475 159 q 408 121 431 127 q 356 117 385 115 z "},"1":{"ha":815,"x_min":172,"x_max":625,"o":"m 458 0 l 625 987 l 612 987 l 199 840 l 172 690 l 434 783 l 298 0 l 458 0 z "},"2":{"ha":815,"x_min":5,"x_max":728,"o":"m 649 0 l 669 131 l 229 131 l 478 366 q 557 441 516 401 q 634 524 599 480 q 694 618 669 568 q 723 724 718 667 q 710 837 728 786 q 658 924 693 887 q 572 980 623 960 q 460 1001 521 1000 q 327 980 390 1002 q 215 916 264 957 q 134 815 165 873 q 97 686 103 757 l 255 687 q 275 760 260 726 q 313 818 290 793 q 370 856 337 842 q 446 867 404 869 q 502 854 478 866 q 541 821 526 842 q 561 774 555 801 q 564 717 567 747 q 539 644 558 679 q 494 577 521 609 q 439 517 469 545 q 384 463 410 488 l 24 119 l 5 0 l 649 0 z "},"3":{"ha":815,"x_min":34,"x_max":745,"o":"m 296 567 l 273 439 l 377 439 q 444 426 415 437 q 492 395 473 415 q 517 347 509 375 q 519 281 524 318 q 499 213 515 243 q 458 161 483 182 q 399 127 432 139 q 328 117 367 116 q 268 130 294 118 q 224 161 242 141 q 200 207 208 180 q 193 265 192 233 l 37 266 q 54 150 34 201 q 111 63 74 99 q 202 7 149 27 q 317 -14 254 -12 q 447 4 385 -15 q 559 62 509 24 q 639 155 608 100 q 676 281 670 210 q 673 351 679 317 q 653 413 668 384 q 615 465 639 441 q 558 503 592 488 q 625 541 593 519 q 681 590 656 562 q 721 651 705 617 q 740 726 736 685 q 727 841 745 791 q 671 927 709 892 q 583 981 635 962 q 469 1001 530 1000 q 348 984 406 1002 q 244 931 290 966 q 168 845 198 896 q 132 730 138 794 l 290 730 q 311 789 296 763 q 348 833 326 815 q 399 862 370 852 q 461 871 428 871 q 515 860 492 869 q 554 833 538 851 q 578 787 571 814 q 581 726 585 760 q 558 656 576 686 q 515 607 541 627 q 454 577 488 587 q 383 566 420 566 l 296 567 z "},"4":{"ha":815,"x_min":15,"x_max":730,"o":"m 610 352 l 720 987 l 553 987 l 29 328 l 15 220 l 429 220 l 391 0 l 549 0 l 587 220 l 708 220 l 730 352 l 610 352 m 199 352 l 505 735 l 530 772 l 452 352 l 199 352 z "},"5":{"ha":815,"x_min":71,"x_max":793,"o":"m 139 492 l 268 459 q 337 501 302 486 q 416 515 372 516 q 484 498 456 514 q 527 455 511 481 q 548 395 543 429 q 549 326 553 361 q 531 248 544 286 q 495 180 518 210 q 438 133 472 151 q 360 117 405 115 q 301 129 326 117 q 259 161 276 141 q 234 209 243 182 q 223 268 224 236 l 71 268 q 92 155 71 206 q 149 66 112 103 q 237 8 186 29 q 350 -14 288 -12 q 487 9 425 -16 q 596 79 550 34 q 671 185 643 123 q 707 319 700 247 q 702 440 713 382 q 662 545 691 499 q 583 617 632 590 q 465 646 534 645 q 386 637 425 647 q 313 606 348 627 l 386 844 l 768 844 l 793 987 l 277 987 l 139 492 z "},"6":{"ha":815,"x_min":66,"x_max":705,"o":"m 660 993 l 638 993 q 510 979 570 993 q 401 939 451 964 q 272 848 329 903 q 175 722 216 792 q 117 588 140 660 q 83 439 94 517 l 75 372 q 79 235 66 302 q 125 112 92 167 q 214 23 159 57 q 347 -14 269 -12 q 484 11 422 -16 q 591 85 545 38 q 665 195 637 132 q 699 328 693 258 q 694 445 705 387 q 655 549 684 503 q 581 624 627 595 q 467 654 534 652 q 408 648 436 654 q 353 629 379 641 q 303 598 327 616 q 258 558 279 580 q 286 628 270 595 q 321 691 302 662 q 386 766 349 733 q 468 821 423 799 q 547 847 504 838 q 637 855 589 856 l 646 854 l 660 993 m 419 523 q 484 503 458 522 q 524 456 509 484 q 542 392 538 427 q 543 325 546 357 q 525 250 538 287 q 488 182 511 212 q 431 134 464 153 q 355 117 398 116 q 304 130 326 119 q 268 161 282 142 q 245 204 254 180 q 233 255 237 229 q 230 308 229 281 q 232 357 230 334 l 239 408 q 272 453 253 432 q 313 490 291 475 q 363 515 336 506 q 419 523 390 524 z "},"7":{"ha":815,"x_min":104,"x_max":811,"o":"m 795 889 l 811 987 l 148 987 l 126 852 l 620 852 l 104 0 l 277 0 l 795 889 z "},"8":{"ha":815,"x_min":61,"x_max":759,"o":"m 754 732 q 741 843 759 794 q 688 927 723 892 q 603 981 653 962 q 494 1001 553 1000 q 373 984 430 1002 q 273 928 316 965 q 201 839 228 892 q 169 721 174 787 q 174 648 166 684 q 199 583 181 613 q 228 545 211 563 q 264 512 244 527 q 190 470 224 494 q 129 415 155 446 q 87 347 103 385 q 66 262 71 309 q 81 147 61 197 q 140 61 101 96 q 230 6 177 26 q 345 -14 283 -13 q 472 4 411 -15 q 581 60 533 22 q 659 151 629 96 q 694 275 690 205 q 688 357 698 317 q 656 429 678 396 q 624 470 643 451 q 580 504 604 490 q 645 544 615 522 q 699 595 675 567 q 736 658 722 623 q 754 732 751 692 m 538 283 q 519 216 534 247 q 479 163 504 185 q 424 128 455 140 q 355 117 392 115 q 295 129 321 117 q 253 162 269 141 q 230 211 237 182 q 227 271 224 239 q 247 339 231 308 q 286 393 262 370 q 342 429 310 416 q 412 441 374 442 q 471 428 446 441 q 512 394 496 415 q 535 343 528 372 q 538 283 542 315 m 595 727 q 578 667 591 695 q 545 617 566 639 q 496 583 524 595 q 435 572 468 571 q 382 584 404 572 q 347 616 360 596 q 328 661 333 635 q 325 715 322 687 q 341 775 328 747 q 374 825 353 804 q 422 859 395 846 q 484 870 450 871 q 536 858 514 869 q 572 826 558 846 q 592 781 587 806 q 595 727 598 755 z "},"9":{"ha":815,"x_min":111,"x_max":737,"o":"m 181 133 l 170 134 l 157 -5 l 174 -5 q 385 32 292 -5 q 545 137 477 70 q 664 315 619 210 q 725 543 708 420 l 732 600 q 735 693 737 646 q 722 785 733 741 q 690 868 711 829 q 639 937 670 907 q 566 983 608 966 q 469 1001 524 1000 q 377 990 420 1002 q 296 956 333 978 q 224 898 256 932 q 170 822 192 863 q 134 740 148 783 q 117 650 121 696 q 122 533 111 591 q 162 429 133 475 q 238 354 191 383 q 353 325 286 326 q 412 330 384 324 q 467 347 441 336 q 509 373 488 357 q 549 406 530 388 q 516 327 535 363 q 475 260 498 290 q 413 199 448 225 q 336 157 378 173 q 263 139 302 145 q 181 133 224 132 m 394 452 q 330 473 355 453 q 292 523 305 493 q 275 587 278 552 q 275 655 271 623 q 292 730 279 692 q 328 800 305 768 q 384 851 351 831 q 459 869 416 870 q 505 859 486 868 q 537 833 524 849 q 566 782 556 812 q 579 721 576 752 q 582 671 582 696 q 579 627 581 647 l 572 570 q 540 524 558 546 q 499 486 522 502 q 450 460 477 469 q 394 452 424 451 z "}," ":{"ha":815,"x_min":0,"x_max":0,"o":""},"A":{"ha":815,"x_min":-41,"x_max":719,"o":"m 534 227 l 559 0 l 719 0 l 584 987 l 442 987 l -41 0 l 130 0 l 235 227 l 534 227 m 298 367 l 478 756 l 520 367 l 298 367 z "},"B":{"ha":815,"x_min":26,"x_max":795,"o":"m 26 0 l 367 0 q 500 17 435 -1 q 616 71 565 35 q 699 163 667 108 q 737 293 732 219 q 733 362 739 328 q 711 424 726 395 q 670 475 694 452 q 610 510 645 497 q 678 545 646 525 q 733 592 709 566 q 772 652 757 618 q 790 726 787 685 q 773 842 795 793 q 708 922 750 890 q 610 970 666 954 q 494 987 555 985 l 197 987 l 26 0 m 263 446 l 453 446 q 513 433 488 444 q 555 400 539 421 q 577 353 571 380 q 578 293 583 326 q 555 224 573 254 q 509 175 536 195 q 446 144 481 155 q 375 133 412 134 l 209 134 l 263 446 m 285 570 l 334 852 l 491 852 q 550 842 523 850 q 596 818 577 834 q 624 777 615 802 q 629 717 633 751 q 605 651 624 679 q 559 605 586 623 q 497 578 531 587 q 428 569 463 569 l 285 570 z "},"C":{"ha":815,"x_min":58,"x_max":793,"o":"m 721 305 l 565 303 q 538 229 555 263 q 496 169 522 194 q 435 131 470 144 q 357 119 401 117 q 292 135 318 120 q 250 176 267 151 q 228 232 235 200 q 218 297 220 264 q 219 364 217 331 q 226 425 222 397 l 246 562 q 260 631 252 595 q 282 701 269 667 q 314 767 296 736 q 358 821 333 798 q 416 857 383 844 q 490 869 448 870 q 561 851 532 867 q 605 809 589 835 q 628 748 622 783 q 635 675 635 713 l 793 675 q 773 803 791 744 q 718 905 754 862 q 628 975 682 949 q 500 1002 574 1000 q 386 986 438 1003 q 290 938 333 968 q 212 865 246 907 q 153 773 178 823 q 111 669 127 724 q 85 561 94 615 l 64 426 q 59 322 58 374 q 73 222 61 271 q 106 132 84 174 q 161 57 127 89 q 241 6 195 25 q 347 -14 287 -13 q 483 7 420 -16 q 595 73 547 30 q 677 174 644 115 q 721 305 709 233 z "},"D":{"ha":815,"x_min":20,"x_max":777,"o":"m 20 0 l 271 0 q 398 16 338 -1 q 509 62 458 32 q 603 134 559 91 q 678 229 646 176 q 729 335 708 277 q 759 454 749 393 l 770 532 q 772 651 777 593 q 749 758 766 708 q 704 845 732 805 q 638 914 675 885 q 541 966 596 947 q 419 987 486 985 l 191 987 l 20 0 m 329 854 l 414 854 q 492 838 458 852 q 549 800 525 823 q 584 748 570 777 q 605 685 598 718 q 613 610 612 649 q 608 534 613 572 l 597 454 q 578 372 591 412 q 546 298 565 332 q 492 222 522 254 q 423 168 463 190 q 356 141 393 151 q 277 131 319 131 l 203 132 l 329 854 z "},"E":{"ha":815,"x_min":35,"x_max":825,"o":"m 668 443 l 691 574 l 295 574 l 343 852 l 802 852 l 825 987 l 207 987 l 35 0 l 658 0 l 682 134 l 218 134 l 272 443 l 668 443 z "},"F":{"ha":815,"x_min":39,"x_max":833,"o":"m 677 420 l 701 555 l 295 555 l 347 852 l 810 852 l 833 987 l 210 987 l 39 0 l 199 0 l 272 420 l 677 420 z "},"G":{"ha":815,"x_min":60,"x_max":791,"o":"m 697 121 l 755 499 l 425 499 l 404 372 l 577 372 l 541 175 q 461 131 506 143 q 370 121 416 119 q 304 138 331 123 q 260 178 277 154 q 234 235 243 203 q 222 300 225 266 q 221 367 219 334 q 227 429 222 401 l 246 557 q 260 626 251 590 q 283 696 269 661 q 317 762 298 730 q 362 818 336 794 q 419 855 387 841 q 492 867 452 869 q 558 852 531 866 q 602 815 585 839 q 627 761 618 792 q 637 695 635 730 l 791 695 q 770 818 789 762 q 713 914 750 874 q 624 977 677 954 q 500 1001 570 1000 q 386 984 438 1002 q 290 936 334 967 q 213 861 247 904 q 153 768 178 819 q 111 665 127 719 q 85 556 94 610 l 66 430 q 62 326 60 378 q 76 224 64 273 q 111 134 88 176 q 168 59 134 91 q 249 8 203 27 q 356 -14 296 -12 q 540 17 448 -16 q 697 121 632 50 z "},"H":{"ha":815,"x_min":15,"x_max":819,"o":"m 647 0 l 819 987 l 663 987 l 591 574 l 270 574 l 342 987 l 186 987 l 15 0 l 170 0 l 247 440 l 568 440 l 492 0 l 647 0 z "},"I":{"ha":815,"x_min":50,"x_max":788,"o":"m 222 987 l 198 852 l 399 852 l 274 134 l 74 134 l 50 0 l 616 0 l 640 134 l 435 134 l 559 852 l 764 852 l 788 987 l 222 987 z "},"J":{"ha":815,"x_min":46,"x_max":810,"o":"m 649 987 l 532 302 q 509 232 526 265 q 468 174 493 199 q 411 133 444 148 q 338 119 378 119 q 275 134 300 120 q 233 170 249 148 q 212 223 218 193 q 207 288 205 254 l 47 289 q 64 167 46 222 q 117 72 81 112 q 205 10 153 33 q 326 -14 258 -13 q 459 8 397 -15 q 570 75 521 32 q 651 175 618 117 q 693 302 683 233 l 810 987 l 649 987 z "},"K":{"ha":815,"x_min":26,"x_max":899,"o":"m 369 426 l 553 0 l 734 0 l 489 545 l 899 987 l 694 987 l 385 647 l 278 531 l 358 987 l 197 987 l 26 0 l 186 0 l 239 302 l 369 426 z "},"L":{"ha":815,"x_min":41,"x_max":681,"o":"m 224 134 l 372 987 l 212 987 l 41 0 l 657 0 l 681 134 l 224 134 z "},"M":{"ha":815,"x_min":18,"x_max":833,"o":"m 385 987 l 190 987 l 18 0 l 168 0 l 224 328 l 292 766 l 347 304 l 430 304 l 653 762 l 571 342 l 512 0 l 661 0 l 833 987 l 632 987 l 429 567 l 385 987 z "},"N":{"ha":815,"x_min":16,"x_max":818,"o":"m 646 0 l 818 987 l 658 987 l 537 304 l 344 987 l 186 987 l 16 0 l 176 0 l 296 686 l 490 0 l 646 0 z "},"O":{"ha":815,"x_min":58,"x_max":780,"o":"m 753 429 l 773 558 q 778 661 780 608 q 764 762 776 713 q 731 853 753 810 q 675 928 709 896 q 596 980 642 961 q 492 1001 551 1000 q 378 985 430 1002 q 284 937 326 968 q 209 862 242 905 q 151 769 175 819 q 110 666 126 720 q 85 558 94 612 l 64 428 q 59 326 58 378 q 72 227 61 275 q 104 135 83 178 q 158 59 125 92 q 236 7 191 27 q 340 -14 281 -12 q 454 2 402 -15 q 549 50 506 20 q 626 124 592 81 q 686 217 661 168 q 727 320 711 267 q 753 429 744 374 m 612 561 l 592 428 q 578 360 587 395 q 556 290 570 325 q 524 225 543 256 q 481 171 505 194 q 424 135 456 148 q 352 123 392 121 q 290 140 315 124 q 249 181 264 156 q 227 237 234 205 q 218 302 220 269 q 218 368 216 336 q 224 427 220 400 l 245 559 q 258 627 250 591 q 279 696 267 662 q 310 761 292 730 q 352 815 328 791 q 408 851 376 838 q 479 863 439 865 q 543 846 517 862 q 584 806 568 831 q 608 751 600 782 q 618 687 616 720 q 618 621 621 654 q 612 561 616 589 z "},"P":{"ha":815,"x_min":39,"x_max":814,"o":"m 264 376 l 434 376 q 569 396 504 376 q 685 456 634 417 q 769 552 736 495 q 808 684 802 610 q 795 807 814 751 q 736 901 776 862 q 643 963 698 941 q 522 987 587 985 l 210 987 l 39 0 l 198 0 l 264 376 m 286 509 l 347 854 l 516 854 q 580 838 553 852 q 624 801 607 824 q 647 748 640 778 q 649 682 653 718 q 625 610 644 642 q 579 555 607 578 q 516 520 551 532 q 441 508 481 508 l 286 509 z "},"Q":{"ha":815,"x_min":54,"x_max":786,"o":"m 758 416 l 779 551 q 784 655 786 602 q 771 758 782 707 q 737 850 760 806 q 682 927 715 894 q 601 980 648 960 q 495 1001 555 1000 q 380 985 432 1002 q 285 935 328 967 q 208 860 241 903 q 149 766 174 816 q 107 660 124 715 q 82 551 91 606 l 61 416 q 57 317 54 367 q 71 219 59 267 q 106 130 83 172 q 161 57 128 88 q 239 7 194 26 q 340 -12 284 -12 q 388 -10 365 -13 q 434 -1 411 -7 l 588 -171 l 702 -79 l 566 69 q 629 129 602 96 q 678 197 657 161 q 729 301 709 245 q 758 416 748 357 m 618 553 l 597 416 q 583 351 592 385 q 561 285 574 317 q 529 222 548 252 q 484 170 509 193 q 427 134 459 147 q 355 123 394 121 q 292 139 317 124 q 252 178 267 154 q 227 231 235 201 q 217 293 219 261 q 216 357 214 325 q 222 415 218 389 l 243 553 q 257 621 248 585 q 278 692 265 657 q 309 759 291 727 q 353 814 328 790 q 410 851 378 838 q 483 863 442 865 q 549 846 522 862 q 591 806 575 830 q 615 748 608 781 q 625 682 623 716 q 625 615 627 648 q 618 553 623 582 z "},"R":{"ha":815,"x_min":29,"x_max":799,"o":"m 420 383 l 536 0 l 705 0 l 706 9 l 571 420 q 656 465 618 439 q 724 524 695 490 q 771 601 753 559 q 793 695 789 644 q 778 820 799 766 q 716 910 757 873 q 619 966 676 946 q 496 987 562 985 l 201 987 l 29 0 l 189 0 l 254 383 l 420 383 m 277 516 l 336 854 l 490 854 q 555 841 527 852 q 602 808 584 829 q 628 756 621 787 q 631 688 636 726 q 608 614 627 647 q 560 560 589 582 q 494 526 531 538 q 418 515 458 515 l 277 516 z "},"S":{"ha":815,"x_min":46,"x_max":804,"o":"m 573 259 q 550 197 568 223 q 505 153 532 170 q 445 127 478 136 q 379 119 412 119 q 305 133 337 120 q 251 168 273 145 q 217 224 229 191 q 205 298 205 256 l 48 298 q 71 170 46 227 q 139 73 95 113 q 243 10 183 32 q 371 -13 302 -12 q 499 2 435 -14 q 613 55 563 18 q 695 140 663 90 q 733 260 728 191 q 716 371 737 322 q 659 456 696 420 q 574 520 623 494 q 473 566 525 547 q 414 588 446 575 q 357 618 383 600 q 315 662 331 636 q 304 724 300 688 q 326 786 308 760 q 370 831 344 813 q 429 859 397 850 q 494 867 461 868 q 561 854 532 867 q 608 819 589 841 q 635 766 626 797 q 645 700 645 736 l 802 699 q 783 821 804 766 q 722 916 761 876 q 626 977 682 955 q 505 1001 570 1000 q 380 985 442 1002 q 267 932 317 967 q 183 844 216 896 q 146 724 150 791 q 164 615 142 662 q 225 532 186 568 q 313 470 263 496 q 414 427 363 445 q 474 403 443 416 q 528 371 505 390 q 565 324 552 351 q 573 259 578 297 z "},"T":{"ha":815,"x_min":108,"x_max":880,"o":"m 855 852 l 880 987 l 132 987 l 108 852 l 401 852 l 254 0 l 412 0 l 560 852 l 855 852 z "},"U":{"ha":815,"x_min":66,"x_max":822,"o":"m 822 987 l 665 987 l 551 327 q 530 250 545 288 q 490 182 515 212 q 431 136 466 153 q 353 120 397 118 q 286 142 311 122 q 248 191 261 161 q 233 257 235 221 q 234 326 230 292 l 345 987 l 188 987 l 75 326 q 80 198 66 260 q 127 91 94 137 q 215 16 161 44 q 340 -14 268 -12 q 480 11 416 -16 q 591 83 543 37 q 669 192 638 129 q 710 328 699 255 l 822 987 z "},"V":{"ha":815,"x_min":124,"x_max":869,"o":"m 264 0 l 419 0 l 869 987 l 690 987 l 394 291 l 375 247 l 370 297 l 294 987 l 124 987 l 264 0 z "},"W":{"ha":815,"x_min":92,"x_max":880,"o":"m 92 0 l 243 0 l 425 575 l 447 648 l 448 569 l 449 0 l 600 0 l 880 987 l 730 987 l 574 404 l 557 342 l 557 406 l 557 987 l 435 987 l 258 416 l 237 347 l 240 417 l 267 987 l 121 987 l 92 0 z "},"X":{"ha":815,"x_min":-33,"x_max":878,"o":"m 440 621 l 315 987 l 137 987 l 331 505 l -33 0 l 163 0 l 412 373 l 544 0 l 722 0 l 523 490 l 878 987 l 683 987 l 440 621 z "},"Y":{"ha":815,"x_min":134,"x_max":888,"o":"m 422 516 l 302 987 l 134 987 l 319 366 l 257 0 l 412 0 l 473 345 l 888 987 l 704 987 l 422 516 z "},"Z":{"ha":815,"x_min":2,"x_max":814,"o":"m 216 134 l 798 875 l 814 987 l 161 987 l 138 852 l 600 852 l 20 115 l 2 0 l 675 0 l 696 134 l 216 134 z "},"a":{"ha":815,"x_min":50,"x_max":709,"o":"m 493 0 l 651 0 l 652 12 q 642 90 640 50 q 650 169 644 130 l 703 495 q 691 603 709 556 q 636 682 672 650 q 549 730 600 713 q 443 748 499 747 q 335 735 390 749 q 236 694 281 722 q 160 623 191 666 q 125 522 130 580 l 283 522 q 302 567 289 548 q 334 599 315 587 q 376 618 352 612 q 426 624 399 625 q 479 615 456 623 q 519 590 503 606 q 542 550 535 574 q 545 497 549 527 l 536 446 l 416 448 q 333 443 375 448 q 252 426 291 437 q 177 396 212 414 q 115 349 142 377 q 72 284 88 321 q 53 199 55 248 q 67 112 50 151 q 115 45 84 73 q 186 2 145 18 q 274 -14 228 -13 q 352 -4 315 -14 q 422 25 389 6 q 456 47 439 35 q 488 73 472 60 q 487 37 486 54 q 493 0 488 19 m 312 116 q 270 123 289 117 q 237 142 250 130 q 217 173 223 154 q 214 216 211 191 q 224 254 216 237 q 243 283 232 271 q 269 306 254 296 q 300 323 284 316 q 364 340 330 336 q 429 345 398 345 l 522 345 l 498 208 q 464 172 482 189 q 425 144 445 156 q 371 123 399 130 q 312 116 342 115 z "},"b":{"ha":815,"x_min":33,"x_max":726,"o":"m 720 363 l 722 378 q 725 462 726 419 q 715 546 724 505 q 690 623 707 587 q 647 686 673 659 q 582 730 620 713 q 495 747 545 746 q 425 740 458 748 q 363 714 392 731 q 331 691 347 704 q 300 661 315 677 l 373 1042 l 214 1042 l 33 0 l 178 0 l 204 81 q 228 51 215 64 q 256 27 241 38 q 317 -3 283 7 q 388 -14 351 -13 q 484 0 441 -15 q 563 41 528 14 q 624 104 597 68 q 670 183 651 141 q 702 272 690 225 q 720 363 714 318 m 563 378 l 562 363 q 549 302 557 333 q 529 242 541 271 q 500 190 517 214 q 460 149 483 165 q 417 126 440 134 q 359 119 394 119 q 314 126 336 119 q 274 146 291 133 q 248 175 259 159 q 229 214 237 192 l 282 519 q 313 558 296 541 q 350 588 330 576 q 394 608 370 601 q 446 614 418 614 q 496 603 475 613 q 531 576 517 593 q 552 537 544 559 q 563 492 559 516 q 566 434 567 463 q 563 378 566 404 z "},"c":{"ha":815,"x_min":73,"x_max":726,"o":"m 361 116 q 310 126 332 117 q 274 151 289 136 q 247 195 256 169 q 233 248 237 220 q 231 301 230 274 q 234 353 231 328 l 237 377 q 251 443 241 410 q 275 506 260 477 q 302 547 286 528 q 336 582 317 567 q 387 608 359 599 q 448 616 414 617 q 504 604 480 615 q 545 572 528 592 q 569 527 561 553 q 574 471 576 500 l 723 470 q 708 581 726 530 q 655 669 690 631 q 570 725 620 705 q 460 747 521 746 q 317 722 382 749 q 203 646 252 694 q 120 523 152 591 q 79 377 88 454 l 77 353 q 75 277 73 314 q 84 205 77 239 q 121 114 96 156 q 184 41 147 71 q 258 1 216 16 q 353 -14 300 -14 q 466 2 410 -16 q 568 54 522 20 q 644 135 614 87 q 678 243 674 183 l 530 242 q 508 189 524 212 q 469 149 492 165 q 418 124 446 132 q 361 116 391 115 z "},"d":{"ha":815,"x_min":69,"x_max":814,"o":"m 75 368 l 73 353 q 71 271 69 313 q 82 189 73 229 q 109 112 92 149 q 152 49 125 76 q 215 4 178 21 q 300 -14 252 -12 q 369 -6 336 -14 q 429 18 401 2 q 467 44 448 29 q 502 77 485 58 l 490 0 l 633 0 l 814 1042 l 655 1042 l 585 664 q 557 693 572 680 q 527 715 543 706 q 472 739 502 730 q 411 747 443 747 q 314 734 358 749 q 235 692 271 719 q 173 628 200 665 q 125 549 145 591 q 93 460 106 506 q 75 368 81 414 m 232 353 l 233 368 q 253 455 239 411 q 292 535 267 499 q 353 593 316 571 q 440 615 389 616 q 483 608 463 614 q 517 591 502 602 q 545 564 533 580 q 566 526 557 547 l 510 209 q 481 175 496 191 q 448 148 465 159 q 403 126 427 134 q 350 120 378 119 q 299 132 320 121 q 264 160 278 142 q 244 196 251 176 q 233 239 237 216 q 228 298 228 268 q 232 353 229 328 z "},"e":{"ha":815,"x_min":64,"x_max":736,"o":"m 372 -14 q 541 19 459 -14 q 673 122 623 53 l 594 207 q 501 140 553 164 q 389 118 449 116 q 315 135 347 119 q 263 179 283 152 q 233 242 243 206 q 227 317 224 277 l 717 317 l 728 387 q 725 520 736 456 q 681 635 713 585 q 594 715 648 685 q 463 747 540 745 q 361 735 410 749 q 271 695 313 721 q 204 642 235 673 q 149 574 174 610 q 99 476 119 529 q 74 368 80 423 l 71 339 q 82 203 64 267 q 140 92 100 139 q 239 16 180 44 q 372 -14 298 -13 m 453 616 q 514 601 488 614 q 557 564 540 587 q 579 512 573 542 q 581 449 586 482 l 578 434 l 243 435 q 276 502 257 469 q 321 561 295 535 q 379 602 346 587 q 453 616 412 618 z "},"f":{"ha":815,"x_min":125,"x_max":861,"o":"m 210 0 l 369 0 l 475 612 l 739 612 l 760 734 l 493 733 l 501 779 q 523 845 508 817 q 562 894 538 874 q 624 928 588 917 q 702 939 659 940 q 769 934 736 939 q 834 920 802 929 l 861 1049 q 775 1065 819 1058 q 688 1072 732 1072 q 558 1053 617 1073 q 456 996 500 1034 q 382 903 411 958 q 342 779 353 848 l 334 733 l 147 734 l 125 612 l 316 612 l 210 0 z "},"g":{"ha":815,"x_min":23,"x_max":766,"o":"m 76 368 l 74 353 q 72 271 70 313 q 84 188 74 228 q 111 111 93 147 q 156 48 128 75 q 220 4 182 20 q 306 -14 258 -13 q 370 -7 340 -14 q 427 14 400 0 q 465 37 447 24 q 499 67 482 51 l 488 15 q 461 -58 479 -25 q 416 -114 443 -91 q 353 -150 389 -138 q 275 -161 318 -162 q 180 -135 222 -159 q 107 -69 138 -111 l 23 -166 q 135 -256 67 -225 q 277 -289 203 -288 q 413 -270 350 -291 q 524 -208 475 -249 q 603 -110 572 -168 q 645 20 635 -52 l 766 734 l 621 734 l 597 659 q 570 690 585 676 q 540 713 555 704 q 482 739 513 730 q 416 747 450 747 q 319 734 363 749 q 239 693 275 720 q 176 629 203 666 q 127 550 148 593 q 94 460 107 507 q 76 368 81 414 m 233 353 l 235 368 q 255 455 240 411 q 295 536 270 500 q 357 594 320 572 q 446 615 395 616 q 489 608 469 614 q 525 591 509 602 q 552 565 540 581 q 572 530 564 549 l 516 206 q 484 170 501 186 q 448 143 467 154 q 405 125 429 132 q 355 120 382 119 q 303 132 325 121 q 267 161 281 143 q 244 202 252 179 q 233 252 236 226 q 230 304 229 277 q 233 353 230 330 z "},"h":{"ha":815,"x_min":31,"x_max":730,"o":"m 292 628 l 370 1042 l 212 1042 l 31 0 l 189 0 l 282 532 q 318 565 299 550 q 358 591 337 581 q 404 608 380 602 q 454 613 427 614 q 513 599 490 612 q 550 565 536 587 q 567 515 564 543 q 567 454 570 486 l 490 0 l 649 0 l 724 452 q 722 562 730 509 q 690 656 714 614 q 622 722 665 696 q 515 747 579 747 q 439 736 475 748 q 373 704 404 724 q 330 670 350 689 q 292 628 309 650 z "},"i":{"ha":815,"x_min":67,"x_max":679,"o":"m 195 734 l 171 599 l 390 599 l 310 134 l 91 134 l 67 0 l 655 0 l 679 134 l 469 134 l 573 734 l 195 734 m 432 921 q 459 857 432 881 q 524 835 486 833 q 590 861 564 836 q 616 926 616 886 q 590 991 616 966 q 525 1014 564 1015 q 459 987 485 1013 q 432 921 433 960 z "},"j":{"ha":815,"x_min":29,"x_max":663,"o":"m 256 734 l 233 599 l 437 599 l 333 -12 q 314 -74 328 -46 q 281 -120 301 -101 q 228 -153 259 -142 q 159 -163 197 -164 q 104 -160 132 -163 q 50 -153 77 -158 l 29 -286 q 94 -294 62 -292 q 159 -298 126 -297 q 286 -279 229 -298 q 386 -224 343 -260 q 456 -134 429 -188 q 492 -12 483 -81 l 619 734 l 256 734 m 479 921 q 505 858 479 882 q 570 835 531 833 q 636 861 609 836 q 663 927 663 886 q 636 991 663 966 q 570 1014 609 1015 q 505 987 531 1013 q 479 921 479 961 z "},"k":{"ha":815,"x_min":33,"x_max":792,"o":"m 337 318 l 508 0 l 694 0 l 454 421 l 792 734 l 589 734 l 340 506 l 267 437 l 372 1042 l 214 1042 l 33 0 l 191 0 l 231 230 l 337 318 z "},"l":{"ha":815,"x_min":61,"x_max":685,"o":"m 242 1042 l 218 907 l 444 907 l 310 134 l 85 134 l 61 0 l 661 0 l 685 134 l 469 134 l 627 1042 l 242 1042 z "},"m":{"ha":815,"x_min":-16,"x_max":774,"o":"m 248 734 l 111 734 l -16 0 l 130 0 l 227 564 q 241 583 234 574 q 257 598 248 592 q 278 610 266 606 q 305 614 290 614 q 332 607 322 614 q 347 589 342 600 q 352 564 351 578 q 351 536 353 551 l 260 0 l 404 0 l 501 563 q 512 581 506 572 q 526 596 519 589 q 550 609 537 605 q 578 614 562 614 q 605 607 595 614 q 621 589 615 600 q 626 564 625 578 q 625 536 627 550 l 535 0 l 681 0 l 768 526 q 770 607 774 564 q 746 688 766 650 q 705 730 731 714 q 639 747 678 747 q 558 726 593 748 q 496 669 524 704 q 482 701 491 688 q 462 724 473 715 q 427 742 446 736 q 385 748 408 748 q 296 722 333 748 q 232 653 258 695 l 248 734 z "},"n":{"ha":815,"x_min":31,"x_max":730,"o":"m 31 0 l 189 0 l 281 524 q 315 561 297 544 q 354 589 334 578 q 400 608 376 602 q 451 614 424 614 q 512 601 488 613 q 549 568 536 589 q 565 518 562 547 q 565 456 568 490 l 489 0 l 647 0 l 723 454 q 722 564 730 511 q 690 657 713 617 q 624 722 665 698 q 519 747 582 746 q 443 738 479 748 q 376 708 407 728 q 328 673 351 693 q 286 629 306 652 l 300 734 l 158 734 l 31 0 z "},"o":{"ha":815,"x_min":60,"x_max":734,"o":"m 67 369 l 66 355 q 65 257 60 304 q 86 167 71 209 q 116 108 98 135 q 157 56 134 81 q 237 6 189 26 q 344 -14 285 -13 q 492 14 425 -16 q 608 96 558 44 q 687 216 656 147 q 727 361 718 285 l 728 376 q 729 474 734 426 q 709 565 724 522 q 676 629 696 600 q 629 684 656 659 q 552 729 597 712 q 450 747 507 747 q 303 720 369 749 q 189 640 237 690 q 107 517 138 587 q 67 369 77 446 m 224 355 l 225 369 q 246 457 231 412 q 288 537 262 501 q 351 596 313 574 q 440 616 389 618 q 512 593 484 614 q 553 540 539 572 q 572 458 570 502 q 570 375 574 414 l 568 361 q 548 276 564 322 q 507 194 532 229 q 442 136 480 158 q 354 115 404 114 q 280 139 309 117 q 239 194 252 161 q 222 272 224 229 q 224 355 219 315 z "},"p":{"ha":815,"x_min":-17,"x_max":724,"o":"m 718 364 l 719 378 q 722 463 724 420 q 713 547 721 506 q 687 623 704 587 q 644 687 671 659 q 580 730 617 714 q 492 747 543 746 q 420 739 454 748 q 357 712 387 730 q 323 688 340 702 q 292 658 307 674 l 304 734 l 159 734 l -17 -282 l 142 -282 l 208 68 q 235 40 220 52 q 266 18 250 27 q 322 -6 292 2 q 386 -14 353 -14 q 477 -2 435 -16 q 553 37 519 12 q 621 104 591 64 q 671 190 650 144 q 701 276 689 231 q 718 364 713 320 m 560 378 l 559 364 q 549 308 555 337 q 530 252 542 279 q 500 195 518 222 q 457 149 481 168 q 410 125 436 134 q 351 117 383 116 q 307 123 328 117 q 271 141 287 130 q 245 167 256 152 q 225 202 233 182 l 283 530 q 310 561 296 547 q 341 586 325 576 q 387 607 362 600 q 439 614 411 614 q 489 603 469 613 q 525 576 510 593 q 547 539 538 561 q 559 492 555 517 q 564 434 564 464 q 560 378 564 405 z "},"q":{"ha":815,"x_min":70,"x_max":760,"o":"m 76 368 l 75 354 q 72 271 70 314 q 83 189 73 229 q 109 112 92 148 q 153 48 125 75 q 216 4 179 20 q 302 -14 254 -13 q 366 -7 336 -14 q 423 14 396 0 q 458 36 441 23 q 492 64 476 49 l 425 -282 l 584 -282 l 760 734 l 617 734 l 592 659 q 563 692 578 677 q 530 716 547 706 q 475 739 505 731 q 413 747 445 747 q 317 734 361 749 q 238 694 273 720 q 175 631 203 668 q 127 552 147 595 q 94 462 107 509 q 76 368 81 415 m 233 354 l 234 368 q 244 424 237 395 q 262 479 251 452 q 291 533 273 507 q 330 578 308 559 q 380 607 353 597 q 443 616 408 618 q 483 611 465 616 q 517 595 502 606 q 546 570 533 585 q 568 535 559 555 l 509 200 q 479 168 495 182 q 446 142 463 153 q 402 123 425 130 q 352 117 378 117 q 300 130 321 118 q 264 160 278 141 q 242 202 250 178 q 232 252 235 226 q 229 304 229 278 q 233 354 230 331 z "},"r":{"ha":815,"x_min":130,"x_max":778,"o":"m 644 749 q 568 739 604 749 q 499 712 532 730 q 439 670 467 694 q 385 615 410 645 l 390 641 l 405 734 l 257 734 l 130 0 l 288 0 l 366 454 q 410 513 386 487 q 463 555 434 538 q 526 579 492 571 q 598 587 559 588 q 668 582 633 587 q 736 569 702 577 l 778 729 q 711 744 745 739 q 644 749 677 748 z "},"s":{"ha":815,"x_min":64,"x_max":736,"o":"m 534 203 q 512 156 530 174 q 470 127 494 138 q 418 112 446 117 q 367 108 390 108 q 310 115 336 108 q 263 137 283 122 q 231 175 243 152 q 218 230 218 197 l 65 231 q 90 124 64 170 q 157 49 115 79 q 251 2 198 18 q 359 -14 304 -14 q 464 -4 409 -15 q 566 31 519 7 q 651 102 616 58 q 690 212 686 147 q 673 293 692 259 q 623 351 654 328 q 584 377 606 366 q 540 398 563 389 q 483 417 512 409 q 425 431 453 425 q 381 440 406 435 q 334 456 356 446 q 300 483 313 466 q 292 528 287 500 q 312 573 296 555 q 351 604 328 592 q 399 620 373 614 q 449 625 425 625 q 499 617 475 624 q 541 597 523 610 q 568 563 558 583 q 578 514 578 542 l 735 513 q 712 616 736 572 q 650 689 688 660 q 559 732 610 718 q 454 747 509 747 q 361 738 409 748 q 271 707 313 727 q 178 634 216 682 q 138 521 140 586 q 159 432 136 469 q 220 371 182 396 q 287 336 252 350 q 361 312 322 322 q 409 300 384 307 q 460 287 433 294 q 489 275 475 282 q 514 259 503 268 q 532 235 526 249 q 534 203 538 221 z "},"t":{"ha":815,"x_min":122,"x_max":743,"o":"m 506 913 l 347 913 l 316 734 l 144 734 l 122 612 l 295 612 l 235 252 q 240 149 230 197 q 275 65 250 101 q 342 8 300 30 q 443 -14 384 -13 q 551 -7 494 -15 q 654 28 607 1 l 646 141 q 570 127 608 133 q 493 122 532 121 q 440 134 461 123 q 409 163 420 144 q 395 207 398 182 q 395 261 392 232 l 454 612 l 722 612 l 743 734 l 475 734 l 506 913 z "},"u":{"ha":815,"x_min":85,"x_max":768,"o":"m 294 -14 q 417 17 362 -16 q 513 102 471 50 l 498 0 l 641 0 l 768 734 l 610 734 l 519 214 q 487 175 504 192 q 450 146 469 158 q 399 125 427 132 q 342 119 372 119 q 282 137 303 121 q 254 178 262 153 q 245 235 245 203 q 249 297 245 266 l 321 734 l 163 734 l 91 299 q 90 187 85 242 q 121 85 96 132 q 186 15 144 42 q 294 -14 228 -13 z "},"v":{"ha":815,"x_min":109,"x_max":807,"o":"m 274 0 l 413 0 l 807 734 l 638 734 l 382 205 l 363 154 l 361 202 l 264 734 l 109 734 l 274 0 z "},"w":{"ha":815,"x_min":81,"x_max":839,"o":"m 92 0 l 227 0 l 386 408 l 420 505 l 420 414 l 440 0 l 574 0 l 839 734 l 692 734 l 551 287 l 524 199 l 524 291 l 509 734 l 404 734 l 236 291 l 206 205 l 210 286 l 222 734 l 81 734 l 92 0 z "},"x":{"ha":815,"x_min":-4,"x_max":815,"o":"m 422 488 l 293 734 l 128 734 l 318 379 l -4 0 l 180 0 l 397 256 l 534 0 l 699 0 l 503 366 l 815 734 l 631 734 l 422 488 z "},"y":{"ha":815,"x_min":-8,"x_max":850,"o":"m 366 281 l 266 734 l 98 734 l 279 41 l 212 -58 q 186 -93 199 -75 q 158 -125 174 -111 q 124 -151 142 -141 q 83 -163 106 -161 q 54 -161 69 -163 q 25 -158 39 -159 l -8 -285 q 36 -294 14 -290 q 81 -298 58 -298 q 166 -283 127 -298 q 237 -243 205 -269 q 295 -183 269 -217 q 343 -112 321 -149 l 850 734 l 667 734 l 376 208 l 366 281 z "},"z":{"ha":815,"x_min":25,"x_max":765,"o":"m 262 131 l 748 625 l 765 734 l 148 734 l 127 602 l 524 602 l 43 113 l 25 0 l 669 0 l 690 131 l 262 131 z "},"¹":{"ha":815,"x_min":325,"x_max":605,"o":"m 517 449 l 605 983 l 589 983 l 342 905 l 325 802 l 463 835 l 396 449 l 517 449 z "},"²":{"ha":815,"x_min":220,"x_max":671,"o":"m 623 452 l 640 551 l 400 552 l 507 629 q 561 669 533 648 q 612 716 589 691 q 651 771 635 741 q 669 836 667 801 q 656 907 671 877 q 616 956 642 937 q 558 986 591 976 q 487 996 524 996 q 408 984 445 997 q 342 948 370 972 q 295 890 313 924 q 273 813 277 856 l 395 814 q 406 847 399 831 q 425 873 414 862 q 453 891 437 884 q 489 897 469 898 q 532 881 517 897 q 543 836 547 865 q 530 802 540 819 q 505 769 519 785 q 476 741 492 754 q 448 716 461 727 l 236 542 l 220 452 l 623 452 z "},"³":{"ha":815,"x_min":235,"x_max":678,"o":"m 623 686 q 600 707 613 698 q 568 722 586 715 q 608 743 589 731 q 642 769 627 754 q 666 803 656 784 q 676 846 675 822 q 662 915 678 886 q 619 960 646 943 q 558 986 592 978 q 490 996 524 995 q 417 987 452 996 q 355 960 382 978 q 308 912 326 941 q 286 843 290 883 l 410 844 q 442 883 420 871 q 493 895 465 895 q 519 892 507 895 q 540 881 531 888 q 553 863 549 874 q 555 838 557 852 q 543 806 553 819 q 519 785 533 793 q 488 771 505 776 q 455 766 471 767 l 400 767 l 393 680 l 454 680 q 484 676 469 680 q 511 667 499 673 q 526 647 521 659 q 529 615 532 634 q 517 584 526 597 q 494 562 507 571 q 464 549 480 553 q 431 545 447 545 q 398 549 413 545 q 374 562 384 553 q 360 581 365 570 q 354 608 355 592 l 235 608 q 251 536 235 567 q 292 486 266 506 q 351 455 317 466 q 422 444 385 445 q 500 452 460 444 q 572 481 539 461 q 624 531 604 500 q 646 606 645 562 q 641 650 647 630 q 623 686 635 670 z "},"ª":{"ha":815,"x_min":218,"x_max":677,"o":"m 524 477 l 635 477 q 632 539 631 509 q 638 601 633 570 q 656 707 650 672 q 672 814 662 743 q 667 889 677 855 q 635 948 656 924 q 580 986 613 972 q 505 1001 547 1000 q 429 993 467 1002 q 362 964 392 984 q 311 915 332 945 q 284 843 290 884 l 395 835 q 409 864 400 852 q 429 885 417 877 q 459 899 442 895 q 496 903 476 903 q 529 895 516 902 q 549 877 542 888 q 558 849 555 865 q 558 816 560 833 l 553 780 l 460 781 q 378 773 420 781 q 302 747 336 766 q 244 697 267 728 q 220 618 222 666 q 228 556 218 584 q 258 509 238 528 q 306 479 277 490 q 368 469 334 469 q 453 488 414 468 q 522 542 492 507 q 522 510 522 526 q 524 477 522 494 m 403 563 q 376 566 389 563 q 353 576 363 569 q 339 594 344 583 q 336 621 334 605 q 350 658 338 643 q 380 683 362 673 q 418 697 397 692 q 457 702 438 701 l 543 702 l 530 629 q 507 605 520 616 q 479 585 494 594 q 442 569 462 574 q 403 563 422 563 z "},"º":{"ha":815,"x_min":224,"x_max":697,"o":"m 237 773 l 228 694 q 236 605 224 646 q 273 534 248 564 q 338 487 299 504 q 425 468 376 469 q 522 483 477 467 q 600 529 566 498 q 655 602 633 559 q 684 694 677 644 l 692 774 q 685 863 697 822 q 648 934 673 904 q 584 982 622 964 q 496 1001 545 1000 q 399 986 444 1002 q 321 939 355 970 q 265 866 287 909 q 237 773 243 824 m 343 692 l 351 774 q 365 825 355 801 q 392 867 375 848 q 431 894 408 884 q 484 903 454 904 q 531 892 511 903 q 561 863 550 882 q 576 822 572 846 q 578 774 581 799 l 570 694 q 556 643 566 667 q 530 602 546 619 q 490 573 513 583 q 438 564 467 563 q 391 575 410 564 q 361 604 372 586 q 345 645 349 622 q 343 692 341 668 z "},"½":{"ha":815,"x_min":98,"x_max":765,"o":"m 271 509 l 350 989 l 336 989 l 115 919 l 98 827 l 223 856 l 163 509 l 271 509 m 722 0 l 738 89 l 522 90 l 618 159 q 666 196 642 176 q 712 237 691 215 q 747 287 733 260 q 764 345 762 313 q 752 409 765 382 q 717 453 739 436 q 664 480 694 471 q 600 490 633 489 q 528 479 562 490 q 469 446 495 467 q 427 394 443 425 q 407 324 411 363 l 517 325 q 528 356 521 342 q 545 379 535 370 q 570 395 556 390 q 602 401 584 401 q 626 396 615 401 q 642 384 636 392 q 650 367 648 376 q 650 346 652 357 q 638 314 647 330 q 616 286 629 299 q 590 259 604 271 q 565 238 576 248 l 374 81 l 359 0 l 722 0 m 193 157 l 636 791 l 556 840 l 113 205 l 193 157 z "},"¼":{"ha":815,"x_min":117,"x_max":739,"o":"m 290 509 l 370 990 l 355 990 l 134 920 l 117 827 l 242 857 l 182 509 l 290 509 m 678 191 l 728 481 l 616 483 l 351 179 l 344 100 l 555 100 l 538 0 l 647 0 l 665 100 l 722 100 l 739 191 l 678 191 m 465 191 l 591 328 l 602 342 l 570 191 l 465 191 m 235 157 l 680 791 l 599 840 l 155 205 l 235 157 z "},"¾":{"ha":815,"x_min":71,"x_max":766,"o":"m 705 191 l 756 481 l 644 483 l 379 179 l 371 100 l 583 100 l 566 0 l 675 0 l 692 100 l 749 100 l 766 191 l 705 191 m 492 191 l 618 328 l 629 342 l 598 191 l 492 191 m 220 788 l 213 711 l 267 710 q 295 707 281 709 q 318 698 309 705 q 333 680 328 691 q 336 652 338 669 q 325 624 333 636 q 304 604 316 612 q 277 592 292 596 q 247 588 262 588 q 217 593 231 589 q 194 605 203 597 q 183 622 187 612 q 178 645 178 631 l 71 645 q 85 581 71 609 q 121 535 98 553 q 175 508 144 517 q 240 498 205 498 q 309 505 274 497 q 374 530 345 513 q 421 576 403 549 q 441 644 440 604 q 435 687 442 667 q 415 720 429 706 q 396 736 407 729 q 371 747 385 743 q 407 766 390 756 q 437 790 424 777 q 458 821 450 804 q 468 860 467 838 q 455 921 470 896 q 416 962 441 947 q 361 986 392 979 q 300 994 331 994 q 235 986 267 994 q 178 962 204 978 q 137 919 153 945 q 117 857 120 892 l 228 857 q 257 893 237 882 q 303 904 277 904 q 326 901 315 904 q 345 891 337 897 q 357 875 353 885 q 359 852 361 865 q 348 824 357 836 q 327 804 340 812 q 299 793 315 797 q 269 788 283 789 l 220 788 m 286 157 l 729 791 l 649 840 l 205 205 l 286 157 z "},"Æ":{"ha":815,"x_min":-47,"x_max":866,"o":"m 709 0 l 732 132 l 531 132 l 585 444 l 751 444 l 774 576 l 608 576 l 655 854 l 843 854 l 866 987 l 462 987 l -47 0 l 122 0 l 233 232 l 397 232 l 357 0 l 709 0 m 299 376 l 491 774 l 422 376 l 299 376 z "},"æ":{"ha":815,"x_min":-9,"x_max":803,"o":"m 517 -13 q 567 -11 541 -14 q 618 -2 593 -9 q 667 14 644 3 q 710 41 690 25 l 686 156 q 651 140 668 147 q 616 127 634 132 q 586 120 602 123 q 553 119 570 118 q 496 132 519 119 q 463 165 473 144 q 450 207 452 183 q 451 259 448 231 l 460 320 l 771 320 l 793 462 q 795 574 803 524 q 766 662 787 624 q 707 722 744 699 q 616 747 670 745 q 531 732 570 748 q 456 688 492 717 q 389 735 427 722 q 307 749 350 748 q 216 735 258 749 q 142 693 174 720 q 92 626 111 665 q 68 536 73 586 l 220 530 q 229 563 222 547 q 245 591 235 579 q 269 610 254 603 q 303 616 283 617 q 332 607 321 616 q 347 585 342 598 q 351 556 351 572 q 349 526 351 540 l 332 436 l 310 436 q 195 424 251 437 q 96 381 140 411 q 25 304 53 351 q -7 193 -3 258 q 2 112 -9 149 q 36 47 12 74 q 93 3 58 19 q 172 -14 127 -13 q 227 -7 201 -14 q 275 14 252 1 q 311 41 294 25 q 345 74 329 56 q 377 35 359 51 q 418 9 396 19 q 466 -7 441 -3 q 517 -13 490 -12 m 593 617 q 627 607 614 616 q 646 583 640 597 q 654 551 652 568 q 654 517 656 534 l 643 435 l 474 435 l 482 479 q 493 527 486 503 q 513 572 500 552 q 545 605 526 593 q 593 617 564 618 m 214 109 q 183 115 196 109 q 163 133 171 121 q 152 158 155 144 q 151 189 149 173 q 168 243 155 218 q 203 287 182 269 q 250 315 224 305 q 306 326 277 326 l 323 325 l 284 140 q 268 130 276 135 q 251 119 260 124 q 234 113 243 115 q 214 109 224 110 z "},"Œ":{"ha":815,"x_min":35,"x_max":877,"o":"m 713 0 l 736 134 l 487 134 l 542 448 l 749 448 l 772 576 l 564 576 l 613 859 l 854 859 l 877 987 l 595 987 q 509 997 551 991 q 421 1002 466 1002 q 317 987 364 1003 q 235 942 271 970 q 185 892 207 920 q 146 833 163 865 q 110 746 124 793 q 89 649 96 699 l 39 338 q 36 264 35 302 q 43 193 36 227 q 63 125 50 157 q 98 68 77 93 q 165 11 124 33 q 266 -13 207 -12 q 354 -9 311 -14 q 443 0 398 -3 l 713 0 m 275 121 q 233 131 250 123 q 205 154 216 140 q 189 185 195 167 q 180 222 183 203 q 178 280 176 250 q 184 338 180 311 l 232 651 q 249 732 238 692 q 279 804 260 772 q 332 856 300 836 q 412 875 363 876 q 443 873 427 875 q 473 871 458 872 l 338 121 q 307 121 322 121 q 275 121 291 121 z "},"œ":{"ha":815,"x_min":6,"x_max":795,"o":"m 308 748 q 220 734 259 749 q 151 695 182 720 q 114 656 131 678 q 84 610 97 633 q 49 524 62 570 q 30 433 36 479 l 10 298 q 7 225 6 263 q 16 153 8 188 q 30 108 21 130 q 51 68 38 86 q 110 10 73 33 q 201 -14 147 -12 q 276 -2 241 -14 q 340 32 310 9 q 356 45 348 38 q 372 59 364 52 q 396 34 382 45 q 423 14 409 22 q 476 -6 448 0 q 534 -14 505 -13 q 583 -10 559 -14 q 630 3 608 -6 q 665 21 648 10 q 695 45 681 31 l 665 153 q 639 139 652 146 q 612 127 626 132 q 584 121 598 123 q 554 119 570 119 q 511 132 527 119 q 488 164 495 144 q 478 195 481 178 q 476 229 476 212 q 477 260 476 245 q 481 287 479 275 l 486 320 l 769 320 l 789 450 q 794 523 795 489 q 785 589 793 557 q 765 649 779 621 q 731 699 752 677 q 681 733 710 720 q 612 747 651 746 q 559 741 584 747 q 512 721 534 734 q 483 701 497 712 q 456 677 469 690 q 433 702 446 691 q 407 722 420 713 q 360 741 385 734 q 308 748 335 747 m 164 297 l 181 434 q 185 465 182 448 q 191 500 187 481 q 201 535 195 517 q 216 567 208 552 q 246 603 228 589 q 291 617 264 618 q 322 606 310 616 q 342 580 335 595 q 350 543 348 563 q 352 503 353 524 q 350 465 351 484 q 346 435 348 447 l 329 298 q 324 263 327 283 q 316 223 321 243 q 303 182 311 202 q 284 148 296 163 q 256 123 273 132 q 218 115 240 114 q 186 126 199 116 q 168 153 174 137 q 160 189 161 169 q 159 229 158 209 q 161 267 159 249 q 164 297 163 285 m 496 437 l 497 444 q 503 474 500 457 q 510 511 505 492 q 521 550 514 530 q 538 585 528 569 q 563 608 549 600 q 596 616 577 617 q 618 611 609 616 q 633 598 627 606 q 640 585 637 592 q 645 571 643 578 q 649 532 649 553 q 646 497 648 512 l 638 439 l 496 437 z "},"ð":{"ha":815,"x_min":14,"x_max":792,"o":"m 724 609 q 703 737 720 673 q 655 862 686 800 l 792 930 l 752 1010 l 595 928 q 514 989 557 964 q 420 1029 470 1013 l 357 899 q 405 878 382 890 q 448 850 427 867 l 289 768 l 330 689 l 513 785 q 553 690 541 739 q 567 589 566 642 q 528 618 548 605 q 484 640 507 631 q 439 653 463 648 q 390 659 415 658 q 249 634 314 661 q 136 562 184 608 q 57 450 87 515 q 20 312 26 386 q 33 185 14 244 q 90 83 52 127 q 184 14 128 39 q 307 -14 239 -12 q 417 0 366 -16 q 511 43 468 15 q 585 107 551 70 q 644 187 618 144 q 689 285 671 233 q 713 391 706 337 l 719 435 q 726 524 725 480 q 724 609 728 567 m 484 201 q 415 139 455 163 q 320 116 374 115 q 252 135 280 117 q 205 179 223 152 q 180 241 187 206 q 178 312 174 275 q 199 392 183 353 q 243 464 216 432 q 306 514 269 495 q 387 534 342 534 q 437 530 412 534 q 488 517 463 526 q 532 493 511 508 q 566 457 552 479 l 562 437 l 553 380 q 542 328 549 355 q 525 276 535 302 q 506 237 517 256 q 484 201 496 218 z "},"Þ":{"ha":815,"x_min":27,"x_max":779,"o":"m 357 987 l 199 987 l 27 0 l 186 0 l 221 203 l 393 202 q 530 221 464 202 q 648 278 596 240 q 733 373 699 316 q 773 505 766 429 q 758 629 779 575 q 696 719 736 682 q 600 775 656 756 q 478 797 543 795 l 324 798 l 357 987 m 302 666 l 473 665 q 537 652 509 664 q 585 620 566 640 q 611 570 603 599 q 615 505 620 541 q 590 431 609 463 q 541 377 570 399 q 475 344 512 355 q 398 333 439 333 l 243 334 l 302 666 z "},"þ":{"ha":815,"x_min":-17,"x_max":724,"o":"m 499 5 q 560 41 532 20 q 610 91 588 63 q 642 136 627 112 q 669 185 656 159 q 700 273 688 227 q 718 363 712 319 l 720 378 q 723 462 724 419 q 713 546 722 505 q 689 623 705 587 q 646 686 672 659 q 582 730 619 713 q 494 747 545 746 q 432 741 462 748 q 376 722 402 734 q 336 697 355 711 q 299 664 317 682 l 372 1050 l 215 1050 l -17 -282 l 142 -282 l 208 69 q 240 36 222 50 q 277 12 258 22 q 330 -7 302 -1 q 387 -14 357 -14 q 447 -10 418 -15 q 499 5 475 -5 m 353 116 q 312 122 332 117 q 277 138 293 127 q 248 164 260 149 q 226 202 235 180 l 283 529 q 318 568 298 551 q 359 596 337 585 q 398 610 377 606 q 441 614 418 614 q 493 602 472 613 q 529 572 515 590 q 551 530 543 553 q 562 480 559 506 q 564 428 564 454 q 560 378 563 401 l 559 364 q 540 277 553 322 q 502 197 526 233 q 475 164 490 179 q 444 139 461 150 q 402 121 425 127 q 353 116 380 115 z "},"ĸ":{"ha":815,"x_min":41,"x_max":821,"o":"m 362 302 l 509 0 l 700 0 l 486 414 l 821 734 l 614 734 l 346 478 l 269 404 l 327 734 l 168 734 l 41 0 l 199 0 l 235 205 l 362 302 z "},"ß":{"ha":815,"x_min":37,"x_max":726,"o":"m 195 0 l 319 732 q 334 799 323 764 q 364 864 345 834 q 410 912 382 893 q 478 929 438 931 q 516 917 500 928 q 542 890 532 907 q 555 854 551 874 q 555 814 558 833 q 538 754 552 782 q 505 696 525 727 q 463 629 484 665 q 439 552 442 593 q 445 490 435 519 q 471 435 455 461 q 505 385 486 410 q 539 336 524 360 q 564 284 555 311 q 568 228 572 258 q 555 186 564 205 q 531 151 545 166 q 493 125 515 135 q 445 116 471 116 q 369 127 407 115 q 300 160 332 140 l 254 30 q 347 -5 296 4 q 446 -16 397 -15 q 553 0 504 -16 q 639 50 602 17 q 697 129 675 82 q 724 234 720 175 q 716 294 726 265 q 690 349 706 322 q 656 399 674 374 q 623 450 637 425 q 600 501 608 475 q 597 555 592 527 q 622 624 604 593 q 659 687 640 656 q 694 751 678 718 q 713 824 710 783 q 703 919 718 876 q 660 992 689 961 q 588 1040 630 1023 q 495 1058 546 1057 q 365 1035 422 1060 q 265 964 307 1009 q 198 859 224 919 q 163 733 172 800 l 37 0 l 195 0 z "},"ə":{"ha":815,"x_min":86,"x_max":745,"o":"m 449 747 q 375 744 412 748 q 300 730 337 740 q 230 703 264 720 q 168 662 196 686 l 210 554 q 316 601 261 585 q 432 616 371 618 q 505 597 475 614 q 554 552 535 580 q 576 501 569 530 q 583 441 583 473 q 583 427 583 434 q 582 413 583 420 l 109 413 l 94 316 q 99 188 86 248 q 146 84 112 129 q 232 15 179 40 q 358 -13 286 -11 q 462 1 413 -14 q 553 43 511 16 q 619 100 591 69 q 670 168 647 131 q 713 259 696 210 q 735 358 730 307 l 739 387 q 730 524 745 459 q 677 638 715 589 q 583 716 641 687 q 449 747 526 746 m 368 117 q 308 130 333 117 q 267 163 282 142 q 245 214 251 185 q 245 276 240 242 l 249 295 l 566 294 q 536 230 554 262 q 494 172 518 198 q 439 131 470 146 q 368 117 408 116 z "},"$":{"ha":815,"x_min":69,"x_max":784,"o":"m 557 262 q 494 155 548 191 q 373 120 440 118 q 260 174 292 121 q 233 300 229 227 l 75 301 q 127 93 69 179 q 309 -10 185 7 l 285 -143 l 388 -143 l 412 -12 q 618 67 530 1 q 713 263 705 134 q 700 371 718 325 q 649 454 682 418 q 570 515 616 489 q 473 564 524 542 q 419 589 445 575 q 373 621 393 603 q 343 665 354 640 q 337 724 333 690 q 390 828 345 789 q 502 866 435 867 q 601 805 578 864 q 621 682 624 745 l 779 682 q 739 883 784 793 q 575 996 694 973 l 602 1146 l 499 1146 l 472 999 q 271 916 354 986 q 180 724 189 846 q 194 615 176 662 q 246 532 212 568 q 326 471 280 497 q 424 423 372 444 q 478 398 452 412 q 522 365 503 385 q 551 321 541 346 q 557 262 561 296 z "},"¢":{"ha":815,"x_min":83,"x_max":736,"o":"m 371 116 q 306 135 330 117 q 268 180 281 153 q 252 213 258 195 q 243 252 246 232 q 241 303 241 277 q 244 353 241 329 l 248 377 q 258 434 251 406 q 278 489 266 463 q 310 544 292 518 q 353 587 329 569 q 401 609 375 602 q 458 616 427 617 q 515 604 490 615 q 555 572 539 592 q 579 527 572 553 q 585 471 587 500 l 734 470 q 724 566 736 522 q 685 645 711 610 q 622 704 659 680 q 539 739 585 728 l 567 894 l 438 894 l 412 744 q 288 702 343 735 q 191 620 232 669 q 123 508 149 570 q 90 377 98 446 l 87 353 q 85 285 83 318 q 92 221 86 252 q 111 156 98 187 q 143 100 124 125 q 201 37 166 64 q 283 -3 236 10 l 254 -166 l 382 -166 l 410 -12 q 509 14 460 -6 q 596 67 557 34 q 660 145 635 100 q 689 243 684 189 l 541 242 q 519 189 535 212 q 480 149 503 165 q 429 124 457 132 q 371 116 401 115 z "},"£":{"ha":815,"x_min":7,"x_max":812,"o":"m 342 408 l 545 408 l 568 538 l 361 538 l 381 706 q 398 767 386 737 q 431 820 411 797 q 479 857 451 843 q 542 869 507 870 q 596 858 574 869 q 632 828 618 846 q 651 784 646 809 q 654 729 656 758 l 810 728 q 797 838 812 789 q 749 924 782 888 q 670 979 718 959 q 560 1001 623 1000 q 435 981 493 1002 q 332 920 376 960 q 259 826 288 881 q 222 705 231 771 l 201 538 l 98 538 l 75 408 l 182 408 l 165 279 q 156 234 161 257 q 141 191 151 212 q 116 155 131 171 q 78 130 100 139 l 30 132 l 7 0 l 695 0 l 718 132 l 256 130 q 303 201 286 163 q 326 285 320 239 l 342 408 z "},"¥":{"ha":815,"x_min":55,"x_max":903,"o":"m 718 987 l 473 620 l 428 552 l 428 552 l 407 623 l 291 987 l 122 987 l 300 501 l 106 501 l 89 401 l 325 401 l 308 304 l 72 304 l 55 205 l 291 205 l 255 0 l 414 0 l 450 205 l 684 205 l 701 304 l 467 304 l 485 398 l 487 403 l 718 401 l 735 501 l 556 501 l 903 987 l 718 987 z "},"ƒ":{"ha":815,"x_min":-3,"x_max":831,"o":"m 641 612 l 659 734 l 522 734 l 530 793 q 552 858 536 830 q 592 903 568 885 q 647 931 616 922 q 715 939 679 940 q 761 934 739 939 q 804 918 783 928 l 831 1044 q 768 1063 800 1055 q 703 1072 736 1072 q 579 1055 636 1074 q 478 1001 522 1037 q 407 912 435 965 q 371 793 379 860 l 364 734 l 254 734 l 235 612 l 345 612 l 248 -20 q 235 -75 244 -48 q 209 -122 225 -102 q 169 -155 193 -143 q 114 -167 146 -168 q 65 -160 90 -166 q 20 -142 41 -154 l -3 -271 q 56 -290 26 -283 q 117 -297 86 -296 q 232 -277 182 -298 q 319 -220 283 -257 q 377 -132 355 -183 q 407 -20 399 -81 l 503 612 l 641 612 z "},"₣":{"ha":815,"x_min":-38,"x_max":833,"o":"m 677 420 l 701 555 l 295 555 l 347 852 l 810 852 l 833 987 l 210 987 l 39 0 l 199 0 l 272 420 l 677 420 m 403 163 l 423 277 l -18 277 l -38 163 l 403 163 z "},"₤":{"ha":815,"x_min":3,"x_max":808,"o":"m 529 319 l 546 414 l 338 414 l 351 498 l 559 498 l 576 593 l 363 593 l 377 705 q 394 766 381 736 q 427 819 407 796 q 474 856 447 842 q 537 869 502 870 q 592 858 570 869 q 628 828 614 846 q 647 784 642 809 q 651 729 652 758 l 806 728 q 793 838 808 788 q 745 924 778 888 q 666 979 713 959 q 557 1001 618 1000 q 431 981 489 1002 q 328 920 373 960 q 255 826 284 881 q 218 705 227 771 l 205 593 l 103 593 l 87 498 l 191 498 l 179 414 l 72 414 l 55 319 l 170 319 l 163 277 q 153 233 159 256 q 137 191 146 211 q 112 155 127 171 q 74 131 96 139 l 26 132 l 3 0 l 691 0 l 714 132 l 252 130 q 299 201 282 163 q 325 283 317 239 l 330 319 l 529 319 z "},"₧":{"ha":815,"x_min":12,"x_max":836,"o":"m 819 634 l 836 734 l 720 734 l 751 911 l 623 911 l 592 734 l 530 733 q 524 825 533 780 q 490 905 514 869 q 430 962 467 940 q 341 986 393 984 l 182 987 l 12 0 l 139 0 l 210 382 l 253 381 q 356 402 311 381 q 433 457 400 422 q 488 538 465 492 q 526 634 511 584 l 575 634 l 504 202 q 504 129 500 167 q 522 60 507 91 q 563 8 536 28 q 633 -13 590 -12 q 683 -8 658 -14 q 728 13 708 -2 l 718 107 q 693 101 706 104 q 669 99 681 99 q 642 111 650 100 q 630 138 633 122 q 628 171 627 154 q 631 200 629 188 l 703 634 l 819 634 m 220 486 l 296 882 l 339 880 q 372 867 359 878 q 393 839 385 856 q 403 802 400 822 q 406 761 406 781 q 405 721 406 740 q 401 688 403 702 q 389 622 398 657 q 363 557 380 587 q 322 507 347 527 q 258 486 296 486 l 220 486 z "},"¤":{"ha":815,"x_min":4,"x_max":800,"o":"m 550 54 l 604 -18 l 705 71 l 643 153 q 696 247 675 198 q 724 351 718 296 q 726 449 731 401 q 705 545 720 497 l 800 624 l 720 727 l 627 644 q 544 689 589 674 q 452 705 499 705 q 351 690 399 706 q 259 646 304 673 l 199 726 l 100 637 l 163 551 q 103 453 125 505 q 73 342 80 401 q 71 248 66 294 q 89 155 75 201 l 4 84 l 83 -18 l 163 54 q 250 4 203 21 q 347 -14 296 -13 q 453 3 403 -15 q 550 54 504 22 m 193 340 q 205 398 196 370 q 231 452 215 427 q 271 508 247 482 q 323 551 295 534 q 380 575 349 567 q 443 583 410 584 q 493 574 470 583 q 534 552 515 566 q 576 505 559 532 q 600 445 593 477 q 606 399 605 422 q 605 353 608 376 q 592 296 602 324 q 568 243 583 268 q 529 188 551 213 q 480 145 507 163 q 421 118 453 127 q 355 109 390 108 q 301 119 326 109 q 258 144 277 128 q 222 188 237 163 q 199 241 207 213 q 191 290 193 265 q 193 340 189 315 z "},"!":{"ha":815,"x_min":248,"x_max":578,"o":"m 459 334 l 578 987 l 418 987 l 310 334 l 459 334 m 248 78 q 255 42 248 58 q 275 14 262 26 q 304 -4 288 2 q 341 -9 321 -10 q 379 -2 361 -9 q 409 18 396 5 q 428 47 421 31 q 435 84 435 64 q 429 121 435 104 q 409 150 422 138 q 379 169 397 162 q 342 174 362 175 q 305 167 322 174 q 275 147 288 159 q 255 116 262 134 q 248 78 248 98 z "},"¡":{"ha":815,"x_min":218,"x_max":553,"o":"m 338 396 l 218 -256 l 380 -256 l 487 396 l 338 396 m 553 658 q 526 724 553 697 q 459 749 499 750 q 391 720 417 747 q 365 651 365 692 q 392 587 365 611 q 458 564 419 562 q 525 590 497 564 q 553 658 552 616 z "},"?":{"ha":815,"x_min":175,"x_max":773,"o":"m 317 290 l 462 291 q 487 375 469 339 q 545 444 505 411 q 620 506 582 474 q 689 573 658 537 q 742 651 721 608 q 768 745 764 693 q 755 856 773 808 q 701 935 736 903 q 613 984 664 967 q 504 1002 563 1000 q 385 986 441 1003 q 283 937 328 970 q 210 855 239 904 q 175 741 182 806 l 333 741 q 353 795 339 771 q 389 835 368 819 q 436 860 409 851 q 494 867 463 868 q 544 859 522 867 q 580 836 566 850 q 604 796 597 820 q 606 740 610 772 q 583 676 600 706 q 542 619 566 646 q 490 569 517 593 q 439 526 463 546 q 349 422 374 473 q 317 290 324 371 m 254 79 q 281 15 254 39 q 347 -9 308 -10 q 414 18 387 -8 q 441 85 441 43 q 415 151 441 125 q 348 176 388 177 q 280 147 307 175 q 254 79 254 119 z "},"¿":{"ha":815,"x_min":58,"x_max":627,"o":"m 503 444 l 359 443 q 349 398 355 418 q 335 360 344 378 q 312 326 326 342 q 279 293 298 310 q 206 231 243 263 q 139 162 169 199 q 88 83 109 125 q 63 -10 67 41 q 74 -118 58 -71 q 124 -198 90 -165 q 206 -248 158 -231 q 313 -267 254 -265 q 429 -251 374 -268 q 525 -201 483 -235 q 593 -120 566 -168 q 627 -8 621 -71 l 469 -9 q 453 -56 463 -34 q 426 -93 442 -77 q 380 -122 407 -112 q 321 -132 354 -133 q 275 -123 294 -132 q 243 -98 255 -114 q 225 -59 230 -81 q 224 -9 221 -37 q 245 55 229 24 q 285 114 262 85 q 334 165 307 141 q 385 210 360 190 q 437 261 416 237 q 472 313 458 286 q 492 371 485 339 q 503 444 499 402 m 389 650 q 412 591 389 612 q 471 571 435 570 q 532 595 509 572 q 554 654 555 617 q 532 715 555 692 q 471 738 509 739 q 410 712 432 736 q 389 650 389 688 z "},",":{"ha":815,"x_min":130,"x_max":407,"o":"m 384 22 l 407 158 l 250 158 l 226 15 q 190 -101 215 -47 q 130 -206 165 -155 l 217 -256 q 275 -200 248 -231 q 323 -136 302 -170 q 361 -60 346 -100 q 384 22 376 -20 z "},".":{"ha":815,"x_min":245,"x_max":473,"o":"m 245 94 q 276 16 245 46 q 356 -14 308 -14 q 438 18 404 -14 q 473 102 473 51 q 441 181 473 150 q 361 212 410 212 q 277 177 310 212 q 245 94 245 143 z "},":":{"ha":815,"x_min":264,"x_max":591,"o":"m 264 94 q 296 16 264 46 q 376 -14 328 -14 q 458 18 424 -14 q 492 102 492 51 q 461 181 492 150 q 380 212 429 212 q 297 177 330 212 q 264 94 264 143 m 363 668 q 394 590 363 621 q 474 560 426 560 q 556 593 522 560 q 591 676 591 625 q 559 755 591 724 q 479 786 528 786 q 395 752 428 786 q 363 668 363 718 z "},";":{"ha":815,"x_min":196,"x_max":604,"o":"m 376 668 q 407 590 376 621 q 487 560 439 560 q 569 593 535 560 q 604 676 604 625 q 572 755 604 724 q 492 786 541 786 q 408 752 441 786 q 376 668 376 718 m 450 22 l 473 158 l 316 158 l 292 15 q 256 -101 281 -47 q 196 -206 231 -155 l 283 -256 q 341 -200 314 -231 q 389 -136 368 -170 q 427 -60 412 -100 q 450 22 442 -20 z "},"…":{"ha":815,"x_min":58,"x_max":800,"o":"m 58 93 q 90 15 58 45 q 170 -15 121 -15 q 252 18 218 -15 q 286 101 286 50 q 255 180 286 149 q 174 211 223 211 q 91 177 123 211 q 58 93 58 142 m 317 93 q 348 15 317 45 q 428 -15 380 -15 q 510 18 476 -15 q 545 101 545 50 q 513 180 545 149 q 433 211 481 211 q 349 177 382 211 q 317 93 317 142 m 572 93 q 603 15 572 45 q 683 -15 635 -15 q 765 18 731 -15 q 800 101 800 50 q 768 180 800 149 q 688 211 736 211 q 604 177 637 211 q 572 93 572 142 z "},"·":{"ha":815,"x_min":341,"x_max":526,"o":"m 341 481 q 367 417 341 441 q 433 393 393 392 q 498 419 471 393 q 526 486 526 446 q 499 551 526 526 q 434 575 473 576 q 367 547 393 574 q 341 481 341 520 z "},"•":{"ha":815,"x_min":286,"x_max":580,"o":"m 288 530 l 286 490 q 295 433 286 459 q 322 389 304 408 q 365 360 340 370 q 421 349 391 349 q 482 359 454 349 q 530 389 509 370 q 562 435 550 408 q 577 494 574 462 l 579 534 q 571 592 580 565 q 544 637 562 618 q 500 669 526 657 q 443 680 475 680 q 382 669 410 680 q 334 638 354 658 q 301 590 313 618 q 288 530 290 563 z "},"_":{"ha":815,"x_min":6,"x_max":631,"o":"m 608 -128 l 631 0 l 28 0 l 6 -128 l 608 -128 z "},"-":{"ha":815,"x_min":161,"x_max":714,"o":"m 690 368 l 714 500 l 184 500 l 161 368 l 690 368 z "},"–":{"ha":815,"x_min":46,"x_max":804,"o":"m 774 422 l 804 554 l 77 554 l 46 422 l 774 422 z "},"—":{"ha":815,"x_min":46,"x_max":804,"o":"m 774 422 l 804 554 l 77 554 l 46 422 l 774 422 z "},"'":{"ha":815,"x_min":355,"x_max":536,"o":"m 522 947 l 536 1042 l 410 1042 l 397 962 l 355 691 l 466 692 l 522 947 z "},"\"":{"ha":815,"x_min":250,"x_max":681,"o":"m 413 961 l 425 1042 l 304 1042 l 293 971 l 250 698 l 355 698 l 413 961 m 668 961 l 681 1042 l 560 1042 l 549 970 l 506 698 l 610 698 l 668 961 z "},"‘":{"ha":815,"x_min":373,"x_max":623,"o":"m 391 804 l 373 694 l 509 694 l 528 806 q 563 915 538 865 q 623 1014 588 966 l 547 1067 q 490 1011 516 1042 q 444 947 464 981 q 410 879 424 915 q 391 804 397 842 z "},"’":{"ha":815,"x_min":363,"x_max":613,"o":"m 595 948 l 613 1057 l 477 1057 l 458 947 q 422 837 447 888 q 363 739 398 787 l 439 686 q 495 740 469 710 q 542 804 522 770 q 575 873 562 837 q 595 948 589 909 z "},"‚":{"ha":815,"x_min":202,"x_max":457,"o":"m 437 48 l 457 170 l 316 170 l 294 46 q 260 -63 284 -12 q 202 -161 237 -113 l 281 -214 q 382 -97 340 -164 q 437 48 424 -30 z "},"“":{"ha":815,"x_min":265,"x_max":734,"o":"m 283 804 l 265 694 l 401 694 l 420 806 q 455 915 431 865 q 515 1014 480 966 l 439 1067 q 382 1011 408 1042 q 336 947 356 981 q 302 879 316 915 q 283 804 289 842 m 503 804 l 485 694 l 621 694 l 640 806 q 675 915 650 865 q 734 1014 700 966 l 659 1067 q 602 1011 628 1042 q 555 947 576 981 q 522 879 536 915 q 503 804 509 842 z "},"”":{"ha":815,"x_min":256,"x_max":734,"o":"m 488 948 l 506 1057 l 370 1057 l 351 947 q 315 837 340 888 q 256 739 291 787 l 332 686 q 388 740 362 710 q 435 804 414 770 q 468 873 454 837 q 488 948 481 909 m 716 948 l 734 1057 l 598 1057 l 579 947 q 544 837 568 888 q 485 739 519 787 l 560 686 q 617 740 591 710 q 663 804 643 770 q 696 873 683 837 q 716 948 710 909 z "},"„":{"ha":815,"x_min":109,"x_max":566,"o":"m 344 47 l 361 156 l 220 156 l 201 45 q 166 -64 191 -14 q 109 -162 142 -115 l 189 -216 q 291 -98 250 -166 q 344 47 332 -31 m 549 47 l 566 156 l 426 156 l 406 45 q 370 -64 395 -14 q 311 -162 345 -115 l 392 -216 q 450 -160 423 -190 q 496 -96 476 -130 q 530 -26 516 -62 q 549 47 543 9 z "},"′":{"ha":815,"x_min":355,"x_max":536,"o":"m 522 947 l 536 1042 l 410 1042 l 397 962 l 355 691 l 466 692 l 522 947 z "},"″":{"ha":815,"x_min":250,"x_max":681,"o":"m 413 961 l 425 1042 l 304 1042 l 293 971 l 250 698 l 355 698 l 413 961 m 668 961 l 681 1042 l 560 1042 l 549 970 l 506 698 l 610 698 l 668 961 z "},"(":{"ha":815,"x_min":216,"x_max":682,"o":"m 229 399 l 227 387 q 218 263 220 328 q 222 132 216 198 q 244 1 229 66 q 288 -122 260 -64 q 355 -230 315 -180 q 450 -313 395 -279 l 489 -223 q 423 -143 449 -189 q 382 -45 397 -97 q 361 64 367 7 q 355 177 355 121 q 360 287 355 233 q 372 387 365 341 l 373 401 q 409 573 386 488 q 469 738 432 659 q 558 886 506 817 q 682 1010 610 956 l 657 1106 q 538 1030 593 1076 q 439 927 484 984 q 360 806 395 871 q 300 673 326 741 q 256 534 273 604 q 229 399 238 465 z "},")":{"ha":815,"x_min":110,"x_max":581,"o":"m 568 393 l 570 405 q 579 528 578 463 q 574 659 581 593 q 551 790 567 726 q 507 914 534 855 q 438 1022 479 972 q 342 1105 397 1071 l 303 1015 q 368 934 342 980 q 410 836 394 888 q 431 726 425 783 q 437 613 437 669 q 433 503 437 557 q 421 404 428 450 l 419 389 q 384 217 406 303 q 323 52 361 132 q 234 -98 287 -28 q 110 -222 182 -168 l 133 -315 q 310 -188 233 -269 q 439 -7 387 -106 q 523 191 490 87 q 568 393 555 296 z "},"[":{"ha":815,"x_min":172,"x_max":665,"o":"m 645 1011 l 665 1139 l 385 1139 l 172 -220 l 453 -220 l 473 -93 l 347 -93 l 519 1011 l 645 1011 z "},"]":{"ha":815,"x_min":166,"x_max":660,"o":"m 378 1139 l 359 1011 l 485 1011 l 313 -93 l 186 -93 l 166 -220 l 448 -220 l 660 1139 l 378 1139 z "},"{":{"ha":815,"x_min":203,"x_max":741,"o":"m 536 -245 l 559 -150 q 503 -123 522 -146 q 476 -69 484 -101 q 471 1 469 -37 q 477 69 473 39 l 491 182 q 489 253 494 219 q 470 317 484 288 q 431 372 455 347 q 375 414 408 397 q 508 507 458 449 q 569 655 557 565 l 583 768 q 596 844 588 805 q 621 914 604 882 q 667 967 638 946 q 741 989 695 987 l 730 1085 q 611 1055 663 1082 q 524 986 559 1029 q 465 887 487 943 q 435 768 443 831 l 420 655 q 356 522 408 566 q 215 477 304 479 l 203 358 q 274 344 245 356 q 319 310 302 332 q 342 256 336 288 q 342 183 347 224 l 328 70 q 331 -35 322 18 q 362 -131 339 -88 q 429 -210 386 -178 q 536 -245 473 -241 z "},"}":{"ha":815,"x_min":127,"x_max":665,"o":"m 127 -152 l 138 -248 q 255 -217 204 -244 q 344 -146 307 -190 q 403 -47 380 -104 q 433 70 425 9 l 448 182 q 512 314 460 271 q 653 359 564 357 l 665 479 q 548 527 581 483 q 526 654 516 571 l 540 768 q 538 877 546 822 q 505 976 530 931 q 438 1050 480 1021 q 334 1082 396 1079 l 308 988 q 364 967 344 984 q 393 922 385 949 q 399 847 403 890 q 391 768 396 804 l 377 655 q 379 579 373 616 q 401 510 385 542 q 437 461 416 484 q 488 421 458 438 q 358 329 406 387 q 299 182 311 271 l 285 70 q 270 -3 280 35 q 243 -73 260 -41 q 196 -128 224 -106 q 127 -152 168 -150 z "},"‹":{"ha":815,"x_min":250,"x_max":602,"o":"m 384 356 l 602 635 l 482 635 l 252 371 l 250 357 l 399 94 l 498 94 l 384 356 z "},"›":{"ha":815,"x_min":197,"x_max":547,"o":"m 399 635 l 300 635 l 414 372 l 197 94 l 316 94 l 547 358 l 547 372 l 399 635 z "},"+":{"ha":815,"x_min":67,"x_max":751,"o":"m 499 542 l 547 818 l 394 818 l 346 542 l 94 542 l 67 389 l 319 389 l 269 99 l 422 99 l 473 389 l 725 389 l 751 542 l 499 542 z "},"−":{"ha":815,"x_min":106,"x_max":689,"o":"m 665 422 l 689 554 l 129 554 l 106 422 l 665 422 z "},"±":{"ha":815,"x_min":56,"x_max":734,"o":"m 507 610 l 548 866 l 407 866 l 367 610 l 131 610 l 109 476 l 346 476 l 304 212 l 446 212 l 487 476 l 713 476 l 734 610 l 507 610 m 616 0 l 639 133 l 79 133 l 56 0 l 616 0 z "},"×":{"ha":815,"x_min":81,"x_max":765,"o":"m 81 247 l 166 140 l 412 359 l 583 140 l 690 233 l 518 453 l 765 672 l 681 778 l 435 560 l 265 778 l 159 685 l 330 466 l 81 247 z "},"÷":{"ha":815,"x_min":71,"x_max":763,"o":"m 738 396 l 763 538 l 96 538 l 71 396 l 738 396 m 376 738 q 400 677 375 701 q 463 654 426 654 q 526 680 500 655 q 553 744 552 705 q 527 805 553 781 q 464 827 500 829 q 400 802 425 827 q 376 738 376 777 m 279 187 q 304 126 279 150 q 367 104 330 103 q 430 129 404 104 q 456 193 456 153 q 430 254 456 230 q 367 277 405 278 q 303 251 328 276 q 279 187 279 225 z "},"=":{"ha":815,"x_min":75,"x_max":757,"o":"m 733 504 l 757 640 l 149 640 l 125 504 l 733 504 m 683 216 l 707 351 l 98 351 l 75 216 l 683 216 z "},"≠":{"ha":815,"x_min":71,"x_max":753,"o":"m 680 216 l 703 351 l 418 351 l 521 504 l 730 504 l 753 640 l 613 640 l 655 702 l 589 743 l 517 640 l 145 640 l 121 504 l 425 504 l 321 351 l 95 351 l 71 216 l 229 216 l 182 147 l 252 104 l 327 216 l 680 216 z "},"≈":{"ha":815,"x_min":62,"x_max":762,"o":"m 126 596 l 120 465 q 157 502 138 484 q 199 533 177 519 q 245 555 221 547 q 298 564 270 564 q 339 560 319 564 q 377 549 359 556 q 412 533 395 542 q 449 513 430 524 q 518 479 484 494 q 593 465 552 465 q 642 473 619 465 q 685 496 665 481 q 722 527 705 509 q 754 565 739 545 l 762 696 q 725 660 744 677 q 685 628 706 642 q 639 606 663 614 q 589 597 615 597 q 551 601 569 597 q 516 611 533 605 q 481 626 498 618 q 448 645 465 635 q 374 682 410 667 q 293 696 338 696 q 243 688 267 696 q 199 666 220 680 q 159 634 178 652 q 126 596 141 616 m 68 305 l 62 175 q 100 212 80 194 q 141 243 119 229 q 187 265 163 256 q 239 273 212 273 q 276 270 258 273 q 311 261 294 267 q 350 244 331 254 q 389 223 370 234 q 458 189 424 203 q 534 175 492 175 q 583 183 560 175 q 627 205 606 191 q 665 236 647 218 q 698 274 682 254 l 705 406 q 668 369 687 387 q 627 337 648 351 q 581 315 605 323 q 529 307 556 307 q 492 310 510 307 q 458 320 475 314 q 423 335 441 326 q 388 355 406 345 q 352 374 370 365 q 316 390 334 383 q 277 401 297 397 q 233 406 256 406 q 184 397 207 406 q 140 375 161 389 q 101 343 119 361 q 68 305 83 326 z "},"<":{"ha":815,"x_min":100,"x_max":739,"o":"m 100 368 l 629 116 l 656 272 l 294 414 l 264 427 l 315 444 l 713 585 l 739 751 l 122 498 l 100 368 z "},">":{"ha":815,"x_min":58,"x_max":713,"o":"m 58 109 l 691 361 l 713 492 l 169 744 l 142 590 l 522 444 l 552 433 l 502 418 l 87 276 l 58 109 z "},"≤":{"ha":815,"x_min":53,"x_max":777,"o":"m 302 541 l 353 555 l 751 683 l 777 832 l 160 605 l 137 488 l 667 261 l 694 401 l 332 529 l 302 541 m 613 16 l 636 149 l 77 149 l 53 16 l 613 16 z "},"≥":{"ha":815,"x_min":53,"x_max":750,"o":"m 589 555 l 538 542 l 124 414 l 95 263 l 728 490 l 750 608 l 205 835 l 178 696 l 559 565 l 589 555 m 613 16 l 636 148 l 77 148 l 53 16 l 613 16 z "},"¬":{"ha":815,"x_min":126,"x_max":695,"o":"m 645 254 l 695 545 l 146 545 l 126 431 l 547 431 l 516 254 l 645 254 z "},"/":{"ha":815,"x_min":64,"x_max":779,"o":"m 216 -85 l 779 987 l 627 987 l 64 -85 l 216 -85 z "},"∕":{"ha":815,"x_min":64,"x_max":779,"o":"m 216 -85 l 779 987 l 627 987 l 64 -85 l 216 -85 z "},"\\":{"ha":815,"x_min":258,"x_max":589,"o":"m 258 987 l 449 -85 l 589 -85 l 399 987 l 258 987 z "},"⁄":{"ha":815,"x_min":152,"x_max":675,"o":"m 232 151 l 675 785 l 595 834 l 152 200 l 232 151 z "},"%":{"ha":815,"x_min":85,"x_max":753,"o":"m 92 810 l 87 758 q 95 685 85 719 q 125 625 104 650 q 177 584 146 600 q 250 568 209 569 q 328 581 292 567 q 391 621 364 595 q 434 682 417 647 q 455 758 450 717 l 460 810 q 453 884 463 850 q 424 945 444 919 q 372 986 403 971 q 299 1002 340 1001 q 219 989 255 1003 q 157 949 184 975 q 114 887 130 922 q 92 810 97 851 m 200 757 l 205 811 q 213 845 207 829 q 229 875 218 862 q 253 896 239 888 q 288 904 268 904 q 320 896 308 904 q 339 873 332 887 q 347 844 345 860 q 349 811 349 827 l 343 758 q 335 724 341 741 q 319 694 330 707 q 295 673 310 681 q 261 665 280 665 q 229 674 241 665 q 210 695 217 682 q 201 724 203 708 q 200 757 199 741 m 382 228 l 377 176 q 384 102 374 136 q 414 42 393 68 q 467 1 435 16 q 540 -14 498 -14 q 618 -1 583 -15 q 681 39 654 13 q 724 99 707 64 q 745 176 740 134 l 750 229 q 743 303 753 269 q 713 363 734 337 q 661 404 692 389 q 589 420 630 418 q 509 407 545 420 q 447 367 473 393 q 403 306 420 341 q 382 228 387 270 m 490 174 l 494 229 q 503 263 497 247 q 518 293 508 280 q 543 314 528 307 q 578 321 557 321 q 610 313 597 321 q 628 292 622 304 q 637 262 635 279 q 638 229 639 245 l 633 176 q 625 141 631 157 q 610 111 620 124 q 586 90 600 98 q 551 83 571 82 q 519 91 532 83 q 500 113 507 100 q 491 142 493 126 q 490 174 488 159 m 224 132 l 714 829 l 634 873 l 144 178 l 224 132 z "},"‰":{"ha":815,"x_min":64,"x_max":752,"o":"m 180 199 l 178 170 q 183 102 176 135 q 210 43 191 69 q 256 2 227 18 q 323 -13 284 -13 q 368 -8 347 -14 q 408 9 389 -2 q 426 20 417 14 q 443 33 435 26 q 458 19 450 25 q 473 7 466 12 q 513 -10 492 -5 q 557 -16 534 -15 q 633 -1 599 -16 q 691 41 667 14 q 730 102 715 67 q 748 177 745 138 l 750 205 q 745 274 752 241 q 720 334 737 307 q 674 376 702 359 q 606 393 646 392 q 559 387 581 393 q 518 369 538 380 q 501 358 509 364 q 485 345 493 352 q 472 358 479 352 q 458 370 466 364 q 418 388 440 382 q 372 395 397 395 q 295 379 330 395 q 237 337 261 363 q 198 274 212 309 q 180 199 183 238 m 525 199 q 530 231 526 214 q 542 262 534 248 q 562 285 550 276 q 593 294 574 294 q 621 285 610 294 q 635 262 631 275 q 641 232 640 248 q 642 203 642 216 l 640 176 q 635 144 638 161 q 624 113 631 127 q 604 91 616 100 q 572 81 591 81 q 545 91 555 81 q 530 113 535 100 q 524 142 525 127 q 523 171 522 158 l 525 199 m 291 199 q 296 231 292 214 q 308 261 300 248 q 328 285 315 275 q 359 294 340 294 q 387 285 376 294 q 401 262 397 275 q 407 232 406 248 q 408 203 408 216 l 406 176 q 400 144 404 161 q 389 113 397 127 q 369 91 382 100 q 338 81 357 81 q 311 91 321 81 q 296 113 301 100 q 290 142 291 127 q 289 171 289 158 l 291 199 m 219 806 q 224 838 220 821 q 235 869 228 855 q 256 893 243 884 q 287 903 269 903 q 314 893 304 903 q 330 869 325 884 q 335 840 334 856 q 336 811 336 824 l 334 784 q 328 754 332 770 q 316 723 323 737 q 296 700 309 709 q 266 690 283 690 q 238 699 248 690 q 223 722 228 708 q 217 751 218 735 q 217 779 216 766 l 219 806 m 113 806 l 110 779 q 116 710 109 743 q 142 652 124 677 q 188 610 159 626 q 254 594 216 595 q 328 608 295 593 q 386 650 361 624 q 424 712 410 677 q 442 785 439 747 l 444 812 q 438 883 446 849 q 412 943 430 917 q 365 985 394 969 q 296 1002 336 1001 q 222 986 254 1002 q 165 943 189 970 q 129 880 142 916 q 113 806 115 844 m 113 313 l 711 728 l 663 793 l 64 378 l 113 313 z "},"|":{"ha":815,"x_min":245,"x_max":551,"o":"m 354 -275 l 551 987 l 443 987 l 245 -275 l 354 -275 z "},"¦":{"ha":815,"x_min":224,"x_max":576,"o":"m 224 -183 l 374 -183 l 467 355 l 318 355 l 224 -183 m 488 473 l 576 987 l 428 987 l 338 473 l 488 473 z "},"†":{"ha":815,"x_min":103,"x_max":777,"o":"m 755 599 l 777 734 l 528 734 l 568 987 l 409 987 l 369 734 l 124 734 l 103 599 l 349 599 l 254 0 l 413 0 l 507 599 l 755 599 z "},"‡":{"ha":815,"x_min":18,"x_max":785,"o":"m 670 0 l 690 131 l 441 131 l 515 602 l 764 602 l 785 734 l 535 734 l 575 987 l 417 987 l 377 734 l 133 734 l 112 602 l 357 602 l 283 131 l 39 131 l 18 0 l 262 0 l 218 -282 l 376 -282 l 421 0 l 670 0 z "},"©":{"ha":815,"x_min":45,"x_max":758,"o":"m 550 300 l 476 299 q 464 262 471 279 q 444 233 456 245 q 416 214 433 220 q 376 208 399 208 q 334 221 349 209 q 309 252 318 233 q 299 293 301 271 q 298 336 296 315 l 303 398 q 314 445 306 422 q 336 487 322 469 q 369 516 349 505 q 416 528 389 528 q 456 521 440 528 q 480 501 471 514 q 492 472 489 489 q 494 434 495 455 l 570 433 q 564 500 572 471 q 536 550 555 530 q 488 583 517 571 q 420 595 458 595 q 343 580 377 596 q 284 537 309 564 q 245 473 260 509 q 227 397 231 437 l 221 337 q 227 264 219 299 q 254 202 235 229 q 301 158 272 175 q 372 140 331 141 q 446 151 414 139 q 500 186 478 163 q 533 235 521 207 q 550 300 546 264 m 113 362 q 150 486 120 427 q 225 590 179 545 q 329 661 270 635 q 454 684 387 686 q 564 656 516 683 q 642 585 611 629 q 686 486 673 541 q 693 373 700 431 q 657 250 686 309 q 583 145 628 191 q 479 72 538 99 q 353 47 420 45 q 242 77 290 49 q 163 149 194 104 q 119 249 132 193 q 113 362 106 304 m 52 362 q 62 225 45 292 q 119 105 80 158 q 217 20 158 53 q 351 -14 275 -12 q 453 -1 404 -15 q 545 39 502 14 q 624 101 588 65 q 688 181 661 138 q 731 273 714 224 q 753 373 748 322 q 752 466 758 420 q 730 553 746 511 q 687 629 713 593 q 627 690 661 664 q 549 731 592 716 q 456 747 506 746 q 353 735 402 749 q 261 695 304 721 q 182 633 218 669 q 119 554 146 597 q 75 462 92 511 q 52 362 58 413 z "},"®":{"ha":815,"x_min":46,"x_max":759,"o":"m 52 362 q 53 266 46 313 q 77 176 60 218 q 117 105 93 138 q 174 47 142 72 q 253 3 209 20 q 349 -14 297 -13 q 452 -1 403 -16 q 544 39 501 13 q 623 101 587 64 q 686 180 659 137 q 730 272 713 223 q 752 372 747 321 q 742 509 759 442 q 686 628 724 576 q 588 713 647 681 q 454 747 530 745 q 352 735 401 749 q 260 694 302 721 q 180 633 216 669 q 117 553 144 597 q 73 461 90 510 q 52 362 56 413 m 112 361 q 148 484 119 425 q 222 589 176 543 q 326 660 267 633 q 452 684 385 686 q 563 655 515 683 q 641 585 610 628 q 685 485 672 541 q 692 372 699 430 q 655 249 684 309 q 582 144 627 190 q 477 73 536 100 q 351 48 418 46 q 241 77 289 50 q 163 149 193 104 q 118 248 132 192 q 112 361 105 303 m 325 328 l 405 328 l 456 157 l 528 157 l 464 351 q 501 368 483 358 q 534 391 519 378 q 558 422 549 404 q 569 463 568 439 q 560 519 571 496 q 528 557 549 543 q 481 580 508 573 q 425 588 454 587 l 291 589 l 223 157 l 297 157 l 325 328 m 334 396 l 355 522 l 425 521 q 455 518 441 520 q 479 509 469 515 q 495 490 490 502 q 496 459 500 478 q 485 431 494 443 q 464 412 476 420 q 437 400 452 404 q 408 396 422 397 l 334 396 z "},"™":{"ha":815,"x_min":161,"x_max":833,"o":"m 739 863 l 695 621 l 770 621 l 833 987 l 744 987 l 611 730 l 572 987 l 482 987 l 418 621 l 492 621 l 536 873 l 575 621 l 617 622 l 739 863 m 424 923 l 435 987 l 172 987 l 161 923 l 254 923 l 201 623 l 280 623 l 332 923 l 424 923 z "},"°":{"ha":815,"x_min":306,"x_max":654,"o":"m 308 813 q 316 747 306 779 q 348 692 327 716 q 398 654 368 669 q 463 639 427 640 q 534 653 500 638 q 593 694 568 669 q 634 754 618 720 q 652 825 650 788 q 643 890 654 859 q 613 946 633 922 q 565 986 593 970 q 500 1002 536 1001 q 428 987 463 1002 q 368 945 394 972 q 326 885 342 920 q 308 813 310 850 m 398 815 q 408 849 400 833 q 429 879 416 866 q 458 900 442 892 q 494 908 475 908 q 524 901 511 908 q 547 882 538 894 q 559 854 555 869 q 562 823 564 839 q 552 789 560 805 q 532 761 545 774 q 504 741 520 749 q 470 734 488 734 q 439 740 453 734 q 416 758 426 747 q 401 784 406 769 q 398 815 397 798 z "},"*":{"ha":815,"x_min":124,"x_max":779,"o":"m 367 613 l 156 395 l 258 312 l 434 552 l 534 302 l 650 380 l 510 602 l 779 665 l 759 802 l 504 698 l 572 987 l 438 987 l 413 695 l 183 804 l 124 678 l 367 613 z "},"#":{"ha":815,"x_min":9,"x_max":819,"o":"m 419 278 l 320 0 l 433 0 l 531 278 l 695 278 l 713 384 l 568 384 l 644 598 l 801 598 l 819 705 l 681 705 l 782 987 l 669 987 l 569 705 l 424 705 l 524 987 l 412 987 l 311 705 l 134 705 l 115 598 l 275 598 l 198 384 l 28 384 l 9 278 l 161 278 l 63 0 l 175 0 l 273 278 l 419 278 m 310 384 l 386 598 l 532 598 l 456 384 l 310 384 z "},"&":{"ha":815,"x_min":26,"x_max":783,"o":"m 34 248 q 100 59 26 130 q 288 -14 174 -12 q 412 6 354 -15 q 525 62 471 27 l 560 0 l 733 0 l 641 161 q 740 302 705 224 q 783 470 774 380 l 646 470 q 619 368 638 416 q 568 276 600 321 l 430 511 l 503 564 q 610 657 560 605 q 665 787 661 709 q 615 936 670 873 q 473 1002 561 999 q 282 932 357 1004 q 198 749 207 861 q 199 691 196 719 q 211 635 203 663 q 229 581 218 608 q 251 528 239 554 l 223 509 q 161 465 191 489 q 106 413 131 441 q 57 338 77 378 q 34 248 38 298 m 300 117 q 215 159 241 119 q 195 253 189 199 q 209 300 199 277 q 233 343 218 323 q 265 381 248 363 q 302 414 283 399 l 315 423 l 458 167 q 382 131 422 146 q 300 117 343 116 m 342 749 q 378 833 347 795 q 461 871 410 872 q 511 841 498 870 q 522 781 524 811 q 497 715 518 742 q 447 667 477 688 l 370 613 q 358 643 364 628 q 349 673 353 659 q 341 711 343 692 q 342 749 339 730 z "},"@":{"ha":815,"x_min":35,"x_max":806,"o":"m 792 553 q 788 750 806 651 q 705 912 769 850 q 629 963 673 944 q 526 983 585 981 q 398 963 457 984 q 288 903 338 941 q 197 813 237 865 q 125 703 156 762 q 74 582 94 644 q 45 460 54 520 q 36 348 36 404 q 45 241 35 292 q 77 145 56 189 q 134 67 99 100 q 220 15 170 35 q 336 -5 270 -4 q 430 6 383 -6 q 516 43 477 18 l 501 132 q 422 103 463 114 q 338 93 380 92 q 250 110 286 94 q 190 153 214 125 q 153 216 165 180 q 136 293 140 252 q 134 376 132 334 q 144 460 137 419 q 168 557 152 507 q 206 656 183 608 q 260 747 229 704 q 330 821 291 789 q 417 870 369 852 q 520 886 465 888 q 602 870 568 885 q 656 830 635 854 q 706 701 701 779 q 703 547 712 622 q 697 508 701 532 q 688 455 694 483 q 673 399 682 427 q 650 349 664 371 q 620 312 637 326 q 578 300 602 298 q 557 308 564 300 q 549 326 551 315 q 549 347 547 335 q 551 370 550 359 l 633 721 q 574 763 606 749 q 503 778 543 777 q 426 765 461 779 q 363 728 391 751 q 313 672 335 705 q 275 605 291 640 q 248 531 258 569 q 231 458 237 494 q 225 405 227 435 q 227 344 224 374 q 236 295 229 319 q 254 254 242 272 q 287 223 267 235 q 337 212 307 212 q 375 218 357 212 q 408 235 393 224 q 436 258 422 245 q 461 284 450 271 q 497 230 472 249 q 559 210 522 212 q 630 226 599 210 q 687 271 662 243 q 729 334 711 298 q 760 409 747 370 q 780 485 772 447 q 792 553 787 522 m 335 458 q 345 507 338 481 q 361 557 351 532 q 385 606 370 583 q 418 648 399 630 q 458 675 435 665 q 510 684 481 685 q 523 682 517 684 q 535 679 528 681 l 454 368 q 437 347 446 357 q 416 328 427 336 q 393 314 406 319 q 366 311 380 309 q 348 317 355 311 q 337 332 340 323 q 328 366 329 347 q 328 407 326 385 q 331 437 329 423 q 335 458 334 451 z "},"§":{"ha":815,"x_min":-26,"x_max":806,"o":"m 744 315 q 739 392 747 357 q 712 454 730 426 q 677 492 698 475 q 634 524 657 510 q 585 552 611 539 q 532 575 559 564 q 484 592 509 584 q 435 609 460 601 q 385 628 411 618 q 339 653 359 638 q 307 690 318 669 q 300 744 295 712 q 325 803 305 779 q 373 843 345 827 q 433 864 401 858 q 498 869 466 870 q 562 857 534 869 q 610 825 591 846 q 638 775 629 805 q 645 710 647 746 l 803 709 q 786 834 806 780 q 726 925 765 888 q 631 981 687 962 q 506 1001 574 1000 q 423 996 465 1002 q 342 977 381 989 q 267 942 302 963 q 206 892 233 921 q 161 826 178 863 q 141 742 144 788 q 142 678 138 709 q 158 619 146 647 q 175 587 165 602 q 199 556 185 571 q 146 524 170 542 q 104 485 122 506 q 70 430 83 460 q 54 362 56 399 q 70 252 48 298 q 131 174 92 206 q 166 148 147 160 q 206 126 185 136 q 263 101 233 112 q 322 80 292 90 q 360 68 340 75 q 401 54 380 62 q 441 35 422 45 q 475 9 460 24 q 495 -24 488 -5 q 498 -66 502 -42 q 473 -124 493 -100 q 425 -162 453 -148 q 364 -183 397 -177 q 301 -189 332 -189 q 232 -179 263 -189 q 179 -149 201 -169 q 146 -101 157 -130 q 137 -32 134 -72 l -24 -33 q -3 -160 -26 -106 q 64 -249 21 -214 q 165 -303 106 -285 q 293 -321 224 -321 q 441 -302 368 -323 q 568 -235 515 -282 q 629 -163 605 -205 q 657 -64 652 -120 q 654 8 660 -26 q 632 74 648 43 q 617 98 625 86 q 598 121 609 110 q 648 151 625 135 q 690 188 671 168 q 727 244 713 213 q 744 315 741 276 m 376 468 q 411 457 393 463 q 447 444 429 451 q 497 424 471 435 q 545 396 524 413 q 578 357 566 380 q 585 304 590 334 q 572 263 581 281 q 548 230 562 244 q 518 205 534 216 q 482 186 501 194 q 468 191 475 189 q 454 196 461 194 q 420 208 437 202 q 387 218 404 213 q 324 239 357 229 q 264 267 291 250 q 223 309 238 283 q 214 373 208 334 q 227 416 218 397 q 252 450 237 435 q 279 473 264 463 q 313 490 295 484 q 345 479 329 485 q 376 468 361 473 z "},"¶":{"ha":815,"x_min":180,"x_max":755,"o":"m 450 0 l 584 0 l 755 987 l 556 988 q 418 966 483 988 q 304 901 354 943 q 224 800 256 860 q 186 666 193 741 q 197 541 180 597 q 250 443 214 484 q 341 378 287 401 q 465 353 396 355 l 511 353 l 450 0 z "},"^":{"ha":815,"x_min":151,"x_max":684,"o":"m 151 463 l 292 463 l 464 775 l 487 831 l 489 785 l 557 463 l 684 463 l 565 987 l 452 987 l 151 463 z "},"~":{"ha":815,"x_min":11,"x_max":774,"o":"m 774 507 l 668 519 q 654 476 664 497 q 631 437 645 455 q 597 409 616 420 q 553 398 578 398 q 518 404 535 398 q 487 418 502 409 q 458 438 472 427 q 432 460 445 449 q 400 489 416 475 q 366 512 383 502 q 304 542 336 531 q 234 553 271 553 q 143 534 183 554 q 76 481 104 514 q 32 404 48 447 q 11 315 16 361 l 116 301 q 130 343 121 323 q 155 380 140 364 q 188 407 169 397 q 232 418 208 418 q 267 412 250 418 q 298 398 283 407 q 328 378 314 389 q 355 356 342 367 q 398 319 376 336 q 444 290 420 302 q 494 270 468 277 q 551 262 521 262 q 642 283 602 262 q 709 338 682 304 q 753 417 737 373 q 774 507 770 461 z "},"Á":{"ha":815,"x_min":-41,"x_max":795,"o":"m 534 227 l 559 0 l 719 0 l 584 987 l 442 987 l -41 0 l 130 0 l 235 227 l 534 227 m 298 367 l 478 756 l 520 367 l 298 367 m 606 1236 l 454 1051 l 587 1051 l 795 1236 l 606 1236 z "},"Ă":{"ha":815,"x_min":-41,"x_max":770,"o":"m 534 227 l 559 0 l 719 0 l 584 987 l 442 987 l -41 0 l 130 0 l 235 227 l 534 227 m 298 367 l 478 756 l 520 367 l 298 367 m 770 1262 l 652 1261 q 639 1222 648 1240 q 616 1192 630 1205 q 586 1173 604 1180 q 545 1166 568 1166 q 506 1175 522 1167 q 481 1195 490 1182 q 468 1225 471 1208 q 465 1262 464 1242 l 347 1263 q 361 1183 347 1218 q 401 1123 375 1147 q 464 1085 428 1099 q 544 1071 500 1072 q 629 1083 589 1070 q 699 1120 668 1095 q 747 1180 728 1144 q 770 1262 766 1217 z "},"Â":{"ha":815,"x_min":-41,"x_max":763,"o":"m 534 227 l 559 0 l 719 0 l 584 987 l 442 987 l -41 0 l 130 0 l 235 227 l 534 227 m 298 367 l 478 756 l 520 367 l 298 367 m 763 1101 l 602 1264 l 511 1264 l 310 1102 l 309 1082 l 439 1083 l 555 1175 l 638 1082 l 762 1082 l 763 1101 z "},"Ä":{"ha":815,"x_min":-41,"x_max":776,"o":"m 534 227 l 559 0 l 719 0 l 584 987 l 442 987 l -41 0 l 130 0 l 235 227 l 534 227 m 298 367 l 478 756 l 520 367 l 298 367 m 309 1161 q 333 1105 309 1127 q 392 1084 357 1084 q 450 1107 426 1085 q 474 1166 473 1130 q 449 1222 474 1200 q 391 1244 425 1244 q 333 1219 357 1242 q 309 1161 309 1196 m 611 1161 q 635 1104 611 1126 q 693 1083 659 1082 q 752 1107 728 1084 q 776 1165 776 1130 q 751 1222 776 1200 q 693 1243 726 1244 q 634 1219 658 1242 q 611 1161 611 1196 z "},"À":{"ha":815,"x_min":-41,"x_max":719,"o":"m 534 227 l 559 0 l 719 0 l 584 987 l 442 987 l -41 0 l 130 0 l 235 227 l 534 227 m 298 367 l 478 756 l 520 367 l 298 367 m 590 1053 l 503 1238 l 333 1238 l 473 1053 l 590 1053 z "},"Ā":{"ha":815,"x_min":-41,"x_max":793,"o":"m 534 227 l 559 0 l 719 0 l 584 987 l 442 987 l -41 0 l 130 0 l 235 227 l 534 227 m 298 367 l 478 756 l 520 367 l 298 367 m 776 1103 l 793 1208 l 316 1208 l 299 1103 l 776 1103 z "},"Ą":{"ha":815,"x_min":-41,"x_max":719,"o":"m 556 -137 q 570 -91 558 -112 q 601 -54 583 -71 q 640 -25 618 -38 q 682 -2 661 -12 l 688 0 l 719 0 l 584 987 l 442 987 l -41 0 l 130 0 l 235 227 l 534 227 l 557 18 q 509 -15 532 3 q 468 -56 486 -33 q 439 -103 450 -77 q 427 -159 428 -130 q 436 -213 427 -189 q 462 -254 445 -237 q 502 -280 478 -271 q 554 -290 526 -290 q 614 -283 585 -290 q 671 -262 644 -277 l 650 -165 q 621 -176 636 -171 q 591 -180 606 -181 q 563 -168 571 -179 q 556 -137 554 -157 m 298 367 l 478 756 l 520 367 l 298 367 z "},"Å":{"ha":815,"x_min":-41,"x_max":719,"o":"m 534 227 l 559 0 l 719 0 l 584 987 l 442 987 l -41 0 l 130 0 l 235 227 l 534 227 m 298 367 l 478 756 l 520 367 l 298 367 m 410 1169 q 419 1118 410 1141 q 446 1079 429 1095 q 488 1053 464 1062 q 538 1043 511 1043 q 594 1053 568 1043 q 640 1082 620 1063 q 671 1125 659 1100 q 684 1180 683 1150 q 675 1231 685 1207 q 649 1272 666 1254 q 609 1299 632 1289 q 559 1309 586 1309 q 503 1298 530 1309 q 456 1270 477 1288 q 424 1225 436 1251 q 410 1169 411 1199 m 482 1171 q 490 1199 484 1185 q 507 1223 496 1213 q 531 1239 517 1233 q 559 1245 544 1245 q 583 1239 572 1245 q 602 1225 594 1234 q 611 1203 608 1215 q 612 1178 614 1191 q 605 1151 611 1164 q 589 1128 598 1138 q 566 1112 578 1118 q 538 1106 553 1106 q 515 1111 526 1106 q 497 1124 505 1116 q 485 1144 489 1132 q 482 1171 481 1157 z "},"Ǻ":{"ha":815,"x_min":-41,"x_max":826,"o":"m 534 227 l 559 0 l 719 0 l 584 987 l 442 987 l -41 0 l 130 0 l 235 227 l 534 227 m 298 367 l 478 756 l 520 367 l 298 367 m 657 1430 l 524 1298 l 642 1297 l 826 1430 l 657 1430 m 421 1143 q 431 1097 421 1118 q 456 1061 440 1076 q 495 1038 473 1046 q 541 1029 516 1029 q 589 1039 566 1029 q 629 1065 612 1048 q 656 1103 646 1081 q 666 1152 666 1126 q 657 1197 666 1176 q 632 1235 648 1219 q 594 1259 616 1251 q 549 1268 573 1268 q 500 1258 523 1268 q 459 1232 477 1249 q 431 1193 441 1215 q 421 1143 421 1170 m 484 1145 q 489 1169 484 1158 q 503 1189 494 1181 q 523 1202 511 1197 q 547 1207 534 1207 q 569 1202 559 1207 q 588 1190 580 1198 q 600 1172 595 1183 q 605 1149 605 1161 q 600 1125 605 1136 q 587 1106 595 1114 q 567 1093 578 1098 q 543 1088 555 1088 q 520 1093 531 1088 q 501 1104 509 1097 q 488 1122 493 1112 q 484 1145 484 1133 z "},"Ã":{"ha":815,"x_min":-41,"x_max":791,"o":"m 534 227 l 559 0 l 719 0 l 584 987 l 442 987 l -41 0 l 130 0 l 235 227 l 534 227 m 298 367 l 478 756 l 520 367 l 298 367 m 791 1258 l 713 1277 q 702 1251 709 1263 q 684 1225 695 1238 q 663 1212 675 1217 q 637 1206 651 1207 q 590 1216 612 1206 q 547 1238 568 1226 q 503 1260 525 1250 q 456 1270 481 1270 q 395 1256 422 1270 q 350 1219 368 1242 q 319 1166 330 1196 q 304 1107 307 1137 l 385 1089 q 396 1116 389 1103 q 412 1139 402 1129 q 433 1153 420 1147 q 460 1160 445 1159 q 507 1151 486 1160 q 550 1128 529 1141 q 594 1106 572 1116 q 642 1096 616 1096 q 702 1110 675 1096 q 747 1147 728 1124 q 777 1199 766 1170 q 791 1258 788 1227 z "},"Ǽ":{"ha":815,"x_min":-47,"x_max":866,"o":"m 709 0 l 732 132 l 531 132 l 585 444 l 751 444 l 774 576 l 608 576 l 655 854 l 843 854 l 866 987 l 462 987 l -47 0 l 122 0 l 233 232 l 397 232 l 357 0 l 709 0 m 299 376 l 491 774 l 422 376 l 299 376 m 665 1236 l 513 1051 l 646 1051 l 854 1236 l 665 1236 z "},"Ć":{"ha":815,"x_min":58,"x_max":825,"o":"m 721 305 l 565 303 q 538 229 555 263 q 496 169 522 194 q 435 131 470 144 q 357 119 401 117 q 292 135 318 120 q 250 176 267 151 q 228 232 235 200 q 218 297 220 264 q 219 364 217 331 q 226 425 222 397 l 246 562 q 260 631 252 595 q 282 701 269 667 q 314 767 296 736 q 358 821 333 798 q 416 857 383 844 q 490 869 448 870 q 561 851 532 867 q 605 809 589 835 q 628 748 622 783 q 635 675 635 713 l 793 675 q 773 803 791 744 q 718 905 754 862 q 628 975 682 949 q 500 1002 574 1000 q 386 986 438 1003 q 290 938 333 968 q 212 865 246 907 q 153 773 178 823 q 111 669 127 724 q 85 561 94 615 l 64 426 q 59 322 58 374 q 73 222 61 271 q 106 132 84 174 q 161 57 127 89 q 241 6 195 25 q 347 -14 287 -13 q 483 7 420 -16 q 595 73 547 30 q 677 174 644 115 q 721 305 709 233 m 636 1242 l 484 1057 l 616 1057 l 825 1242 l 636 1242 z "},"Č":{"ha":815,"x_min":58,"x_max":825,"o":"m 721 305 l 565 303 q 538 229 555 263 q 496 169 522 194 q 435 131 470 144 q 357 119 401 117 q 292 135 318 120 q 250 176 267 151 q 228 232 235 200 q 218 297 220 264 q 219 364 217 331 q 226 425 222 397 l 246 562 q 260 631 252 595 q 282 701 269 667 q 314 767 296 736 q 358 821 333 798 q 416 857 383 844 q 490 869 448 870 q 561 851 532 867 q 605 809 589 835 q 628 748 622 783 q 635 675 635 713 l 793 675 q 773 803 791 744 q 718 905 754 862 q 628 975 682 949 q 500 1002 574 1000 q 386 986 438 1003 q 290 938 333 968 q 212 865 246 907 q 153 773 178 823 q 111 669 127 724 q 85 561 94 615 l 64 426 q 59 322 58 374 q 73 222 61 271 q 106 132 84 174 q 161 57 127 89 q 241 6 195 25 q 347 -14 287 -13 q 483 7 420 -16 q 595 73 547 30 q 677 174 644 115 q 721 305 709 233 m 570 1179 l 490 1271 l 360 1272 l 359 1256 l 519 1088 l 618 1088 l 824 1257 l 825 1272 l 685 1270 l 570 1179 z "},"Ç":{"ha":815,"x_min":58,"x_max":793,"o":"m 721 305 l 565 303 q 538 229 555 263 q 496 169 522 194 q 435 131 470 144 q 357 119 401 117 q 292 135 318 120 q 250 176 267 151 q 228 232 235 200 q 218 297 220 264 q 219 364 217 331 q 226 425 222 397 l 246 562 q 260 631 252 595 q 282 701 269 667 q 314 767 296 736 q 358 821 333 798 q 416 857 383 844 q 490 869 448 870 q 561 851 532 867 q 605 809 589 835 q 628 748 622 783 q 635 675 635 713 l 793 675 q 773 803 791 744 q 718 905 754 862 q 628 975 682 949 q 500 1002 574 1000 q 386 986 438 1003 q 290 938 333 968 q 212 865 246 907 q 153 773 178 823 q 111 669 127 724 q 85 561 94 615 l 64 426 q 59 322 58 374 q 73 222 61 271 q 106 132 84 174 q 161 57 127 89 q 241 6 195 25 q 347 -14 287 -13 q 483 7 420 -16 q 595 73 547 30 q 677 174 644 115 q 721 305 709 233 m 393 4 l 276 3 l 245 -90 q 275 -92 258 -91 q 306 -98 292 -94 q 328 -114 319 -104 q 334 -143 336 -124 q 320 -175 330 -162 q 294 -194 309 -187 q 262 -205 279 -201 q 229 -209 245 -208 l 226 -304 q 278 -300 251 -303 q 332 -290 305 -296 q 381 -270 357 -282 q 424 -240 406 -258 q 451 -200 441 -224 q 462 -145 461 -176 q 456 -101 463 -121 q 436 -66 450 -81 q 411 -47 426 -55 q 379 -35 397 -39 l 393 4 z "},"Ĉ":{"ha":815,"x_min":58,"x_max":793,"o":"m 721 305 l 565 303 q 538 229 555 263 q 496 169 522 194 q 435 131 470 144 q 357 119 401 117 q 292 135 318 120 q 250 176 267 151 q 228 232 235 200 q 218 297 220 264 q 219 364 217 331 q 226 425 222 397 l 246 562 q 260 631 252 595 q 282 701 269 667 q 314 767 296 736 q 358 821 333 798 q 416 857 383 844 q 490 869 448 870 q 561 851 532 867 q 605 809 589 835 q 628 748 622 783 q 635 675 635 713 l 793 675 q 773 803 791 744 q 718 905 754 862 q 628 975 682 949 q 500 1002 574 1000 q 386 986 438 1003 q 290 938 333 968 q 212 865 246 907 q 153 773 178 823 q 111 669 127 724 q 85 561 94 615 l 64 426 q 59 322 58 374 q 73 222 61 271 q 106 132 84 174 q 161 57 127 89 q 241 6 195 25 q 347 -14 287 -13 q 483 7 420 -16 q 595 73 547 30 q 677 174 644 115 q 721 305 709 233 m 793 1107 l 633 1270 l 541 1270 l 340 1107 l 339 1087 l 469 1088 l 585 1180 l 669 1088 l 792 1087 l 793 1107 z "},"Ď":{"ha":815,"x_min":20,"x_max":777,"o":"m 20 0 l 271 0 q 398 16 338 -1 q 509 62 458 32 q 603 134 559 91 q 678 229 646 176 q 729 335 708 277 q 759 454 749 393 l 770 532 q 772 651 777 593 q 749 758 766 708 q 704 845 732 805 q 638 914 675 885 q 541 966 596 947 q 419 987 486 985 l 191 987 l 20 0 m 329 854 l 414 854 q 492 838 458 852 q 549 800 525 823 q 584 748 570 777 q 605 685 598 718 q 613 610 612 649 q 608 534 613 572 l 597 454 q 578 372 591 412 q 546 298 565 332 q 492 222 522 254 q 423 168 463 190 q 356 141 393 151 q 277 131 319 131 l 203 132 l 329 854 m 489 1169 l 409 1261 l 279 1263 l 277 1246 l 437 1079 l 537 1079 l 743 1248 l 743 1263 l 604 1261 l 489 1169 z "},"Đ":{"ha":815,"x_min":-26,"x_max":787,"o":"m 30 0 l 281 0 q 465 35 382 -1 q 611 132 549 71 q 714 276 674 193 q 769 454 755 359 l 780 532 q 783 635 787 585 q 767 730 780 686 q 724 830 752 783 q 654 909 695 876 q 556 965 612 944 q 429 987 499 985 l 201 987 l 126 556 l -6 556 l -26 443 l 106 443 l 30 0 m 415 443 l 435 556 l 287 556 l 339 854 l 424 854 q 500 839 467 852 q 555 803 532 825 q 593 750 578 780 q 615 685 608 720 q 623 610 623 649 q 618 534 623 572 l 607 454 q 572 331 597 390 q 507 229 547 273 q 413 157 468 184 q 288 131 358 131 l 214 132 l 267 443 l 415 443 z "},"É":{"ha":815,"x_min":35,"x_max":825,"o":"m 668 443 l 691 574 l 295 574 l 343 852 l 802 852 l 825 987 l 207 987 l 35 0 l 658 0 l 682 134 l 218 134 l 272 443 l 668 443 m 606 1233 l 454 1048 l 586 1048 l 795 1233 l 606 1233 z "},"Ĕ":{"ha":815,"x_min":35,"x_max":825,"o":"m 668 443 l 691 574 l 295 574 l 343 852 l 802 852 l 825 987 l 207 987 l 35 0 l 658 0 l 682 134 l 218 134 l 272 443 l 668 443 m 770 1259 l 652 1258 q 639 1219 648 1236 q 616 1189 630 1202 q 586 1170 604 1177 q 545 1163 568 1163 q 506 1171 522 1164 q 481 1192 490 1179 q 468 1221 471 1204 q 465 1259 464 1238 l 347 1259 q 361 1179 347 1215 q 401 1120 375 1144 q 464 1082 428 1095 q 544 1067 500 1068 q 629 1079 589 1067 q 699 1116 668 1092 q 747 1177 728 1141 q 770 1259 766 1213 z "},"Ě":{"ha":815,"x_min":35,"x_max":825,"o":"m 668 443 l 691 574 l 295 574 l 343 852 l 802 852 l 825 987 l 207 987 l 35 0 l 658 0 l 682 134 l 218 134 l 272 443 l 668 443 m 541 1169 l 460 1261 l 330 1263 l 329 1246 l 489 1079 l 589 1079 l 794 1248 l 795 1263 l 655 1261 l 541 1169 z "},"Ê":{"ha":815,"x_min":35,"x_max":825,"o":"m 668 443 l 691 574 l 295 574 l 343 852 l 802 852 l 825 987 l 207 987 l 35 0 l 658 0 l 682 134 l 218 134 l 272 443 l 668 443 m 763 1098 l 602 1261 l 511 1261 l 310 1099 l 309 1078 l 439 1080 l 555 1171 l 638 1079 l 762 1078 l 763 1098 z "},"Ë":{"ha":815,"x_min":35,"x_max":825,"o":"m 668 443 l 691 574 l 295 574 l 343 852 l 802 852 l 825 987 l 207 987 l 35 0 l 658 0 l 682 134 l 218 134 l 272 443 l 668 443 m 309 1158 q 333 1102 309 1124 q 392 1081 357 1080 q 450 1104 426 1082 q 474 1162 473 1126 q 449 1219 474 1197 q 391 1240 425 1240 q 333 1216 357 1239 q 309 1158 309 1193 m 611 1158 q 635 1101 611 1122 q 693 1080 659 1079 q 752 1103 728 1080 q 776 1162 776 1126 q 751 1219 776 1197 q 693 1240 726 1240 q 634 1215 658 1238 q 611 1158 611 1192 z "},"Ė":{"ha":815,"x_min":35,"x_max":825,"o":"m 668 443 l 691 574 l 295 574 l 343 852 l 802 852 l 825 987 l 207 987 l 35 0 l 658 0 l 682 134 l 218 134 l 272 443 l 668 443 m 456 1159 q 483 1097 456 1121 q 546 1076 509 1074 q 609 1100 583 1076 q 635 1164 635 1125 q 610 1227 635 1203 q 546 1249 584 1251 q 481 1223 506 1249 q 456 1159 457 1198 z "},"È":{"ha":815,"x_min":35,"x_max":825,"o":"m 668 443 l 691 574 l 295 574 l 343 852 l 802 852 l 825 987 l 207 987 l 35 0 l 658 0 l 682 134 l 218 134 l 272 443 l 668 443 m 590 1050 l 503 1235 l 333 1235 l 473 1050 l 590 1050 z "},"Ē":{"ha":815,"x_min":35,"x_max":825,"o":"m 668 443 l 691 574 l 295 574 l 343 852 l 802 852 l 825 987 l 207 987 l 35 0 l 658 0 l 682 134 l 218 134 l 272 443 l 668 443 m 776 1099 l 793 1204 l 316 1204 l 299 1099 l 776 1099 z "},"Ŋ":{"ha":815,"x_min":34,"x_max":810,"o":"m 810 987 l 650 987 l 536 330 l 361 987 l 205 987 l 34 0 l 193 0 l 307 657 l 483 4 l 475 -40 q 464 -85 472 -62 q 444 -125 456 -107 q 412 -154 431 -143 q 367 -166 393 -165 q 333 -163 350 -166 q 300 -156 317 -160 l 278 -285 q 322 -294 300 -290 q 366 -297 344 -297 q 472 -278 426 -297 q 552 -224 518 -259 q 606 -143 585 -191 q 634 -40 627 -96 l 810 987 z "},"Ę":{"ha":815,"x_min":35,"x_max":825,"o":"m 668 443 l 691 574 l 295 574 l 343 852 l 802 852 l 825 987 l 207 987 l 35 0 l 433 0 q 395 -31 413 -14 q 363 -68 377 -48 q 341 -111 349 -88 q 332 -159 332 -134 q 339 -210 331 -187 q 363 -250 347 -233 q 404 -279 379 -269 q 459 -290 429 -289 q 519 -283 490 -290 q 575 -262 549 -277 l 555 -165 q 526 -176 541 -171 q 496 -180 511 -181 q 467 -168 475 -179 q 460 -137 459 -157 q 475 -91 463 -112 q 505 -54 488 -71 q 545 -25 524 -38 q 587 -2 566 -12 l 593 0 l 658 0 l 682 134 l 218 134 l 272 443 l 668 443 z "},"Ð":{"ha":815,"x_min":-26,"x_max":787,"o":"m 30 0 l 281 0 q 465 35 382 -1 q 611 132 549 71 q 714 276 674 193 q 769 454 755 359 l 780 532 q 783 635 787 585 q 767 730 780 686 q 724 830 752 783 q 654 909 695 876 q 556 965 612 944 q 429 987 499 985 l 201 987 l 126 556 l -6 556 l -26 443 l 106 443 l 30 0 m 415 443 l 435 556 l 287 556 l 339 854 l 424 854 q 500 839 467 852 q 555 803 532 825 q 593 750 578 780 q 615 685 608 720 q 623 610 623 649 q 618 534 623 572 l 607 454 q 572 331 597 390 q 507 229 547 273 q 413 157 468 184 q 288 131 358 131 l 214 132 l 267 443 l 415 443 z "},"Ğ":{"ha":815,"x_min":60,"x_max":791,"o":"m 697 121 l 755 499 l 425 499 l 404 372 l 577 372 l 541 175 q 461 131 506 143 q 370 121 416 119 q 304 138 331 123 q 260 178 277 154 q 234 235 243 203 q 222 300 225 266 q 221 367 219 334 q 227 429 222 401 l 246 557 q 260 626 251 590 q 283 696 269 661 q 317 762 298 730 q 362 818 336 794 q 419 855 387 841 q 492 867 452 869 q 558 852 531 866 q 602 815 585 839 q 627 761 618 792 q 637 695 635 730 l 791 695 q 770 818 789 762 q 713 914 750 874 q 624 977 677 954 q 500 1001 570 1000 q 386 984 438 1002 q 290 936 334 967 q 213 861 247 904 q 153 768 178 819 q 111 665 127 719 q 85 556 94 610 l 66 430 q 62 326 60 378 q 76 224 64 273 q 111 134 88 176 q 168 59 134 91 q 249 8 203 27 q 356 -14 296 -12 q 540 17 448 -16 q 697 121 632 50 m 782 1267 l 664 1267 q 651 1228 660 1245 q 629 1198 642 1211 q 598 1179 616 1185 q 557 1172 581 1172 q 518 1180 534 1173 q 493 1200 503 1187 q 480 1230 484 1213 q 477 1267 476 1247 l 359 1268 q 373 1188 359 1223 q 414 1128 387 1153 q 476 1090 440 1104 q 556 1076 513 1077 q 641 1088 602 1076 q 711 1125 680 1101 q 760 1186 741 1149 q 782 1267 779 1222 z "},"Ĝ":{"ha":815,"x_min":60,"x_max":791,"o":"m 697 121 l 755 499 l 425 499 l 404 372 l 577 372 l 541 175 q 461 131 506 143 q 370 121 416 119 q 304 138 331 123 q 260 178 277 154 q 234 235 243 203 q 222 300 225 266 q 221 367 219 334 q 227 429 222 401 l 246 557 q 260 626 251 590 q 283 696 269 661 q 317 762 298 730 q 362 818 336 794 q 419 855 387 841 q 492 867 452 869 q 558 852 531 866 q 602 815 585 839 q 627 761 618 792 q 637 695 635 730 l 791 695 q 770 818 789 762 q 713 914 750 874 q 624 977 677 954 q 500 1001 570 1000 q 386 984 438 1002 q 290 936 334 967 q 213 861 247 904 q 153 768 178 819 q 111 665 127 719 q 85 556 94 610 l 66 430 q 62 326 60 378 q 76 224 64 273 q 111 134 88 176 q 168 59 134 91 q 249 8 203 27 q 356 -14 296 -12 q 540 17 448 -16 q 697 121 632 50 m 774 1107 l 614 1270 l 522 1270 l 321 1107 l 320 1087 l 450 1088 l 566 1180 l 650 1088 l 773 1087 l 774 1107 z "},"Ģ":{"ha":815,"x_min":60,"x_max":791,"o":"m 697 121 l 755 499 l 425 499 l 404 372 l 577 372 l 541 175 q 461 131 506 143 q 370 121 416 119 q 304 138 331 123 q 260 178 277 154 q 234 235 243 203 q 222 300 225 266 q 221 367 219 334 q 227 429 222 401 l 246 557 q 260 626 251 590 q 283 696 269 661 q 317 762 298 730 q 362 818 336 794 q 419 855 387 841 q 492 867 452 869 q 558 852 531 866 q 602 815 585 839 q 627 761 618 792 q 637 695 635 730 l 791 695 q 770 818 789 762 q 713 914 750 874 q 624 977 677 954 q 500 1001 570 1000 q 386 984 438 1002 q 290 936 334 967 q 213 861 247 904 q 153 768 178 819 q 111 665 127 719 q 85 556 94 610 l 66 430 q 62 326 60 378 q 76 224 64 273 q 111 134 88 176 q 168 59 134 91 q 249 8 203 27 q 356 -14 296 -12 q 540 17 448 -16 q 697 121 632 50 m 408 -94 l 412 -47 l 290 -47 l 283 -96 q 255 -190 275 -146 q 205 -276 235 -234 l 279 -328 q 366 -223 332 -284 q 408 -94 399 -163 z "},"Ħ":{"ha":815,"x_min":-5,"x_max":879,"o":"m 768 812 l 798 987 l 643 987 l 612 812 l 291 812 l 322 987 l 166 987 l 136 812 l 85 812 l 66 703 l 117 703 l -5 0 l 151 0 l 227 440 l 548 440 l 471 0 l 627 0 l 749 703 l 860 703 l 879 812 l 768 812 m 571 574 l 250 574 l 273 703 l 594 703 l 571 574 z "},"Ĥ":{"ha":815,"x_min":15,"x_max":819,"o":"m 647 0 l 819 987 l 663 987 l 591 574 l 270 574 l 342 987 l 186 987 l 15 0 l 170 0 l 247 440 l 568 440 l 492 0 l 647 0 m 746 1098 l 585 1261 l 494 1261 l 293 1099 l 292 1078 l 422 1080 l 538 1171 l 621 1079 l 745 1078 l 746 1098 z "},"Í":{"ha":815,"x_min":50,"x_max":788,"o":"m 222 987 l 198 852 l 399 852 l 274 134 l 74 134 l 50 0 l 616 0 l 640 134 l 435 134 l 559 852 l 764 852 l 788 987 l 222 987 m 576 1236 l 425 1051 l 557 1051 l 766 1236 l 576 1236 z "},"Ĭ":{"ha":815,"x_min":50,"x_max":788,"o":"m 222 987 l 198 852 l 399 852 l 274 134 l 74 134 l 50 0 l 616 0 l 640 134 l 435 134 l 559 852 l 764 852 l 788 987 l 222 987 m 741 1262 l 623 1261 q 610 1222 618 1240 q 587 1192 601 1205 q 557 1173 574 1180 q 516 1166 539 1166 q 477 1175 493 1167 q 452 1195 461 1182 q 438 1225 442 1208 q 435 1262 435 1242 l 318 1263 q 332 1183 317 1218 q 372 1123 346 1147 q 435 1085 399 1099 q 515 1071 471 1072 q 600 1083 560 1070 q 669 1120 639 1095 q 718 1180 699 1144 q 741 1262 737 1217 z "},"Î":{"ha":815,"x_min":50,"x_max":788,"o":"m 222 987 l 198 852 l 399 852 l 274 134 l 74 134 l 50 0 l 616 0 l 640 134 l 435 134 l 559 852 l 764 852 l 788 987 l 222 987 m 734 1101 l 573 1264 l 481 1264 l 281 1102 l 279 1082 l 410 1083 l 526 1175 l 609 1082 l 732 1082 l 734 1101 z "},"Ï":{"ha":815,"x_min":50,"x_max":788,"o":"m 222 987 l 198 852 l 399 852 l 274 134 l 74 134 l 50 0 l 616 0 l 640 134 l 435 134 l 559 852 l 764 852 l 788 987 l 222 987 m 279 1161 q 303 1105 279 1127 q 362 1084 327 1084 q 420 1107 396 1085 q 444 1166 444 1130 q 419 1222 444 1200 q 361 1244 395 1244 q 303 1219 327 1242 q 279 1161 279 1196 m 581 1161 q 605 1104 581 1126 q 663 1083 629 1082 q 722 1107 698 1084 q 746 1165 746 1130 q 721 1222 746 1200 q 663 1243 696 1244 q 605 1219 628 1242 q 581 1161 581 1196 z "},"İ":{"ha":815,"x_min":50,"x_max":788,"o":"m 222 987 l 198 852 l 399 852 l 274 134 l 74 134 l 50 0 l 616 0 l 640 134 l 435 134 l 559 852 l 764 852 l 788 987 l 222 987 m 427 1162 q 453 1101 427 1124 q 517 1079 479 1077 q 580 1104 554 1079 q 606 1168 606 1128 q 581 1230 606 1206 q 517 1253 555 1254 q 452 1226 477 1252 q 427 1162 428 1201 z "},"Ì":{"ha":815,"x_min":50,"x_max":788,"o":"m 222 987 l 198 852 l 399 852 l 274 134 l 74 134 l 50 0 l 616 0 l 640 134 l 435 134 l 559 852 l 764 852 l 788 987 l 222 987 m 560 1053 l 473 1238 l 303 1238 l 444 1053 l 560 1053 z "},"Ī":{"ha":815,"x_min":50,"x_max":788,"o":"m 222 987 l 198 852 l 399 852 l 274 134 l 74 134 l 50 0 l 616 0 l 640 134 l 435 134 l 559 852 l 764 852 l 788 987 l 222 987 m 746 1103 l 763 1208 l 286 1208 l 269 1103 l 746 1103 z "},"Į":{"ha":815,"x_min":50,"x_max":788,"o":"m 222 987 l 198 852 l 399 852 l 274 134 l 74 134 l 50 0 l 382 0 q 344 -31 362 -14 q 313 -68 326 -48 q 290 -111 298 -88 q 281 -159 281 -134 q 289 -211 280 -188 q 313 -251 297 -234 q 354 -279 330 -269 q 408 -290 378 -289 q 468 -283 439 -290 q 524 -262 498 -277 l 504 -165 q 475 -176 490 -171 q 445 -180 460 -181 q 416 -168 425 -179 q 410 -137 408 -157 q 425 -91 412 -112 q 454 -54 437 -71 q 494 -25 473 -38 q 536 -2 515 -12 l 532 0 l 616 0 l 640 134 l 435 134 l 559 852 l 764 852 l 788 987 l 222 987 z "},"Ĩ":{"ha":815,"x_min":50,"x_max":788,"o":"m 222 987 l 198 852 l 399 852 l 274 134 l 74 134 l 50 0 l 616 0 l 640 134 l 435 134 l 559 852 l 764 852 l 788 987 l 222 987 m 761 1258 l 683 1277 q 672 1251 679 1263 q 654 1225 665 1238 q 633 1212 645 1217 q 607 1206 621 1207 q 560 1216 582 1206 q 517 1238 538 1226 q 473 1260 495 1250 q 426 1270 451 1270 q 365 1256 392 1270 q 320 1219 338 1242 q 289 1166 300 1196 q 275 1107 277 1137 l 355 1089 q 366 1116 359 1103 q 382 1139 372 1129 q 403 1153 391 1147 q 431 1160 415 1159 q 477 1151 456 1160 q 520 1128 499 1141 q 564 1106 542 1116 q 612 1096 586 1096 q 672 1110 646 1096 q 718 1147 699 1124 q 747 1199 736 1170 q 761 1258 758 1227 z "},"Ĵ":{"ha":815,"x_min":46,"x_max":977,"o":"m 649 987 l 532 302 q 509 232 526 265 q 468 174 493 199 q 411 133 444 148 q 338 119 378 119 q 275 134 300 120 q 233 170 249 148 q 212 223 218 193 q 207 288 205 254 l 47 289 q 64 167 46 222 q 117 72 81 112 q 205 10 153 33 q 326 -14 258 -13 q 459 8 397 -15 q 570 75 521 32 q 651 175 618 117 q 693 302 683 233 l 810 987 l 649 987 m 977 1093 l 816 1256 l 724 1256 l 524 1094 l 522 1074 l 652 1075 l 768 1166 l 852 1074 l 975 1074 l 977 1093 z "},"Ķ":{"ha":815,"x_min":26,"x_max":899,"o":"m 369 426 l 553 0 l 734 0 l 489 545 l 899 987 l 694 987 l 385 647 l 278 531 l 358 987 l 197 987 l 26 0 l 186 0 l 239 302 l 369 426 m 390 -90 l 395 -44 l 273 -44 l 266 -93 q 237 -187 258 -143 q 188 -273 217 -231 l 261 -325 q 348 -220 314 -281 q 390 -90 382 -159 z "},"Ĺ":{"ha":815,"x_min":41,"x_max":681,"o":"m 224 134 l 372 987 l 212 987 l 41 0 l 657 0 l 681 134 l 224 134 m 381 1216 l 229 1031 l 361 1031 l 570 1216 l 381 1216 z "},"Ľ":{"ha":815,"x_min":41,"x_max":765,"o":"m 224 134 l 372 987 l 212 987 l 41 0 l 657 0 l 681 134 l 224 134 m 747 878 l 765 987 l 629 987 l 610 877 q 574 767 599 818 q 515 669 550 717 l 591 616 q 647 670 621 640 q 694 734 673 700 q 727 803 713 767 q 747 878 741 840 z "},"Ļ":{"ha":815,"x_min":41,"x_max":681,"o":"m 224 134 l 372 987 l 212 987 l 41 0 l 657 0 l 681 134 l 224 134 m 393 -83 l 398 -37 l 276 -37 l 269 -85 q 241 -179 261 -136 q 191 -265 220 -223 l 264 -317 q 351 -213 317 -273 q 393 -83 385 -152 z "},"Ŀ":{"ha":815,"x_min":41,"x_max":681,"o":"m 224 134 l 372 987 l 212 987 l 41 0 l 657 0 l 681 134 l 224 134 m 428 543 q 454 481 428 505 q 517 459 480 457 q 581 484 555 459 q 607 548 606 509 q 581 610 607 587 q 517 633 555 634 q 453 607 477 632 q 428 543 429 581 z "},"Ł":{"ha":815,"x_min":31,"x_max":693,"o":"m 315 592 l 385 987 l 224 987 l 146 543 l 54 515 l 31 387 l 125 415 l 54 0 l 669 0 l 693 134 l 236 134 l 293 464 l 463 514 l 486 642 l 315 592 z "},"Ń":{"ha":815,"x_min":16,"x_max":818,"o":"m 646 0 l 818 987 l 658 987 l 537 304 l 344 987 l 186 987 l 16 0 l 176 0 l 296 686 l 490 0 l 646 0 m 587 1236 l 435 1051 l 568 1051 l 777 1236 l 587 1236 z "},"Ň":{"ha":815,"x_min":16,"x_max":818,"o":"m 646 0 l 818 987 l 658 987 l 537 304 l 344 987 l 186 987 l 16 0 l 176 0 l 296 686 l 490 0 l 646 0 m 522 1173 l 441 1265 l 311 1267 l 310 1251 l 470 1083 l 570 1083 l 775 1252 l 776 1267 l 636 1265 l 522 1173 z "},"Ņ":{"ha":815,"x_min":16,"x_max":818,"o":"m 646 0 l 818 987 l 658 987 l 537 304 l 344 987 l 186 987 l 16 0 l 176 0 l 296 686 l 490 0 l 646 0 m 378 -85 l 383 -39 l 261 -39 l 254 -88 q 226 -182 246 -138 q 176 -268 205 -226 l 250 -320 q 336 -215 302 -276 q 378 -85 370 -155 z "},"Ñ":{"ha":815,"x_min":16,"x_max":818,"o":"m 646 0 l 818 987 l 658 987 l 537 304 l 344 987 l 186 987 l 16 0 l 176 0 l 296 686 l 490 0 l 646 0 m 772 1258 l 694 1277 q 683 1251 690 1263 q 665 1225 676 1238 q 644 1212 656 1217 q 618 1206 632 1207 q 571 1216 593 1206 q 528 1238 549 1226 q 484 1260 506 1250 q 437 1270 462 1270 q 376 1256 403 1270 q 331 1219 349 1242 q 300 1166 311 1196 q 286 1107 288 1137 l 366 1089 q 377 1116 370 1103 q 393 1139 383 1129 q 414 1153 401 1147 q 441 1160 426 1159 q 488 1151 467 1160 q 531 1128 510 1141 q 575 1106 553 1116 q 623 1096 597 1096 q 683 1110 656 1096 q 728 1147 709 1124 q 758 1199 747 1170 q 772 1258 769 1227 z "},"Ó":{"ha":815,"x_min":58,"x_max":791,"o":"m 753 429 l 773 558 q 778 661 780 608 q 764 762 776 713 q 731 853 753 810 q 675 928 709 896 q 596 980 642 961 q 492 1001 551 1000 q 378 985 430 1002 q 284 937 326 968 q 209 862 242 905 q 151 769 175 819 q 110 666 126 720 q 85 558 94 612 l 64 428 q 59 326 58 378 q 72 227 61 275 q 104 135 83 178 q 158 59 125 92 q 236 7 191 27 q 340 -14 281 -12 q 454 2 402 -15 q 549 50 506 20 q 626 124 592 81 q 686 217 661 168 q 727 320 711 267 q 753 429 744 374 m 612 561 l 592 428 q 578 360 587 395 q 556 290 570 325 q 524 225 543 256 q 481 171 505 194 q 424 135 456 148 q 352 123 392 121 q 290 140 315 124 q 249 181 264 156 q 227 237 234 205 q 218 302 220 269 q 218 368 216 336 q 224 427 220 400 l 245 559 q 258 627 250 591 q 279 696 267 662 q 310 761 292 730 q 352 815 328 791 q 408 851 376 838 q 479 863 439 865 q 543 846 517 862 q 584 806 568 831 q 608 751 600 782 q 618 687 616 720 q 618 621 621 654 q 612 561 616 589 m 602 1251 l 450 1065 l 583 1065 l 791 1251 l 602 1251 z "},"Ŏ":{"ha":815,"x_min":58,"x_max":780,"o":"m 753 429 l 773 558 q 778 661 780 608 q 764 762 776 713 q 731 853 753 810 q 675 928 709 896 q 596 980 642 961 q 492 1001 551 1000 q 378 985 430 1002 q 284 937 326 968 q 209 862 242 905 q 151 769 175 819 q 110 666 126 720 q 85 558 94 612 l 64 428 q 59 326 58 378 q 72 227 61 275 q 104 135 83 178 q 158 59 125 92 q 236 7 191 27 q 340 -14 281 -12 q 454 2 402 -15 q 549 50 506 20 q 626 124 592 81 q 686 217 661 168 q 727 320 711 267 q 753 429 744 374 m 612 561 l 592 428 q 578 360 587 395 q 556 290 570 325 q 524 225 543 256 q 481 171 505 194 q 424 135 456 148 q 352 123 392 121 q 290 140 315 124 q 249 181 264 156 q 227 237 234 205 q 218 302 220 269 q 218 368 216 336 q 224 427 220 400 l 245 559 q 258 627 250 591 q 279 696 267 662 q 310 761 292 730 q 352 815 328 791 q 408 851 376 838 q 479 863 439 865 q 543 846 517 862 q 584 806 568 831 q 608 751 600 782 q 618 687 616 720 q 618 621 621 654 q 612 561 616 589 m 766 1276 l 648 1276 q 635 1237 644 1254 q 613 1206 627 1219 q 583 1187 600 1194 q 542 1181 565 1181 q 503 1189 519 1181 q 477 1209 487 1196 q 464 1239 468 1222 q 461 1276 460 1256 l 344 1277 q 357 1197 343 1232 q 398 1137 372 1162 q 461 1099 425 1113 q 541 1085 497 1086 q 625 1097 586 1084 q 695 1134 665 1109 q 744 1195 725 1158 q 766 1276 763 1231 z "},"Ô":{"ha":815,"x_min":58,"x_max":780,"o":"m 753 429 l 773 558 q 778 661 780 608 q 764 762 776 713 q 731 853 753 810 q 675 928 709 896 q 596 980 642 961 q 492 1001 551 1000 q 378 985 430 1002 q 284 937 326 968 q 209 862 242 905 q 151 769 175 819 q 110 666 126 720 q 85 558 94 612 l 64 428 q 59 326 58 378 q 72 227 61 275 q 104 135 83 178 q 158 59 125 92 q 236 7 191 27 q 340 -14 281 -12 q 454 2 402 -15 q 549 50 506 20 q 626 124 592 81 q 686 217 661 168 q 727 320 711 267 q 753 429 744 374 m 612 561 l 592 428 q 578 360 587 395 q 556 290 570 325 q 524 225 543 256 q 481 171 505 194 q 424 135 456 148 q 352 123 392 121 q 290 140 315 124 q 249 181 264 156 q 227 237 234 205 q 218 302 220 269 q 218 368 216 336 q 224 427 220 400 l 245 559 q 258 627 250 591 q 279 696 267 662 q 310 761 292 730 q 352 815 328 791 q 408 851 376 838 q 479 863 439 865 q 543 846 517 862 q 584 806 568 831 q 608 751 600 782 q 618 687 616 720 q 618 621 621 654 q 612 561 616 589 m 760 1116 l 599 1278 l 507 1278 l 307 1116 l 305 1096 l 435 1097 l 551 1189 l 635 1097 l 758 1096 l 760 1116 z "},"Ö":{"ha":815,"x_min":58,"x_max":780,"o":"m 753 429 l 773 558 q 778 661 780 608 q 764 762 776 713 q 731 853 753 810 q 675 928 709 896 q 596 980 642 961 q 492 1001 551 1000 q 378 985 430 1002 q 284 937 326 968 q 209 862 242 905 q 151 769 175 819 q 110 666 126 720 q 85 558 94 612 l 64 428 q 59 326 58 378 q 72 227 61 275 q 104 135 83 178 q 158 59 125 92 q 236 7 191 27 q 340 -14 281 -12 q 454 2 402 -15 q 549 50 506 20 q 626 124 592 81 q 686 217 661 168 q 727 320 711 267 q 753 429 744 374 m 612 561 l 592 428 q 578 360 587 395 q 556 290 570 325 q 524 225 543 256 q 481 171 505 194 q 424 135 456 148 q 352 123 392 121 q 290 140 315 124 q 249 181 264 156 q 227 237 234 205 q 218 302 220 269 q 218 368 216 336 q 224 427 220 400 l 245 559 q 258 627 250 591 q 279 696 267 662 q 310 761 292 730 q 352 815 328 791 q 408 851 376 838 q 479 863 439 865 q 543 846 517 862 q 584 806 568 831 q 608 751 600 782 q 618 687 616 720 q 618 621 621 654 q 612 561 616 589 m 306 1175 q 329 1120 305 1141 q 389 1099 353 1098 q 446 1122 422 1099 q 471 1180 470 1144 q 446 1236 471 1215 q 388 1258 421 1258 q 330 1234 353 1257 q 306 1175 306 1211 m 608 1175 q 632 1118 608 1140 q 690 1097 656 1097 q 748 1121 724 1098 q 772 1179 772 1144 q 747 1236 772 1215 q 690 1257 722 1258 q 631 1233 654 1256 q 608 1175 608 1210 z "},"Ò":{"ha":815,"x_min":58,"x_max":780,"o":"m 753 429 l 773 558 q 778 661 780 608 q 764 762 776 713 q 731 853 753 810 q 675 928 709 896 q 596 980 642 961 q 492 1001 551 1000 q 378 985 430 1002 q 284 937 326 968 q 209 862 242 905 q 151 769 175 819 q 110 666 126 720 q 85 558 94 612 l 64 428 q 59 326 58 378 q 72 227 61 275 q 104 135 83 178 q 158 59 125 92 q 236 7 191 27 q 340 -14 281 -12 q 454 2 402 -15 q 549 50 506 20 q 626 124 592 81 q 686 217 661 168 q 727 320 711 267 q 753 429 744 374 m 612 561 l 592 428 q 578 360 587 395 q 556 290 570 325 q 524 225 543 256 q 481 171 505 194 q 424 135 456 148 q 352 123 392 121 q 290 140 315 124 q 249 181 264 156 q 227 237 234 205 q 218 302 220 269 q 218 368 216 336 q 224 427 220 400 l 245 559 q 258 627 250 591 q 279 696 267 662 q 310 761 292 730 q 352 815 328 791 q 408 851 376 838 q 479 863 439 865 q 543 846 517 862 q 584 806 568 831 q 608 751 600 782 q 618 687 616 720 q 618 621 621 654 q 612 561 616 589 m 587 1067 l 499 1253 l 330 1253 l 470 1067 l 587 1067 z "},"Ơ":{"ha":815,"x_min":61,"x_max":917,"o":"m 755 429 l 776 558 q 780 677 784 616 q 759 793 776 737 q 822 826 794 805 q 869 876 849 847 q 900 944 888 906 q 917 1027 912 983 l 798 1027 q 788 983 794 1005 q 774 941 783 960 q 750 907 764 922 q 715 885 736 892 q 684 924 701 906 q 645 956 666 942 q 578 988 615 976 q 494 1001 541 1000 q 381 985 433 1002 q 288 937 330 968 q 212 862 245 905 q 154 769 178 819 q 113 666 129 720 q 88 558 96 612 l 68 428 q 63 326 61 378 q 75 227 64 275 q 107 135 86 178 q 161 60 128 92 q 239 7 194 27 q 343 -14 284 -12 q 457 2 405 -15 q 553 50 509 20 q 629 124 595 81 q 689 217 663 168 q 730 320 714 267 q 755 429 747 374 m 616 561 l 595 428 q 581 360 590 395 q 559 290 572 325 q 527 225 546 256 q 484 171 509 194 q 427 135 459 148 q 355 123 395 121 q 293 140 317 124 q 252 181 268 156 q 230 237 237 205 q 221 302 222 269 q 221 368 219 336 q 227 427 224 400 l 248 559 q 262 627 254 591 q 282 696 270 662 q 313 761 295 730 q 355 815 331 791 q 411 851 380 838 q 483 863 443 865 q 546 846 520 862 q 587 806 571 831 q 611 751 604 782 q 622 687 619 720 q 622 621 624 654 q 616 561 619 589 z "},"Ő":{"ha":815,"x_min":58,"x_max":920,"o":"m 753 429 l 773 558 q 778 661 780 608 q 764 762 776 713 q 731 853 753 810 q 675 928 709 896 q 596 980 642 961 q 492 1001 551 1000 q 378 985 430 1002 q 284 937 326 968 q 209 862 242 905 q 151 769 175 819 q 110 666 126 720 q 85 558 94 612 l 64 428 q 59 326 58 378 q 72 227 61 275 q 104 135 83 178 q 158 59 125 92 q 236 7 191 27 q 340 -14 281 -12 q 454 2 402 -15 q 549 50 506 20 q 626 124 592 81 q 686 217 661 168 q 727 320 711 267 q 753 429 744 374 m 612 561 l 592 428 q 578 360 587 395 q 556 290 570 325 q 524 225 543 256 q 481 171 505 194 q 424 135 456 148 q 352 123 392 121 q 290 140 315 124 q 249 181 264 156 q 227 237 234 205 q 218 302 220 269 q 218 368 216 336 q 224 427 220 400 l 245 559 q 258 627 250 591 q 279 696 267 662 q 310 761 292 730 q 352 815 328 791 q 408 851 376 838 q 479 863 439 865 q 543 846 517 862 q 584 806 568 831 q 608 751 600 782 q 618 687 616 720 q 618 621 621 654 q 612 561 616 589 m 741 1280 l 547 1099 l 688 1099 l 920 1280 l 741 1280 m 513 1280 l 351 1099 l 484 1099 l 682 1280 l 513 1280 z "},"Ō":{"ha":815,"x_min":58,"x_max":789,"o":"m 753 429 l 773 558 q 778 661 780 608 q 764 762 776 713 q 731 853 753 810 q 675 928 709 896 q 596 980 642 961 q 492 1001 551 1000 q 378 985 430 1002 q 284 937 326 968 q 209 862 242 905 q 151 769 175 819 q 110 666 126 720 q 85 558 94 612 l 64 428 q 59 326 58 378 q 72 227 61 275 q 104 135 83 178 q 158 59 125 92 q 236 7 191 27 q 340 -14 281 -12 q 454 2 402 -15 q 549 50 506 20 q 626 124 592 81 q 686 217 661 168 q 727 320 711 267 q 753 429 744 374 m 612 561 l 592 428 q 578 360 587 395 q 556 290 570 325 q 524 225 543 256 q 481 171 505 194 q 424 135 456 148 q 352 123 392 121 q 290 140 315 124 q 249 181 264 156 q 227 237 234 205 q 218 302 220 269 q 218 368 216 336 q 224 427 220 400 l 245 559 q 258 627 250 591 q 279 696 267 662 q 310 761 292 730 q 352 815 328 791 q 408 851 376 838 q 479 863 439 865 q 543 846 517 862 q 584 806 568 831 q 608 751 600 782 q 618 687 616 720 q 618 621 621 654 q 612 561 616 589 m 772 1117 l 789 1222 l 313 1222 l 296 1117 l 772 1117 z "},"Ø":{"ha":815,"x_min":-49,"x_max":871,"o":"m 752 429 l 772 558 q 778 632 777 595 q 774 706 779 669 q 760 778 769 743 q 734 844 750 812 l 871 1029 l 751 1029 l 676 926 q 645 952 661 940 q 609 974 628 964 q 555 993 585 986 q 491 1001 526 1000 q 378 985 430 1002 q 284 937 326 968 q 208 862 241 905 q 151 769 175 819 q 109 666 125 720 q 85 558 93 612 l 64 428 q 59 373 60 401 q 60 316 58 345 q 72 225 62 270 q 100 140 82 180 l -49 -64 l 70 -64 l 159 58 q 237 6 193 25 q 340 -14 281 -12 q 454 2 401 -15 q 549 50 506 20 q 626 124 592 81 q 686 217 660 168 q 727 320 711 267 q 752 429 743 374 m 224 427 l 245 559 q 258 627 250 591 q 279 696 267 662 q 310 761 292 730 q 352 815 328 791 q 408 851 376 838 q 479 863 439 865 q 516 857 499 863 q 547 844 533 852 q 568 826 559 836 q 585 802 578 815 l 220 304 q 218 335 219 319 q 218 366 218 350 q 220 397 219 381 q 224 427 222 413 m 612 561 l 591 428 q 578 360 587 395 q 556 291 569 325 q 524 225 543 256 q 481 171 505 194 q 424 135 456 148 q 352 123 391 121 q 289 140 314 124 q 249 180 264 155 l 618 683 q 618 619 620 650 q 612 561 616 587 z "},"Ǿ":{"ha":815,"x_min":-49,"x_max":871,"o":"m 752 429 l 772 558 q 778 632 777 595 q 774 706 779 669 q 760 778 769 743 q 734 844 750 812 l 871 1029 l 751 1029 l 676 926 q 645 952 661 940 q 609 974 628 964 q 555 993 585 986 q 491 1001 526 1000 q 378 985 430 1002 q 284 937 326 968 q 208 862 241 905 q 151 769 175 819 q 109 666 125 720 q 85 558 93 612 l 64 428 q 59 373 60 401 q 60 316 58 345 q 72 225 62 270 q 100 140 82 180 l -49 -64 l 70 -64 l 159 58 q 237 6 193 25 q 340 -14 281 -12 q 454 2 401 -15 q 549 50 506 20 q 626 124 592 81 q 686 217 660 168 q 727 320 711 267 q 752 429 743 374 m 224 427 l 245 559 q 258 627 250 591 q 279 696 267 662 q 310 761 292 730 q 352 815 328 791 q 408 851 376 838 q 479 863 439 865 q 516 857 499 863 q 547 844 533 852 q 568 826 559 836 q 585 802 578 815 l 220 304 q 218 335 219 319 q 218 366 218 350 q 220 397 219 381 q 224 427 222 413 m 612 561 l 591 428 q 578 360 587 395 q 556 291 569 325 q 524 225 543 256 q 481 171 505 194 q 424 135 456 148 q 352 123 391 121 q 289 140 314 124 q 249 180 264 155 l 618 683 q 618 619 620 650 q 612 561 616 587 m 604 1278 l 452 1093 l 584 1093 l 793 1278 l 604 1278 z "},"Õ":{"ha":815,"x_min":58,"x_max":787,"o":"m 753 429 l 773 558 q 778 661 780 608 q 764 762 776 713 q 731 853 753 810 q 675 928 709 896 q 596 980 642 961 q 492 1001 551 1000 q 378 985 430 1002 q 284 937 326 968 q 209 862 242 905 q 151 769 175 819 q 110 666 126 720 q 85 558 94 612 l 64 428 q 59 326 58 378 q 72 227 61 275 q 104 135 83 178 q 158 59 125 92 q 236 7 191 27 q 340 -14 281 -12 q 454 2 402 -15 q 549 50 506 20 q 626 124 592 81 q 686 217 661 168 q 727 320 711 267 q 753 429 744 374 m 612 561 l 592 428 q 578 360 587 395 q 556 290 570 325 q 524 225 543 256 q 481 171 505 194 q 424 135 456 148 q 352 123 392 121 q 290 140 315 124 q 249 181 264 156 q 227 237 234 205 q 218 302 220 269 q 218 368 216 336 q 224 427 220 400 l 245 559 q 258 627 250 591 q 279 696 267 662 q 310 761 292 730 q 352 815 328 791 q 408 851 376 838 q 479 863 439 865 q 543 846 517 862 q 584 806 568 831 q 608 751 600 782 q 618 687 616 720 q 618 621 621 654 q 612 561 616 589 m 787 1272 l 709 1291 q 698 1265 705 1278 q 680 1240 691 1252 q 659 1226 671 1231 q 633 1221 647 1221 q 586 1230 608 1220 q 543 1253 564 1240 q 499 1274 521 1264 q 452 1284 477 1284 q 391 1271 418 1284 q 346 1234 364 1257 q 315 1181 326 1210 q 300 1121 303 1152 l 381 1103 q 392 1130 385 1117 q 408 1153 398 1143 q 429 1167 416 1162 q 456 1174 441 1173 q 503 1165 481 1175 q 546 1143 525 1155 q 590 1120 568 1131 q 637 1110 612 1110 q 698 1124 671 1110 q 743 1161 724 1138 q 773 1213 762 1184 q 787 1272 784 1242 z "},"Ŕ":{"ha":815,"x_min":29,"x_max":799,"o":"m 420 383 l 536 0 l 705 0 l 706 9 l 571 420 q 656 465 618 439 q 724 524 695 490 q 771 601 753 559 q 793 695 789 644 q 778 820 799 766 q 716 910 757 873 q 619 966 676 946 q 496 987 562 985 l 201 987 l 29 0 l 189 0 l 254 383 l 420 383 m 277 516 l 336 854 l 490 854 q 555 841 527 852 q 602 808 584 829 q 628 756 621 787 q 631 688 636 726 q 608 614 627 647 q 560 560 589 582 q 494 526 531 538 q 418 515 458 515 l 277 516 m 586 1228 l 434 1043 l 566 1043 l 775 1228 l 586 1228 z "},"Ř":{"ha":815,"x_min":29,"x_max":799,"o":"m 420 383 l 536 0 l 705 0 l 706 9 l 571 420 q 656 465 618 439 q 724 524 695 490 q 771 601 753 559 q 793 695 789 644 q 778 820 799 766 q 716 910 757 873 q 619 966 676 946 q 496 987 562 985 l 201 987 l 29 0 l 189 0 l 254 383 l 420 383 m 277 516 l 336 854 l 490 854 q 555 841 527 852 q 602 808 584 829 q 628 756 621 787 q 631 688 636 726 q 608 614 627 647 q 560 560 589 582 q 494 526 531 538 q 418 515 458 515 l 277 516 m 520 1165 l 440 1257 l 310 1259 l 309 1242 l 469 1075 l 568 1075 l 774 1244 l 774 1259 l 635 1257 l 520 1165 z "},"Ŗ":{"ha":815,"x_min":29,"x_max":799,"o":"m 420 383 l 536 0 l 705 0 l 706 9 l 571 420 q 656 465 618 439 q 724 524 695 490 q 771 601 753 559 q 793 695 789 644 q 778 820 799 766 q 716 910 757 873 q 619 966 676 946 q 496 987 562 985 l 201 987 l 29 0 l 189 0 l 254 383 l 420 383 m 277 516 l 336 854 l 490 854 q 555 841 527 852 q 602 808 584 829 q 628 756 621 787 q 631 688 636 726 q 608 614 627 647 q 560 560 589 582 q 494 526 531 538 q 418 515 458 515 l 277 516 m 381 -83 l 386 -37 l 264 -37 l 257 -85 q 229 -179 249 -136 q 179 -265 208 -223 l 252 -317 q 339 -213 305 -273 q 381 -83 373 -152 z "},"Ś":{"ha":815,"x_min":46,"x_max":804,"o":"m 573 259 q 550 197 568 223 q 505 153 532 170 q 445 127 478 136 q 379 119 412 119 q 305 133 337 120 q 251 168 273 145 q 217 224 229 191 q 205 298 205 256 l 48 298 q 71 170 46 227 q 139 73 95 113 q 243 10 183 32 q 371 -13 302 -12 q 499 2 435 -14 q 613 55 563 18 q 695 140 663 90 q 733 260 728 191 q 716 371 737 322 q 659 456 696 420 q 574 520 623 494 q 473 566 525 547 q 414 588 446 575 q 357 618 383 600 q 315 662 331 636 q 304 724 300 688 q 326 786 308 760 q 370 831 344 813 q 429 859 397 850 q 494 867 461 868 q 561 854 532 867 q 608 819 589 841 q 635 766 626 797 q 645 700 645 736 l 802 699 q 783 821 804 766 q 722 916 761 876 q 626 977 682 955 q 505 1001 570 1000 q 380 985 442 1002 q 267 932 317 967 q 183 844 216 896 q 146 724 150 791 q 164 615 142 662 q 225 532 186 568 q 313 470 263 496 q 414 427 363 445 q 474 403 443 416 q 528 371 505 390 q 565 324 552 351 q 573 259 578 297 m 601 1251 l 449 1065 l 581 1065 l 790 1251 l 601 1251 z "},"Š":{"ha":815,"x_min":46,"x_max":804,"o":"m 573 259 q 550 197 568 223 q 505 153 532 170 q 445 127 478 136 q 379 119 412 119 q 305 133 337 120 q 251 168 273 145 q 217 224 229 191 q 205 298 205 256 l 48 298 q 71 170 46 227 q 139 73 95 113 q 243 10 183 32 q 371 -13 302 -12 q 499 2 435 -14 q 613 55 563 18 q 695 140 663 90 q 733 260 728 191 q 716 371 737 322 q 659 456 696 420 q 574 520 623 494 q 473 566 525 547 q 414 588 446 575 q 357 618 383 600 q 315 662 331 636 q 304 724 300 688 q 326 786 308 760 q 370 831 344 813 q 429 859 397 850 q 494 867 461 868 q 561 854 532 867 q 608 819 589 841 q 635 766 626 797 q 645 700 645 736 l 802 699 q 783 821 804 766 q 722 916 761 876 q 626 977 682 955 q 505 1001 570 1000 q 380 985 442 1002 q 267 932 317 967 q 183 844 216 896 q 146 724 150 791 q 164 615 142 662 q 225 532 186 568 q 313 470 263 496 q 414 427 363 445 q 474 403 443 416 q 528 371 505 390 q 565 324 552 351 q 573 259 578 297 m 535 1187 l 455 1280 l 325 1281 l 323 1265 l 484 1097 l 583 1097 l 789 1266 l 789 1281 l 650 1279 l 535 1187 z "},"Ş":{"ha":815,"x_min":46,"x_max":804,"o":"m 573 259 q 550 197 568 223 q 505 153 532 170 q 445 127 478 136 q 379 119 412 119 q 305 133 337 120 q 251 168 273 145 q 217 224 229 191 q 205 298 205 256 l 48 298 q 71 170 46 227 q 139 73 95 113 q 243 10 183 32 q 371 -13 302 -12 q 499 2 435 -14 q 613 55 563 18 q 695 140 663 90 q 733 260 728 191 q 716 371 737 322 q 659 456 696 420 q 574 520 623 494 q 473 566 525 547 q 414 588 446 575 q 357 618 383 600 q 315 662 331 636 q 304 724 300 688 q 326 786 308 760 q 370 831 344 813 q 429 859 397 850 q 494 867 461 868 q 561 854 532 867 q 608 819 589 841 q 635 766 626 797 q 645 700 645 736 l 802 699 q 783 821 804 766 q 722 916 761 876 q 626 977 682 955 q 505 1001 570 1000 q 380 985 442 1002 q 267 932 317 967 q 183 844 216 896 q 146 724 150 791 q 164 615 142 662 q 225 532 186 568 q 313 470 263 496 q 414 427 363 445 q 474 403 443 416 q 528 371 505 390 q 565 324 552 351 q 573 259 578 297 m 420 -4 l 302 -5 l 272 -98 q 301 -100 285 -99 q 332 -106 318 -102 q 354 -122 346 -112 q 360 -151 363 -132 q 346 -183 357 -170 q 321 -202 336 -195 q 289 -213 306 -210 q 256 -217 272 -216 l 252 -312 q 304 -308 277 -311 q 358 -298 332 -304 q 408 -278 384 -290 q 450 -248 432 -267 q 477 -208 467 -232 q 488 -153 488 -184 q 483 -109 489 -130 q 463 -74 476 -89 q 438 -55 452 -63 q 406 -43 423 -47 l 420 -4 z "},"Ŝ":{"ha":815,"x_min":46,"x_max":804,"o":"m 573 259 q 550 197 568 223 q 505 153 532 170 q 445 127 478 136 q 379 119 412 119 q 305 133 337 120 q 251 168 273 145 q 217 224 229 191 q 205 298 205 256 l 48 298 q 71 170 46 227 q 139 73 95 113 q 243 10 183 32 q 371 -13 302 -12 q 499 2 435 -14 q 613 55 563 18 q 695 140 663 90 q 733 260 728 191 q 716 371 737 322 q 659 456 696 420 q 574 520 623 494 q 473 566 525 547 q 414 588 446 575 q 357 618 383 600 q 315 662 331 636 q 304 724 300 688 q 326 786 308 760 q 370 831 344 813 q 429 859 397 850 q 494 867 461 868 q 561 854 532 867 q 608 819 589 841 q 635 766 626 797 q 645 700 645 736 l 802 699 q 783 821 804 766 q 722 916 761 876 q 626 977 682 955 q 505 1001 570 1000 q 380 985 442 1002 q 267 932 317 967 q 183 844 216 896 q 146 724 150 791 q 164 615 142 662 q 225 532 186 568 q 313 470 263 496 q 414 427 363 445 q 474 403 443 416 q 528 371 505 390 q 565 324 552 351 q 573 259 578 297 m 758 1116 l 597 1278 l 506 1278 l 305 1116 l 304 1096 l 434 1097 l 550 1189 l 633 1097 l 757 1096 l 758 1116 z "},"Ŧ":{"ha":815,"x_min":108,"x_max":880,"o":"m 659 532 l 678 646 l 524 646 l 560 852 l 855 852 l 880 987 l 132 987 l 108 852 l 401 852 l 366 646 l 218 646 l 197 532 l 346 532 l 254 0 l 412 0 l 504 532 l 659 532 z "},"Ť":{"ha":815,"x_min":108,"x_max":880,"o":"m 855 852 l 880 987 l 132 987 l 108 852 l 401 852 l 254 0 l 412 0 l 560 852 l 855 852 m 532 1168 l 452 1261 l 321 1262 l 320 1246 l 480 1078 l 580 1078 l 785 1247 l 786 1262 l 646 1260 l 532 1168 z "},"Ú":{"ha":815,"x_min":66,"x_max":822,"o":"m 822 987 l 665 987 l 551 327 q 530 250 545 288 q 490 182 515 212 q 431 136 466 153 q 353 120 397 118 q 286 142 311 122 q 248 191 261 161 q 233 257 235 221 q 234 326 230 292 l 345 987 l 188 987 l 75 326 q 80 198 66 260 q 127 91 94 137 q 215 16 161 44 q 340 -14 268 -12 q 480 11 416 -16 q 591 83 543 37 q 669 192 638 129 q 710 328 699 255 l 822 987 m 610 1232 l 458 1046 l 590 1046 l 799 1232 l 610 1232 z "},"Ŭ":{"ha":815,"x_min":66,"x_max":822,"o":"m 822 987 l 665 987 l 551 327 q 530 250 545 288 q 490 182 515 212 q 431 136 466 153 q 353 120 397 118 q 286 142 311 122 q 248 191 261 161 q 233 257 235 221 q 234 326 230 292 l 345 987 l 188 987 l 75 326 q 80 198 66 260 q 127 91 94 137 q 215 16 161 44 q 340 -14 268 -12 q 480 11 416 -16 q 591 83 543 37 q 669 192 638 129 q 710 328 699 255 l 822 987 m 774 1257 l 656 1257 q 643 1218 652 1235 q 621 1187 634 1200 q 590 1168 608 1175 q 549 1162 572 1162 q 510 1170 526 1162 q 485 1190 494 1177 q 472 1220 475 1203 q 469 1257 468 1237 l 351 1258 q 365 1178 351 1213 q 406 1118 379 1143 q 468 1080 432 1094 q 548 1066 505 1067 q 633 1078 593 1065 q 703 1115 672 1090 q 751 1176 732 1139 q 774 1257 770 1212 z "},"Û":{"ha":815,"x_min":66,"x_max":822,"o":"m 822 987 l 665 987 l 551 327 q 530 250 545 288 q 490 182 515 212 q 431 136 466 153 q 353 120 397 118 q 286 142 311 122 q 248 191 261 161 q 233 257 235 221 q 234 326 230 292 l 345 987 l 188 987 l 75 326 q 80 198 66 260 q 127 91 94 137 q 215 16 161 44 q 340 -14 268 -12 q 480 11 416 -16 q 591 83 543 37 q 669 192 638 129 q 710 328 699 255 l 822 987 m 767 1097 l 606 1259 l 515 1259 l 314 1097 l 313 1077 l 443 1078 l 559 1170 l 642 1078 l 766 1077 l 767 1097 z "},"Ü":{"ha":815,"x_min":66,"x_max":822,"o":"m 822 987 l 665 987 l 551 327 q 530 250 545 288 q 490 182 515 212 q 431 136 466 153 q 353 120 397 118 q 286 142 311 122 q 248 191 261 161 q 233 257 235 221 q 234 326 230 292 l 345 987 l 188 987 l 75 326 q 80 198 66 260 q 127 91 94 137 q 215 16 161 44 q 340 -14 268 -12 q 480 11 416 -16 q 591 83 543 37 q 669 192 638 129 q 710 328 699 255 l 822 987 m 313 1156 q 336 1101 312 1122 q 395 1080 360 1079 q 453 1103 429 1080 q 477 1161 477 1125 q 453 1217 477 1196 q 395 1239 428 1239 q 336 1215 360 1238 q 313 1156 313 1192 m 614 1156 q 638 1099 614 1121 q 696 1078 663 1078 q 755 1102 731 1079 q 779 1160 779 1125 q 754 1217 779 1196 q 696 1238 729 1239 q 638 1214 661 1237 q 614 1156 614 1191 z "},"Ù":{"ha":815,"x_min":66,"x_max":822,"o":"m 822 987 l 665 987 l 551 327 q 530 250 545 288 q 490 182 515 212 q 431 136 466 153 q 353 120 397 118 q 286 142 311 122 q 248 191 261 161 q 233 257 235 221 q 234 326 230 292 l 345 987 l 188 987 l 75 326 q 80 198 66 260 q 127 91 94 137 q 215 16 161 44 q 340 -14 268 -12 q 480 11 416 -16 q 591 83 543 37 q 669 192 638 129 q 710 328 699 255 l 822 987 m 594 1048 l 507 1234 l 337 1234 l 477 1048 l 594 1048 z "},"Ư":{"ha":815,"x_min":69,"x_max":1050,"o":"m 825 987 l 668 987 l 554 327 q 532 250 547 288 q 493 182 517 212 q 434 136 469 153 q 355 120 399 118 q 289 142 314 122 q 251 191 264 161 q 235 257 238 221 q 237 326 233 292 l 347 987 l 191 987 l 77 326 q 83 198 69 260 q 131 91 97 137 q 217 16 164 44 q 342 -14 271 -12 q 483 11 419 -16 q 594 83 547 37 q 672 192 642 129 q 713 328 702 255 l 785 756 q 893 778 847 760 q 972 827 940 795 q 1025 910 1006 861 q 1050 1025 1044 960 l 930 1024 q 917 961 925 990 q 895 911 909 932 q 859 876 881 889 q 803 858 836 862 l 825 987 z "},"Ű":{"ha":815,"x_min":66,"x_max":928,"o":"m 822 987 l 665 987 l 551 327 q 530 250 545 288 q 490 182 515 212 q 431 136 466 153 q 353 120 397 118 q 286 142 311 122 q 248 191 261 161 q 233 257 235 221 q 234 326 230 292 l 345 987 l 188 987 l 75 326 q 80 198 66 260 q 127 91 94 137 q 215 16 161 44 q 340 -14 268 -12 q 480 11 416 -16 q 591 83 543 37 q 669 192 638 129 q 710 328 699 255 l 822 987 m 749 1261 l 555 1080 l 695 1080 l 928 1261 l 749 1261 m 520 1261 l 359 1080 l 491 1080 l 689 1261 l 520 1261 z "},"Ū":{"ha":815,"x_min":66,"x_max":822,"o":"m 822 987 l 665 987 l 551 327 q 530 250 545 288 q 490 182 515 212 q 431 136 466 153 q 353 120 397 118 q 286 142 311 122 q 248 191 261 161 q 233 257 235 221 q 234 326 230 292 l 345 987 l 188 987 l 75 326 q 80 198 66 260 q 127 91 94 137 q 215 16 161 44 q 340 -14 268 -12 q 480 11 416 -16 q 591 83 543 37 q 669 192 638 129 q 710 328 699 255 l 822 987 m 780 1099 l 797 1204 l 320 1204 l 303 1099 l 780 1099 z "},"Ų":{"ha":815,"x_min":67,"x_max":822,"o":"m 822 987 l 665 987 l 551 327 q 530 250 545 288 q 490 182 515 212 q 431 136 466 153 q 353 120 397 118 q 286 142 311 122 q 248 191 261 161 q 233 257 235 221 q 234 326 230 292 l 345 987 l 188 987 l 75 326 q 79 204 67 262 q 121 100 91 145 q 200 24 152 54 q 312 -12 248 -5 q 312 -12 312 -12 q 312 -12 312 -12 q 293 -38 302 -24 q 279 -66 284 -52 q 270 -92 273 -79 q 267 -120 267 -106 q 277 -177 267 -152 q 307 -219 287 -202 q 345 -242 323 -234 q 394 -250 368 -250 q 454 -244 425 -251 q 511 -222 484 -237 l 490 -126 q 461 -137 476 -132 q 431 -141 446 -142 q 402 -129 410 -140 q 396 -98 394 -118 q 404 -67 397 -81 q 418 -39 410 -52 q 440 -15 428 -26 q 467 5 453 -4 q 558 54 517 23 q 630 127 599 85 q 682 220 661 169 q 710 328 702 271 l 822 987 z "},"Ů":{"ha":815,"x_min":66,"x_max":822,"o":"m 822 987 l 665 987 l 551 327 q 530 250 545 288 q 490 182 515 212 q 431 136 466 153 q 353 120 397 118 q 286 142 311 122 q 248 191 261 161 q 233 257 235 221 q 234 326 230 292 l 345 987 l 188 987 l 75 326 q 80 198 66 260 q 127 91 94 137 q 215 16 161 44 q 340 -14 268 -12 q 480 11 416 -16 q 591 83 543 37 q 669 192 638 129 q 710 328 699 255 l 822 987 m 414 1164 q 424 1114 414 1137 q 450 1074 433 1090 q 492 1048 468 1057 q 543 1038 515 1038 q 598 1048 572 1038 q 644 1077 624 1059 q 675 1120 663 1095 q 688 1175 687 1145 q 680 1226 689 1202 q 653 1267 670 1249 q 613 1294 636 1284 q 563 1304 590 1304 q 507 1294 534 1304 q 460 1265 481 1283 q 428 1220 440 1246 q 414 1164 415 1194 m 486 1166 q 494 1194 488 1181 q 511 1218 500 1208 q 535 1234 522 1228 q 563 1240 548 1240 q 587 1235 576 1240 q 606 1220 598 1229 q 615 1198 612 1211 q 616 1173 618 1186 q 609 1146 615 1160 q 593 1123 602 1133 q 570 1107 583 1114 q 543 1101 557 1101 q 519 1106 530 1101 q 501 1119 509 1111 q 489 1140 493 1127 q 486 1166 485 1152 z "},"Ũ":{"ha":815,"x_min":66,"x_max":822,"o":"m 822 987 l 665 987 l 551 327 q 530 250 545 288 q 490 182 515 212 q 431 136 466 153 q 353 120 397 118 q 286 142 311 122 q 248 191 261 161 q 233 257 235 221 q 234 326 230 292 l 345 987 l 188 987 l 75 326 q 80 198 66 260 q 127 91 94 137 q 215 16 161 44 q 340 -14 268 -12 q 480 11 416 -16 q 591 83 543 37 q 669 192 638 129 q 710 328 699 255 l 822 987 m 794 1253 l 716 1272 q 705 1246 712 1259 q 687 1221 699 1233 q 666 1207 678 1212 q 640 1202 654 1202 q 593 1211 615 1201 q 550 1234 571 1221 q 506 1255 528 1245 q 459 1265 484 1265 q 398 1252 425 1265 q 353 1215 372 1238 q 322 1162 334 1191 q 308 1102 311 1133 l 389 1084 q 399 1111 393 1098 q 415 1134 406 1124 q 436 1148 424 1143 q 464 1155 448 1154 q 511 1146 489 1156 q 553 1124 532 1136 q 597 1101 575 1112 q 645 1091 619 1091 q 705 1105 679 1091 q 751 1142 732 1119 q 781 1194 770 1165 q 794 1253 791 1223 z "},"Ẃ":{"ha":815,"x_min":92,"x_max":880,"o":"m 92 0 l 243 0 l 425 575 l 447 648 l 448 569 l 449 0 l 600 0 l 880 987 l 730 987 l 574 404 l 557 342 l 557 406 l 557 987 l 435 987 l 258 416 l 237 347 l 240 417 l 267 987 l 121 987 l 92 0 m 583 1236 l 431 1051 l 563 1051 l 772 1236 l 583 1236 z "},"Ŵ":{"ha":815,"x_min":92,"x_max":880,"o":"m 92 0 l 243 0 l 425 575 l 447 648 l 448 569 l 449 0 l 600 0 l 880 987 l 730 987 l 574 404 l 557 342 l 557 406 l 557 987 l 435 987 l 258 416 l 237 347 l 240 417 l 267 987 l 121 987 l 92 0 m 740 1101 l 579 1264 l 488 1264 l 287 1102 l 286 1082 l 416 1083 l 532 1175 l 615 1082 l 739 1082 l 740 1101 z "},"Ẅ":{"ha":815,"x_min":92,"x_max":880,"o":"m 92 0 l 243 0 l 425 575 l 447 648 l 448 569 l 449 0 l 600 0 l 880 987 l 730 987 l 574 404 l 557 342 l 557 406 l 557 987 l 435 987 l 258 416 l 237 347 l 240 417 l 267 987 l 121 987 l 92 0 m 286 1161 q 309 1105 285 1127 q 368 1084 333 1084 q 426 1107 402 1085 q 450 1166 450 1130 q 426 1222 450 1200 q 368 1244 401 1244 q 309 1219 333 1242 q 286 1161 286 1196 m 587 1161 q 611 1104 587 1126 q 669 1083 635 1082 q 728 1107 704 1084 q 752 1165 752 1130 q 727 1222 752 1200 q 669 1243 702 1244 q 611 1219 634 1242 q 587 1161 587 1196 z "},"Ẁ":{"ha":815,"x_min":92,"x_max":880,"o":"m 92 0 l 243 0 l 425 575 l 447 648 l 448 569 l 449 0 l 600 0 l 880 987 l 730 987 l 574 404 l 557 342 l 557 406 l 557 987 l 435 987 l 258 416 l 237 347 l 240 417 l 267 987 l 121 987 l 92 0 m 566 1053 l 479 1238 l 309 1238 l 450 1053 l 566 1053 z "},"Ý":{"ha":815,"x_min":134,"x_max":888,"o":"m 422 516 l 302 987 l 134 987 l 319 366 l 257 0 l 412 0 l 473 345 l 888 987 l 704 987 l 422 516 m 598 1236 l 446 1051 l 578 1051 l 787 1236 l 598 1236 z "},"Ŷ":{"ha":815,"x_min":134,"x_max":888,"o":"m 422 516 l 302 987 l 134 987 l 319 366 l 257 0 l 412 0 l 473 345 l 888 987 l 704 987 l 422 516 m 755 1101 l 595 1264 l 503 1264 l 302 1102 l 301 1082 l 431 1083 l 547 1175 l 631 1082 l 754 1082 l 755 1101 z "},"Ÿ":{"ha":815,"x_min":134,"x_max":888,"o":"m 422 516 l 302 987 l 134 987 l 319 366 l 257 0 l 412 0 l 473 345 l 888 987 l 704 987 l 422 516 m 301 1161 q 325 1105 300 1127 q 384 1084 349 1084 q 441 1107 418 1085 q 466 1166 465 1130 q 441 1222 466 1200 q 383 1244 416 1244 q 325 1219 349 1242 q 301 1161 301 1196 m 603 1161 q 627 1104 603 1126 q 685 1083 651 1082 q 744 1107 720 1084 q 768 1165 768 1130 q 743 1222 768 1200 q 685 1243 718 1244 q 626 1219 650 1242 q 603 1161 603 1196 z "},"Ỳ":{"ha":815,"x_min":134,"x_max":888,"o":"m 422 516 l 302 987 l 134 987 l 319 366 l 257 0 l 412 0 l 473 345 l 888 987 l 704 987 l 422 516 m 582 1053 l 494 1238 l 325 1238 l 465 1053 l 582 1053 z "},"Ź":{"ha":815,"x_min":2,"x_max":814,"o":"m 216 134 l 798 875 l 814 987 l 161 987 l 138 852 l 600 852 l 20 115 l 2 0 l 675 0 l 696 134 l 216 134 m 599 1232 l 447 1046 l 579 1046 l 788 1232 l 599 1232 z "},"Ž":{"ha":815,"x_min":2,"x_max":814,"o":"m 216 134 l 798 875 l 814 987 l 161 987 l 138 852 l 600 852 l 20 115 l 2 0 l 675 0 l 696 134 l 216 134 m 533 1168 l 453 1261 l 323 1262 l 321 1246 l 481 1078 l 581 1078 l 787 1247 l 787 1262 l 648 1260 l 533 1168 z "},"Ż":{"ha":815,"x_min":2,"x_max":814,"o":"m 216 134 l 798 875 l 814 987 l 161 987 l 138 852 l 600 852 l 20 115 l 2 0 l 675 0 l 696 134 l 216 134 m 449 1158 q 475 1097 449 1120 q 538 1075 501 1073 q 602 1100 576 1075 q 628 1164 627 1124 q 602 1226 628 1202 q 538 1249 576 1250 q 474 1222 498 1248 q 449 1158 450 1197 z "},"á":{"ha":815,"x_min":50,"x_max":742,"o":"m 493 0 l 651 0 l 652 12 q 642 90 640 50 q 650 169 644 130 l 703 495 q 691 603 709 556 q 636 682 672 650 q 549 730 600 713 q 443 748 499 747 q 335 735 390 749 q 236 694 281 722 q 160 623 191 666 q 125 522 130 580 l 283 522 q 302 567 289 548 q 334 599 315 587 q 376 618 352 612 q 426 624 399 625 q 479 615 456 623 q 519 590 503 606 q 542 550 535 574 q 545 497 549 527 l 536 446 l 416 448 q 333 443 375 448 q 252 426 291 437 q 177 396 212 414 q 115 349 142 377 q 72 284 88 321 q 53 199 55 248 q 67 112 50 151 q 115 45 84 73 q 186 2 145 18 q 274 -14 228 -13 q 352 -4 315 -14 q 422 25 389 6 q 456 47 439 35 q 488 73 472 60 q 487 37 486 54 q 493 0 488 19 m 312 116 q 270 123 289 117 q 237 142 250 130 q 217 173 223 154 q 214 216 211 191 q 224 254 216 237 q 243 283 232 271 q 269 306 254 296 q 300 323 284 316 q 364 340 330 336 q 429 345 398 345 l 522 345 l 498 208 q 464 172 482 189 q 425 144 445 156 q 371 123 399 130 q 312 116 342 115 m 553 1018 l 401 833 l 533 833 l 742 1018 l 553 1018 z "},"ă":{"ha":815,"x_min":50,"x_max":717,"o":"m 493 0 l 651 0 l 652 12 q 642 90 640 50 q 650 169 644 130 l 703 495 q 691 603 709 556 q 636 682 672 650 q 549 730 600 713 q 443 748 499 747 q 335 735 390 749 q 236 694 281 722 q 160 623 191 666 q 125 522 130 580 l 283 522 q 302 567 289 548 q 334 599 315 587 q 376 618 352 612 q 426 624 399 625 q 479 615 456 623 q 519 590 503 606 q 542 550 535 574 q 545 497 549 527 l 536 446 l 416 448 q 333 443 375 448 q 252 426 291 437 q 177 396 212 414 q 115 349 142 377 q 72 284 88 321 q 53 199 55 248 q 67 112 50 151 q 115 45 84 73 q 186 2 145 18 q 274 -14 228 -13 q 352 -4 315 -14 q 422 25 389 6 q 456 47 439 35 q 488 73 472 60 q 487 37 486 54 q 493 0 488 19 m 312 116 q 270 123 289 117 q 237 142 250 130 q 217 173 223 154 q 214 216 211 191 q 224 254 216 237 q 243 283 232 271 q 269 306 254 296 q 300 323 284 316 q 364 340 330 336 q 429 345 398 345 l 522 345 l 498 208 q 464 172 482 189 q 425 144 445 156 q 371 123 399 130 q 312 116 342 115 m 717 1044 l 599 1043 q 586 1004 595 1021 q 564 974 577 987 q 533 955 551 962 q 492 948 515 948 q 453 956 469 949 q 428 977 437 964 q 415 1006 418 989 q 412 1044 411 1023 l 294 1044 q 308 964 294 1000 q 349 905 322 929 q 411 867 375 880 q 491 852 448 853 q 576 864 536 852 q 646 901 615 877 q 694 962 675 926 q 717 1044 713 998 z "},"â":{"ha":815,"x_min":50,"x_max":710,"o":"m 493 0 l 651 0 l 652 12 q 642 90 640 50 q 650 169 644 130 l 703 495 q 691 603 709 556 q 636 682 672 650 q 549 730 600 713 q 443 748 499 747 q 335 735 390 749 q 236 694 281 722 q 160 623 191 666 q 125 522 130 580 l 283 522 q 302 567 289 548 q 334 599 315 587 q 376 618 352 612 q 426 624 399 625 q 479 615 456 623 q 519 590 503 606 q 542 550 535 574 q 545 497 549 527 l 536 446 l 416 448 q 333 443 375 448 q 252 426 291 437 q 177 396 212 414 q 115 349 142 377 q 72 284 88 321 q 53 199 55 248 q 67 112 50 151 q 115 45 84 73 q 186 2 145 18 q 274 -14 228 -13 q 352 -4 315 -14 q 422 25 389 6 q 456 47 439 35 q 488 73 472 60 q 487 37 486 54 q 493 0 488 19 m 312 116 q 270 123 289 117 q 237 142 250 130 q 217 173 223 154 q 214 216 211 191 q 224 254 216 237 q 243 283 232 271 q 269 306 254 296 q 300 323 284 316 q 364 340 330 336 q 429 345 398 345 l 522 345 l 498 208 q 464 172 482 189 q 425 144 445 156 q 371 123 399 130 q 312 116 342 115 m 710 883 l 549 1046 l 458 1046 l 257 884 l 256 863 l 386 865 l 502 956 l 585 864 l 709 863 l 710 883 z "},"ä":{"ha":815,"x_min":50,"x_max":723,"o":"m 493 0 l 651 0 l 652 12 q 642 90 640 50 q 650 169 644 130 l 703 495 q 691 603 709 556 q 636 682 672 650 q 549 730 600 713 q 443 748 499 747 q 335 735 390 749 q 236 694 281 722 q 160 623 191 666 q 125 522 130 580 l 283 522 q 302 567 289 548 q 334 599 315 587 q 376 618 352 612 q 426 624 399 625 q 479 615 456 623 q 519 590 503 606 q 542 550 535 574 q 545 497 549 527 l 536 446 l 416 448 q 333 443 375 448 q 252 426 291 437 q 177 396 212 414 q 115 349 142 377 q 72 284 88 321 q 53 199 55 248 q 67 112 50 151 q 115 45 84 73 q 186 2 145 18 q 274 -14 228 -13 q 352 -4 315 -14 q 422 25 389 6 q 456 47 439 35 q 488 73 472 60 q 487 37 486 54 q 493 0 488 19 m 312 116 q 270 123 289 117 q 237 142 250 130 q 217 173 223 154 q 214 216 211 191 q 224 254 216 237 q 243 283 232 271 q 269 306 254 296 q 300 323 284 316 q 364 340 330 336 q 429 345 398 345 l 522 345 l 498 208 q 464 172 482 189 q 425 144 445 156 q 371 123 399 130 q 312 116 342 115 m 256 943 q 280 887 256 909 q 339 866 304 865 q 397 889 373 867 q 421 947 420 911 q 396 1004 421 982 q 338 1025 372 1025 q 280 1001 304 1024 q 256 943 256 978 m 558 943 q 582 886 558 907 q 640 865 606 864 q 699 888 675 865 q 723 947 723 911 q 698 1004 723 982 q 640 1025 673 1025 q 582 1000 605 1023 q 558 943 558 977 z "},"à":{"ha":815,"x_min":50,"x_max":709,"o":"m 493 0 l 651 0 l 652 12 q 642 90 640 50 q 650 169 644 130 l 703 495 q 691 603 709 556 q 636 682 672 650 q 549 730 600 713 q 443 748 499 747 q 335 735 390 749 q 236 694 281 722 q 160 623 191 666 q 125 522 130 580 l 283 522 q 302 567 289 548 q 334 599 315 587 q 376 618 352 612 q 426 624 399 625 q 479 615 456 623 q 519 590 503 606 q 542 550 535 574 q 545 497 549 527 l 536 446 l 416 448 q 333 443 375 448 q 252 426 291 437 q 177 396 212 414 q 115 349 142 377 q 72 284 88 321 q 53 199 55 248 q 67 112 50 151 q 115 45 84 73 q 186 2 145 18 q 274 -14 228 -13 q 352 -4 315 -14 q 422 25 389 6 q 456 47 439 35 q 488 73 472 60 q 487 37 486 54 q 493 0 488 19 m 312 116 q 270 123 289 117 q 237 142 250 130 q 217 173 223 154 q 214 216 211 191 q 224 254 216 237 q 243 283 232 271 q 269 306 254 296 q 300 323 284 316 q 364 340 330 336 q 429 345 398 345 l 522 345 l 498 208 q 464 172 482 189 q 425 144 445 156 q 371 123 399 130 q 312 116 342 115 m 537 835 l 450 1020 l 280 1020 l 420 835 l 537 835 z "},"ā":{"ha":815,"x_min":50,"x_max":740,"o":"m 493 0 l 651 0 l 652 12 q 642 90 640 50 q 650 169 644 130 l 703 495 q 691 603 709 556 q 636 682 672 650 q 549 730 600 713 q 443 748 499 747 q 335 735 390 749 q 236 694 281 722 q 160 623 191 666 q 125 522 130 580 l 283 522 q 302 567 289 548 q 334 599 315 587 q 376 618 352 612 q 426 624 399 625 q 479 615 456 623 q 519 590 503 606 q 542 550 535 574 q 545 497 549 527 l 536 446 l 416 448 q 333 443 375 448 q 252 426 291 437 q 177 396 212 414 q 115 349 142 377 q 72 284 88 321 q 53 199 55 248 q 67 112 50 151 q 115 45 84 73 q 186 2 145 18 q 274 -14 228 -13 q 352 -4 315 -14 q 422 25 389 6 q 456 47 439 35 q 488 73 472 60 q 487 37 486 54 q 493 0 488 19 m 312 116 q 270 123 289 117 q 237 142 250 130 q 217 173 223 154 q 214 216 211 191 q 224 254 216 237 q 243 283 232 271 q 269 306 254 296 q 300 323 284 316 q 364 340 330 336 q 429 345 398 345 l 522 345 l 498 208 q 464 172 482 189 q 425 144 445 156 q 371 123 399 130 q 312 116 342 115 m 723 884 l 740 989 l 263 989 l 246 884 l 723 884 z "},"ą":{"ha":815,"x_min":50,"x_max":709,"o":"m 489 16 q 443 -16 465 2 q 402 -56 420 -35 q 374 -104 385 -79 q 362 -159 363 -130 q 370 -212 361 -188 q 395 -253 379 -235 q 436 -279 412 -270 q 489 -290 460 -289 q 550 -283 520 -290 q 606 -262 579 -277 l 585 -165 q 556 -176 572 -171 q 526 -180 541 -181 q 498 -168 506 -179 q 491 -137 490 -157 q 506 -91 494 -112 q 536 -54 518 -71 q 575 -25 554 -38 q 617 -2 597 -12 l 623 0 l 651 0 l 652 12 q 642 90 640 50 q 650 169 644 130 l 703 495 q 691 603 709 556 q 636 682 672 650 q 549 730 600 713 q 443 748 499 747 q 335 735 390 749 q 236 694 281 722 q 160 623 191 666 q 125 522 130 580 l 283 522 q 302 567 289 548 q 334 599 315 587 q 376 618 352 612 q 426 624 399 625 q 479 615 456 623 q 519 590 503 606 q 542 550 535 574 q 545 497 549 527 l 536 446 l 416 448 q 333 443 375 448 q 252 426 291 437 q 177 396 212 414 q 115 349 142 377 q 72 284 88 321 q 53 199 55 248 q 67 112 50 151 q 115 45 84 73 q 186 2 145 18 q 274 -14 228 -13 q 341 -7 309 -14 q 402 15 373 1 q 446 40 425 26 q 488 73 467 55 q 487 44 487 58 q 489 16 486 31 m 312 116 q 270 123 289 117 q 237 142 250 130 q 217 173 223 154 q 214 216 211 191 q 222 247 216 233 q 235 273 227 262 q 261 300 246 289 q 293 319 276 311 q 360 339 324 334 q 429 345 396 345 l 522 345 l 498 208 q 460 169 481 186 q 415 140 439 152 q 366 122 392 128 q 312 116 339 115 z "},"å":{"ha":815,"x_min":50,"x_max":709,"o":"m 493 0 l 651 0 l 652 12 q 642 90 640 50 q 650 169 644 130 l 703 495 q 691 603 709 556 q 636 682 672 650 q 549 730 600 713 q 443 748 499 747 q 335 735 390 749 q 236 694 281 722 q 160 623 191 666 q 125 522 130 580 l 283 522 q 302 567 289 548 q 334 599 315 587 q 376 618 352 612 q 426 624 399 625 q 479 615 456 623 q 519 590 503 606 q 542 550 535 574 q 545 497 549 527 l 536 446 l 416 448 q 333 443 375 448 q 252 426 291 437 q 177 396 212 414 q 115 349 142 377 q 72 284 88 321 q 53 199 55 248 q 67 112 50 151 q 115 45 84 73 q 186 2 145 18 q 274 -14 228 -13 q 352 -4 315 -14 q 422 25 389 6 q 456 47 439 35 q 488 73 472 60 q 487 37 486 54 q 493 0 488 19 m 312 116 q 270 123 289 117 q 237 142 250 130 q 217 173 223 154 q 214 216 211 191 q 224 254 216 237 q 243 283 232 271 q 269 306 254 296 q 300 323 284 316 q 364 340 330 336 q 429 345 398 345 l 522 345 l 498 208 q 464 172 482 189 q 425 144 445 156 q 371 123 399 130 q 312 116 342 115 m 357 951 q 367 900 357 923 q 393 861 376 877 q 435 834 411 844 q 486 825 458 825 q 541 835 515 825 q 587 863 567 845 q 618 907 606 882 q 631 962 630 932 q 623 1012 632 989 q 596 1053 613 1036 q 556 1080 579 1070 q 506 1090 533 1090 q 450 1080 477 1090 q 404 1051 424 1069 q 371 1006 383 1032 q 357 951 358 981 m 429 953 q 437 981 431 967 q 454 1004 444 994 q 478 1021 465 1015 q 506 1027 491 1027 q 530 1021 519 1027 q 549 1006 541 1015 q 558 985 555 997 q 559 960 561 972 q 552 933 558 946 q 536 909 545 920 q 513 894 526 900 q 486 888 500 888 q 462 892 473 888 q 444 905 452 897 q 432 926 436 913 q 429 953 428 939 z "},"ǻ":{"ha":815,"x_min":50,"x_max":773,"o":"m 493 0 l 651 0 l 652 12 q 642 90 640 50 q 650 169 644 130 l 703 495 q 691 603 709 556 q 636 682 672 650 q 549 730 600 713 q 443 748 499 747 q 335 735 390 749 q 236 694 281 722 q 160 623 191 666 q 125 522 130 580 l 283 522 q 302 567 289 548 q 334 599 315 587 q 376 618 352 612 q 426 624 399 625 q 479 615 456 623 q 519 590 503 606 q 542 550 535 574 q 545 497 549 527 l 536 446 l 416 448 q 333 443 375 448 q 252 426 291 437 q 177 396 212 414 q 115 349 142 377 q 72 284 88 321 q 53 199 55 248 q 67 112 50 151 q 115 45 84 73 q 186 2 145 18 q 274 -14 228 -13 q 352 -4 315 -14 q 422 25 389 6 q 456 47 439 35 q 488 73 472 60 q 487 37 486 54 q 493 0 488 19 m 312 116 q 270 123 289 117 q 237 142 250 130 q 217 173 223 154 q 214 216 211 191 q 224 254 216 237 q 243 283 232 271 q 269 306 254 296 q 300 323 284 316 q 364 340 330 336 q 429 345 398 345 l 522 345 l 498 208 q 464 172 482 189 q 425 144 445 156 q 371 123 399 130 q 312 116 342 115 m 604 1211 l 471 1080 l 589 1079 l 773 1211 l 604 1211 m 368 925 q 378 879 368 900 q 404 843 387 858 q 442 819 420 827 q 488 811 463 811 q 536 820 513 811 q 576 846 559 829 q 603 885 593 863 q 613 933 613 907 q 604 979 613 958 q 579 1017 595 1000 q 542 1041 563 1032 q 496 1050 520 1050 q 447 1040 470 1050 q 406 1014 424 1030 q 378 974 389 997 q 368 925 368 951 m 431 926 q 436 951 431 939 q 450 970 441 962 q 470 984 458 979 q 494 989 481 989 q 516 984 506 989 q 535 972 527 979 q 547 954 543 964 q 552 931 552 943 q 547 907 552 918 q 534 888 542 896 q 514 875 525 880 q 490 870 503 870 q 467 874 478 870 q 448 886 456 879 q 435 904 440 894 q 431 926 431 914 z "},"ã":{"ha":815,"x_min":50,"x_max":737,"o":"m 493 0 l 651 0 l 652 12 q 642 90 640 50 q 650 169 644 130 l 703 495 q 691 603 709 556 q 636 682 672 650 q 549 730 600 713 q 443 748 499 747 q 335 735 390 749 q 236 694 281 722 q 160 623 191 666 q 125 522 130 580 l 283 522 q 302 567 289 548 q 334 599 315 587 q 376 618 352 612 q 426 624 399 625 q 479 615 456 623 q 519 590 503 606 q 542 550 535 574 q 545 497 549 527 l 536 446 l 416 448 q 333 443 375 448 q 252 426 291 437 q 177 396 212 414 q 115 349 142 377 q 72 284 88 321 q 53 199 55 248 q 67 112 50 151 q 115 45 84 73 q 186 2 145 18 q 274 -14 228 -13 q 352 -4 315 -14 q 422 25 389 6 q 456 47 439 35 q 488 73 472 60 q 487 37 486 54 q 493 0 488 19 m 312 116 q 270 123 289 117 q 237 142 250 130 q 217 173 223 154 q 214 216 211 191 q 224 254 216 237 q 243 283 232 271 q 269 306 254 296 q 300 323 284 316 q 364 340 330 336 q 429 345 398 345 l 522 345 l 498 208 q 464 172 482 189 q 425 144 445 156 q 371 123 399 130 q 312 116 342 115 m 737 1040 l 659 1059 q 648 1032 655 1045 q 630 1007 642 1019 q 609 994 621 998 q 583 988 597 989 q 536 998 558 987 q 493 1020 514 1008 q 449 1042 471 1031 q 402 1052 427 1052 q 341 1038 368 1052 q 296 1001 315 1024 q 265 948 277 977 q 251 888 254 919 l 332 871 q 342 898 336 884 q 358 920 349 911 q 379 935 367 929 q 407 941 391 941 q 454 932 432 942 q 496 910 475 922 q 540 888 518 898 q 588 878 562 878 q 648 891 622 878 q 694 928 675 905 q 724 980 713 951 q 737 1040 734 1009 z "},"ǽ":{"ha":815,"x_min":-9,"x_max":803,"o":"m 517 -13 q 567 -11 541 -14 q 618 -2 593 -9 q 667 14 644 3 q 710 41 690 25 l 686 156 q 651 140 668 147 q 616 127 634 132 q 586 120 602 123 q 553 119 570 118 q 496 132 519 119 q 463 165 473 144 q 450 207 452 183 q 451 259 448 231 l 460 320 l 771 320 l 793 462 q 795 574 803 524 q 766 662 787 624 q 707 722 744 699 q 616 747 670 745 q 531 732 570 748 q 456 688 492 717 q 389 735 427 722 q 307 749 350 748 q 216 735 258 749 q 142 693 174 720 q 92 626 111 665 q 68 536 73 586 l 220 530 q 229 563 222 547 q 245 591 235 579 q 269 610 254 603 q 303 616 283 617 q 332 607 321 616 q 347 585 342 598 q 351 556 351 572 q 349 526 351 540 l 332 436 l 310 436 q 195 424 251 437 q 96 381 140 411 q 25 304 53 351 q -7 193 -3 258 q 2 112 -9 149 q 36 47 12 74 q 93 3 58 19 q 172 -14 127 -13 q 227 -7 201 -14 q 275 14 252 1 q 311 41 294 25 q 345 74 329 56 q 377 35 359 51 q 418 9 396 19 q 466 -7 441 -3 q 517 -13 490 -12 m 593 617 q 627 607 614 616 q 646 583 640 597 q 654 551 652 568 q 654 517 656 534 l 643 435 l 474 435 l 482 479 q 493 527 486 503 q 513 572 500 552 q 545 605 526 593 q 593 617 564 618 m 214 109 q 183 115 196 109 q 163 133 171 121 q 152 158 155 144 q 151 189 149 173 q 168 243 155 218 q 203 287 182 269 q 250 315 224 305 q 306 326 277 326 l 323 325 l 284 140 q 268 130 276 135 q 251 119 260 124 q 234 113 243 115 q 214 109 224 110 m 583 1019 l 431 833 l 563 833 l 772 1019 l 583 1019 z "},"ć":{"ha":815,"x_min":73,"x_max":760,"o":"m 361 116 q 310 126 332 117 q 274 151 289 136 q 247 195 256 169 q 233 248 237 220 q 231 301 230 274 q 234 353 231 328 l 237 377 q 251 443 241 410 q 275 506 260 477 q 302 547 286 528 q 336 582 317 567 q 387 608 359 599 q 448 616 414 617 q 504 604 480 615 q 545 572 528 592 q 569 527 561 553 q 574 471 576 500 l 723 470 q 708 581 726 530 q 655 669 690 631 q 570 725 620 705 q 460 747 521 746 q 317 722 382 749 q 203 646 252 694 q 120 523 152 591 q 79 377 88 454 l 77 353 q 75 277 73 314 q 84 205 77 239 q 121 114 96 156 q 184 41 147 71 q 258 1 216 16 q 353 -14 300 -14 q 466 2 410 -16 q 568 54 522 20 q 644 135 614 87 q 678 243 674 183 l 530 242 q 508 189 524 212 q 469 149 492 165 q 418 124 446 132 q 361 116 391 115 m 570 1018 l 418 833 l 551 833 l 760 1018 l 570 1018 z "},"č":{"ha":815,"x_min":73,"x_max":759,"o":"m 361 116 q 310 126 332 117 q 274 151 289 136 q 247 195 256 169 q 233 248 237 220 q 231 301 230 274 q 234 353 231 328 l 237 377 q 251 443 241 410 q 275 506 260 477 q 302 547 286 528 q 336 582 317 567 q 387 608 359 599 q 448 616 414 617 q 504 604 480 615 q 545 572 528 592 q 569 527 561 553 q 574 471 576 500 l 723 470 q 708 581 726 530 q 655 669 690 631 q 570 725 620 705 q 460 747 521 746 q 317 722 382 749 q 203 646 252 694 q 120 523 152 591 q 79 377 88 454 l 77 353 q 75 277 73 314 q 84 205 77 239 q 121 114 96 156 q 184 41 147 71 q 258 1 216 16 q 353 -14 300 -14 q 466 2 410 -16 q 568 54 522 20 q 644 135 614 87 q 678 243 674 183 l 530 242 q 508 189 524 212 q 469 149 492 165 q 418 124 446 132 q 361 116 391 115 m 505 955 l 425 1047 l 294 1048 l 293 1032 l 453 865 l 553 865 l 758 1034 l 759 1048 l 619 1046 l 505 955 z "},"ç":{"ha":815,"x_min":73,"x_max":726,"o":"m 361 116 q 310 126 332 117 q 274 151 289 136 q 247 195 256 169 q 233 248 237 220 q 231 301 230 274 q 234 353 231 328 l 237 377 q 251 443 241 410 q 275 506 260 477 q 302 547 286 528 q 336 582 317 567 q 387 608 359 599 q 448 616 414 617 q 504 604 480 615 q 545 572 528 592 q 569 527 561 553 q 574 471 576 500 l 723 470 q 708 581 726 530 q 655 669 690 631 q 570 725 620 705 q 460 747 521 746 q 317 722 382 749 q 203 646 252 694 q 120 523 152 591 q 79 377 88 454 l 77 353 q 75 277 73 314 q 84 205 77 239 q 121 114 96 156 q 184 41 147 71 q 258 1 216 16 q 353 -14 300 -14 q 466 2 410 -16 q 568 54 522 20 q 644 135 614 87 q 678 243 674 183 l 530 242 q 508 189 524 212 q 469 149 492 165 q 418 124 446 132 q 361 116 391 115 m 399 4 l 282 3 l 252 -90 q 281 -92 264 -91 q 312 -98 298 -94 q 334 -114 326 -104 q 340 -143 342 -124 q 326 -175 336 -162 q 300 -194 315 -187 q 269 -205 286 -201 q 235 -209 252 -208 l 232 -304 q 284 -300 257 -303 q 338 -290 311 -296 q 388 -270 363 -282 q 430 -240 412 -258 q 457 -200 447 -224 q 468 -145 467 -176 q 462 -101 469 -121 q 442 -66 456 -81 q 417 -47 432 -55 q 385 -35 403 -39 l 399 4 z "},"ĉ":{"ha":815,"x_min":73,"x_max":727,"o":"m 361 116 q 310 126 332 117 q 274 151 289 136 q 247 195 256 169 q 233 248 237 220 q 231 301 230 274 q 234 353 231 328 l 237 377 q 251 443 241 410 q 275 506 260 477 q 302 547 286 528 q 336 582 317 567 q 387 608 359 599 q 448 616 414 617 q 504 604 480 615 q 545 572 528 592 q 569 527 561 553 q 574 471 576 500 l 723 470 q 708 581 726 530 q 655 669 690 631 q 570 725 620 705 q 460 747 521 746 q 317 722 382 749 q 203 646 252 694 q 120 523 152 591 q 79 377 88 454 l 77 353 q 75 277 73 314 q 84 205 77 239 q 121 114 96 156 q 184 41 147 71 q 258 1 216 16 q 353 -14 300 -14 q 466 2 410 -16 q 568 54 522 20 q 644 135 614 87 q 678 243 674 183 l 530 242 q 508 189 524 212 q 469 149 492 165 q 418 124 446 132 q 361 116 391 115 m 727 883 l 566 1046 l 475 1046 l 274 884 l 273 863 l 403 865 l 519 956 l 602 864 l 726 863 l 727 883 z "},"ď":{"ha":815,"x_min":20,"x_max":1042,"o":"m 26 368 l 24 353 q 22 271 20 313 q 33 189 24 229 q 60 112 43 148 q 103 48 77 75 q 166 4 130 20 q 252 -14 203 -13 q 320 -7 288 -15 q 380 17 352 1 q 418 43 399 28 q 453 76 436 58 l 441 -1 l 584 -1 l 765 1041 l 606 1041 l 536 663 q 509 692 523 680 q 478 715 494 705 q 424 738 453 730 q 362 747 394 746 q 266 733 309 748 q 186 692 222 718 q 124 628 151 665 q 77 548 96 591 q 44 459 57 505 q 26 368 32 413 m 183 353 l 184 367 q 204 454 190 410 q 243 534 218 498 q 304 593 267 570 q 391 614 340 615 q 434 608 414 614 q 469 590 453 602 q 496 563 484 579 q 517 526 508 547 l 461 208 q 432 174 448 190 q 399 147 416 159 q 354 126 378 133 q 301 119 330 119 q 250 131 271 120 q 215 159 229 142 q 195 195 202 175 q 184 239 188 216 q 179 297 179 267 q 183 353 180 327 m 1023 948 l 1042 1057 l 905 1057 l 886 947 q 851 837 876 888 q 792 739 827 787 l 867 686 q 924 740 898 710 q 970 804 950 770 q 1004 873 990 837 q 1023 948 1017 909 z "},"đ":{"ha":815,"x_min":59,"x_max":905,"o":"m 885 831 l 905 945 l 787 945 l 804 1042 l 645 1042 l 627 945 l 465 945 l 444 831 l 606 831 l 574 664 q 542 697 559 683 q 506 722 525 711 q 456 741 482 734 q 401 747 429 747 q 304 734 348 749 q 225 692 260 719 q 162 628 190 665 q 115 549 135 591 q 83 460 96 506 q 65 368 71 414 l 63 353 q 61 271 59 313 q 72 189 63 229 q 98 112 81 149 q 142 49 115 76 q 205 4 168 21 q 290 -14 242 -12 q 357 -6 326 -14 q 416 17 389 1 q 456 43 437 28 q 492 77 475 58 l 480 0 l 623 0 l 767 831 l 885 831 m 222 353 l 223 368 q 242 455 229 411 q 281 535 256 499 q 342 593 306 571 q 430 615 379 616 q 470 609 452 614 q 504 593 489 604 q 534 565 521 582 q 555 526 547 548 l 500 209 q 466 170 484 188 q 425 140 447 153 q 386 125 407 130 q 340 120 364 119 q 292 130 313 121 q 258 155 272 139 q 234 194 242 174 q 222 242 225 215 q 218 299 218 270 q 222 353 218 328 z "},"é":{"ha":815,"x_min":64,"x_max":743,"o":"m 372 -14 q 541 19 459 -14 q 673 122 623 53 l 594 207 q 501 140 553 164 q 389 118 449 116 q 315 135 347 119 q 263 179 283 152 q 233 242 243 206 q 227 317 224 277 l 717 317 l 728 387 q 725 520 736 456 q 681 635 713 585 q 594 715 648 685 q 463 747 540 745 q 361 735 410 749 q 271 695 313 721 q 204 642 235 673 q 149 574 174 610 q 99 476 119 529 q 74 368 80 423 l 71 339 q 82 203 64 267 q 140 92 100 139 q 239 16 180 44 q 372 -14 298 -13 m 453 616 q 514 601 488 614 q 557 564 540 587 q 579 512 573 542 q 581 449 586 482 l 578 434 l 243 435 q 276 502 257 469 q 321 561 295 535 q 379 602 346 587 q 453 616 412 618 m 553 1019 l 401 833 l 534 833 l 743 1019 l 553 1019 z "},"ĕ":{"ha":815,"x_min":64,"x_max":736,"o":"m 372 -14 q 541 19 459 -14 q 673 122 623 53 l 594 207 q 501 140 553 164 q 389 118 449 116 q 315 135 347 119 q 263 179 283 152 q 233 242 243 206 q 227 317 224 277 l 717 317 l 728 387 q 725 520 736 456 q 681 635 713 585 q 594 715 648 685 q 463 747 540 745 q 361 735 410 749 q 271 695 313 721 q 204 642 235 673 q 149 574 174 610 q 99 476 119 529 q 74 368 80 423 l 71 339 q 82 203 64 267 q 140 92 100 139 q 239 16 180 44 q 372 -14 298 -13 m 453 616 q 514 601 488 614 q 557 564 540 587 q 579 512 573 542 q 581 449 586 482 l 578 434 l 243 435 q 276 502 257 469 q 321 561 295 535 q 379 602 346 587 q 453 616 412 618 m 718 1044 l 600 1044 q 587 1005 596 1022 q 565 975 578 987 q 534 956 552 962 q 494 949 517 949 q 455 957 471 949 q 429 977 439 964 q 416 1007 420 990 q 413 1044 412 1024 l 296 1045 q 309 965 295 1000 q 350 905 323 930 q 413 867 376 881 q 492 853 449 854 q 577 865 538 852 q 647 902 616 878 q 696 963 677 926 q 718 1044 715 999 z "},"ě":{"ha":815,"x_min":64,"x_max":743,"o":"m 372 -14 q 541 19 459 -14 q 673 122 623 53 l 594 207 q 501 140 553 164 q 389 118 449 116 q 315 135 347 119 q 263 179 283 152 q 233 242 243 206 q 227 317 224 277 l 717 317 l 728 387 q 725 520 736 456 q 681 635 713 585 q 594 715 648 685 q 463 747 540 745 q 361 735 410 749 q 271 695 313 721 q 204 642 235 673 q 149 574 174 610 q 99 476 119 529 q 74 368 80 423 l 71 339 q 82 203 64 267 q 140 92 100 139 q 239 16 180 44 q 372 -14 298 -13 m 453 616 q 514 601 488 614 q 557 564 540 587 q 579 512 573 542 q 581 449 586 482 l 578 434 l 243 435 q 276 502 257 469 q 321 561 295 535 q 379 602 346 587 q 453 616 412 618 m 488 956 l 408 1048 l 278 1049 l 277 1033 l 437 865 l 536 865 l 742 1034 l 743 1049 l 603 1047 l 488 956 z "},"ê":{"ha":815,"x_min":64,"x_max":736,"o":"m 372 -14 q 541 19 459 -14 q 673 122 623 53 l 594 207 q 501 140 553 164 q 389 118 449 116 q 315 135 347 119 q 263 179 283 152 q 233 242 243 206 q 227 317 224 277 l 717 317 l 728 387 q 725 520 736 456 q 681 635 713 585 q 594 715 648 685 q 463 747 540 745 q 361 735 410 749 q 271 695 313 721 q 204 642 235 673 q 149 574 174 610 q 99 476 119 529 q 74 368 80 423 l 71 339 q 82 203 64 267 q 140 92 100 139 q 239 16 180 44 q 372 -14 298 -13 m 453 616 q 514 601 488 614 q 557 564 540 587 q 579 512 573 542 q 581 449 586 482 l 578 434 l 243 435 q 276 502 257 469 q 321 561 295 535 q 379 602 346 587 q 453 616 412 618 m 711 884 l 550 1046 l 458 1046 l 258 884 l 256 864 l 387 865 l 503 957 l 586 865 l 709 864 l 711 884 z "},"ë":{"ha":815,"x_min":64,"x_max":736,"o":"m 372 -14 q 541 19 459 -14 q 673 122 623 53 l 594 207 q 501 140 553 164 q 389 118 449 116 q 315 135 347 119 q 263 179 283 152 q 233 242 243 206 q 227 317 224 277 l 717 317 l 728 387 q 725 520 736 456 q 681 635 713 585 q 594 715 648 685 q 463 747 540 745 q 361 735 410 749 q 271 695 313 721 q 204 642 235 673 q 149 574 174 610 q 99 476 119 529 q 74 368 80 423 l 71 339 q 82 203 64 267 q 140 92 100 139 q 239 16 180 44 q 372 -14 298 -13 m 453 616 q 514 601 488 614 q 557 564 540 587 q 579 512 573 542 q 581 449 586 482 l 578 434 l 243 435 q 276 502 257 469 q 321 561 295 535 q 379 602 346 587 q 453 616 412 618 m 257 943 q 280 888 256 909 q 340 867 304 866 q 397 890 374 867 q 422 948 421 912 q 397 1004 422 983 q 339 1026 372 1026 q 281 1002 304 1025 q 257 943 257 979 m 559 943 q 583 886 559 908 q 641 865 607 865 q 700 889 675 866 q 724 947 724 912 q 699 1004 724 983 q 641 1025 673 1026 q 582 1001 606 1024 q 559 943 559 978 z "},"ė":{"ha":815,"x_min":64,"x_max":736,"o":"m 372 -14 q 541 19 459 -14 q 673 122 623 53 l 594 207 q 501 140 553 164 q 389 118 449 116 q 315 135 347 119 q 263 179 283 152 q 233 242 243 206 q 227 317 224 277 l 717 317 l 728 387 q 725 520 736 456 q 681 635 713 585 q 594 715 648 685 q 463 747 540 745 q 361 735 410 749 q 271 695 313 721 q 204 642 235 673 q 149 574 174 610 q 99 476 119 529 q 74 368 80 423 l 71 339 q 82 203 64 267 q 140 92 100 139 q 239 16 180 44 q 372 -14 298 -13 m 453 616 q 514 601 488 614 q 557 564 540 587 q 579 512 573 542 q 581 449 586 482 l 578 434 l 243 435 q 276 502 257 469 q 321 561 295 535 q 379 602 346 587 q 453 616 412 618 m 405 945 q 431 883 405 907 q 494 861 457 859 q 557 886 532 861 q 584 950 583 911 q 558 1013 584 989 q 494 1035 532 1036 q 430 1009 454 1034 q 405 945 406 983 z "},"è":{"ha":815,"x_min":64,"x_max":736,"o":"m 372 -14 q 541 19 459 -14 q 673 122 623 53 l 594 207 q 501 140 553 164 q 389 118 449 116 q 315 135 347 119 q 263 179 283 152 q 233 242 243 206 q 227 317 224 277 l 717 317 l 728 387 q 725 520 736 456 q 681 635 713 585 q 594 715 648 685 q 463 747 540 745 q 361 735 410 749 q 271 695 313 721 q 204 642 235 673 q 149 574 174 610 q 99 476 119 529 q 74 368 80 423 l 71 339 q 82 203 64 267 q 140 92 100 139 q 239 16 180 44 q 372 -14 298 -13 m 453 616 q 514 601 488 614 q 557 564 540 587 q 579 512 573 542 q 581 449 586 482 l 578 434 l 243 435 q 276 502 257 469 q 321 561 295 535 q 379 602 346 587 q 453 616 412 618 m 538 836 l 450 1021 l 281 1021 l 421 836 l 538 836 z "},"ē":{"ha":815,"x_min":64,"x_max":741,"o":"m 372 -14 q 541 19 459 -14 q 673 122 623 53 l 594 207 q 501 140 553 164 q 389 118 449 116 q 315 135 347 119 q 263 179 283 152 q 233 242 243 206 q 227 317 224 277 l 717 317 l 728 387 q 725 520 736 456 q 681 635 713 585 q 594 715 648 685 q 463 747 540 745 q 361 735 410 749 q 271 695 313 721 q 204 642 235 673 q 149 574 174 610 q 99 476 119 529 q 74 368 80 423 l 71 339 q 82 203 64 267 q 140 92 100 139 q 239 16 180 44 q 372 -14 298 -13 m 453 616 q 514 601 488 614 q 557 564 540 587 q 579 512 573 542 q 581 449 586 482 l 578 434 l 243 435 q 276 502 257 469 q 321 561 295 535 q 379 602 346 587 q 453 616 412 618 m 724 885 l 741 990 l 264 990 l 247 885 l 724 885 z "},"ŋ":{"ha":815,"x_min":37,"x_max":713,"o":"m 37 0 l 195 0 l 290 540 q 320 569 304 556 q 355 592 337 582 q 399 608 376 602 q 450 613 423 614 q 507 599 486 612 q 539 564 528 585 q 551 513 549 541 q 549 454 552 485 l 468 -41 q 456 -86 464 -64 q 436 -125 449 -108 q 404 -152 422 -142 q 359 -163 385 -163 q 325 -160 342 -163 q 292 -153 308 -157 l 268 -285 q 313 -294 290 -290 q 358 -298 335 -297 q 465 -279 418 -298 q 545 -226 511 -260 q 599 -145 578 -192 q 627 -41 620 -98 l 707 455 q 707 562 713 509 q 679 654 701 614 q 616 721 657 695 q 513 747 576 746 q 430 734 469 748 q 359 697 392 721 q 325 666 341 683 q 293 630 308 649 l 309 734 l 164 734 l 37 0 z "},"ę":{"ha":815,"x_min":64,"x_max":736,"o":"m 673 122 l 594 207 q 501 140 553 164 q 389 118 449 116 q 315 135 347 119 q 263 179 283 152 q 235 234 245 203 q 226 300 226 265 q 226 307 226 304 q 227 313 227 310 l 227 317 l 717 317 l 728 387 q 725 520 736 456 q 681 635 713 585 q 594 715 648 685 q 463 747 540 745 q 360 734 409 749 q 269 694 311 720 q 198 636 231 669 q 142 564 166 602 q 97 470 114 519 q 74 368 79 420 l 71 339 q 80 212 64 272 q 129 106 95 152 q 213 28 162 59 q 330 -10 264 -2 q 330 -10 330 -10 q 330 -10 330 -10 q 280 -71 300 -37 q 259 -145 260 -104 q 268 -199 258 -175 q 294 -241 277 -223 q 335 -266 311 -257 q 386 -275 358 -275 q 446 -269 416 -276 q 503 -248 475 -262 l 482 -151 q 453 -162 468 -157 q 422 -165 437 -167 q 394 -154 403 -165 q 388 -123 386 -142 q 399 -82 389 -100 q 424 -47 409 -63 q 457 -20 439 -33 q 494 2 475 -8 q 593 47 547 17 q 673 122 640 77 m 453 616 q 514 601 488 614 q 557 564 540 587 q 579 512 573 542 q 581 449 586 482 l 578 434 l 243 435 q 276 502 257 469 q 321 561 295 535 q 379 602 346 587 q 453 616 412 618 z "},"ğ":{"ha":815,"x_min":23,"x_max":766,"o":"m 76 368 l 74 353 q 72 271 70 313 q 84 188 74 228 q 111 111 93 147 q 156 48 128 75 q 220 4 182 20 q 306 -14 258 -13 q 370 -7 340 -14 q 427 14 400 0 q 465 37 447 24 q 499 67 482 51 l 488 15 q 461 -58 479 -25 q 416 -114 443 -91 q 353 -150 389 -138 q 275 -161 318 -162 q 180 -135 222 -159 q 107 -69 138 -111 l 23 -166 q 135 -256 67 -225 q 277 -289 203 -288 q 413 -270 350 -291 q 524 -208 475 -249 q 603 -110 572 -168 q 645 20 635 -52 l 766 734 l 621 734 l 597 659 q 570 690 585 676 q 540 713 555 704 q 482 739 513 730 q 416 747 450 747 q 319 734 363 749 q 239 693 275 720 q 176 629 203 666 q 127 550 148 593 q 94 460 107 507 q 76 368 81 414 m 233 353 l 235 368 q 255 455 240 411 q 295 536 270 500 q 357 594 320 572 q 446 615 395 616 q 489 608 469 614 q 525 591 509 602 q 552 565 540 581 q 572 530 564 549 l 516 206 q 484 170 501 186 q 448 143 467 154 q 405 125 429 132 q 355 120 382 119 q 303 132 325 121 q 267 161 281 143 q 244 202 252 179 q 233 252 236 226 q 230 304 229 277 q 233 353 230 330 m 712 1044 l 594 1043 q 581 1004 590 1021 q 559 974 572 987 q 528 955 546 962 q 488 948 511 948 q 449 956 465 949 q 423 977 433 964 q 410 1006 414 989 q 407 1044 406 1023 l 290 1044 q 303 964 289 1000 q 344 905 317 929 q 407 867 370 880 q 486 852 443 853 q 571 864 532 852 q 641 901 610 877 q 690 962 671 926 q 712 1044 709 998 z "},"ĝ":{"ha":815,"x_min":23,"x_max":766,"o":"m 76 368 l 74 353 q 72 271 70 313 q 84 188 74 228 q 111 111 93 147 q 156 48 128 75 q 220 4 182 20 q 306 -14 258 -13 q 370 -7 340 -14 q 427 14 400 0 q 465 37 447 24 q 499 67 482 51 l 488 15 q 461 -58 479 -25 q 416 -114 443 -91 q 353 -150 389 -138 q 275 -161 318 -162 q 180 -135 222 -159 q 107 -69 138 -111 l 23 -166 q 135 -256 67 -225 q 277 -289 203 -288 q 413 -270 350 -291 q 524 -208 475 -249 q 603 -110 572 -168 q 645 20 635 -52 l 766 734 l 621 734 l 597 659 q 570 690 585 676 q 540 713 555 704 q 482 739 513 730 q 416 747 450 747 q 319 734 363 749 q 239 693 275 720 q 176 629 203 666 q 127 550 148 593 q 94 460 107 507 q 76 368 81 414 m 233 353 l 235 368 q 255 455 240 411 q 295 536 270 500 q 357 594 320 572 q 446 615 395 616 q 489 608 469 614 q 525 591 509 602 q 552 565 540 581 q 572 530 564 549 l 516 206 q 484 170 501 186 q 448 143 467 154 q 405 125 429 132 q 355 120 382 119 q 303 132 325 121 q 267 161 281 143 q 244 202 252 179 q 233 252 236 226 q 230 304 229 277 q 233 353 230 330 m 705 883 l 545 1046 l 453 1046 l 252 884 l 251 863 l 381 865 l 497 956 l 581 864 l 704 863 l 705 883 z "},"ģ":{"ha":815,"x_min":23,"x_max":766,"o":"m 76 368 l 74 353 q 72 271 70 313 q 84 188 74 228 q 111 111 93 147 q 156 48 128 75 q 220 4 182 20 q 306 -14 258 -13 q 370 -7 340 -14 q 427 14 400 0 q 465 37 447 24 q 499 67 482 51 l 488 15 q 461 -58 479 -25 q 416 -114 443 -91 q 353 -150 389 -138 q 275 -161 318 -162 q 180 -135 222 -159 q 107 -69 138 -111 l 23 -166 q 135 -256 67 -225 q 277 -289 203 -288 q 413 -270 350 -291 q 524 -208 475 -249 q 603 -110 572 -168 q 645 20 635 -52 l 766 734 l 621 734 l 597 659 q 570 690 585 676 q 540 713 555 704 q 482 739 513 730 q 416 747 450 747 q 319 734 363 749 q 239 693 275 720 q 176 629 203 666 q 127 550 148 593 q 94 460 107 507 q 76 368 81 414 m 233 353 l 235 368 q 255 455 240 411 q 295 536 270 500 q 357 594 320 572 q 446 615 395 616 q 489 608 469 614 q 525 591 509 602 q 552 565 540 581 q 572 530 564 549 l 516 206 q 484 170 501 186 q 448 143 467 154 q 405 125 429 132 q 355 120 382 119 q 303 132 325 121 q 267 161 281 143 q 244 202 252 179 q 233 252 236 226 q 230 304 229 277 q 233 353 230 330 m 416 941 l 403 852 l 539 852 l 554 935 q 581 1020 563 980 q 624 1099 599 1060 l 539 1155 q 492 1112 513 1136 q 456 1061 471 1088 q 431 1003 441 1034 q 416 941 420 972 z "},"ħ":{"ha":815,"x_min":41,"x_max":741,"o":"m 515 830 l 536 943 l 361 943 l 380 1042 l 222 1042 l 205 943 l 95 943 l 75 830 l 185 830 l 41 0 l 199 0 l 292 532 q 330 566 310 551 q 371 593 349 582 q 415 608 392 603 q 464 613 438 614 q 523 599 500 612 q 560 566 547 587 q 577 515 574 543 q 577 454 581 486 l 500 0 l 659 0 l 734 452 q 732 562 741 509 q 700 656 724 614 q 632 722 675 696 q 526 747 589 747 q 463 740 492 747 q 406 718 433 732 q 350 680 376 703 q 302 628 324 656 l 340 830 l 515 830 z "},"ĥ":{"ha":815,"x_min":31,"x_max":730,"o":"m 292 628 l 370 1042 l 212 1042 l 31 0 l 189 0 l 282 532 q 318 565 299 550 q 358 591 337 581 q 404 608 380 602 q 454 613 427 614 q 513 599 490 612 q 550 565 536 587 q 567 515 564 543 q 567 454 570 486 l 490 0 l 649 0 l 724 452 q 722 562 730 509 q 690 656 714 614 q 622 722 665 696 q 515 747 579 747 q 439 736 475 748 q 373 704 404 724 q 330 670 350 689 q 292 628 309 650 m 722 1150 l 561 1313 l 469 1313 l 269 1151 l 267 1131 l 397 1132 l 513 1223 l 597 1131 l 720 1131 l 722 1150 z "},"í":{"ha":815,"x_min":61,"x_max":778,"o":"m 189 734 l 165 599 l 390 599 l 310 134 l 85 134 l 61 0 l 661 0 l 685 134 l 469 134 l 573 734 l 189 734 m 589 1002 l 437 817 l 569 817 l 778 1002 l 589 1002 z "},"ĭ":{"ha":815,"x_min":61,"x_max":753,"o":"m 189 734 l 165 599 l 390 599 l 310 134 l 85 134 l 61 0 l 661 0 l 685 134 l 469 134 l 573 734 l 189 734 m 753 1027 l 635 1027 q 622 988 631 1005 q 600 958 613 970 q 569 939 587 945 q 528 932 551 932 q 489 940 505 932 q 464 960 473 947 q 451 990 454 973 q 448 1027 447 1007 l 330 1028 q 344 948 330 983 q 385 888 358 913 q 447 850 411 864 q 527 836 484 837 q 612 848 572 836 q 682 885 651 861 q 730 946 711 909 q 753 1027 749 982 z "},"î":{"ha":815,"x_min":61,"x_max":746,"o":"m 189 734 l 165 599 l 390 599 l 310 134 l 85 134 l 61 0 l 661 0 l 685 134 l 469 134 l 573 734 l 189 734 m 746 867 l 585 1029 l 494 1029 l 293 867 l 292 847 l 422 848 l 538 940 l 621 848 l 745 847 l 746 867 z "},"ï":{"ha":815,"x_min":61,"x_max":758,"o":"m 189 734 l 165 599 l 390 599 l 310 134 l 85 134 l 61 0 l 661 0 l 685 134 l 469 134 l 573 734 l 189 734 m 292 926 q 315 871 291 892 q 374 850 339 849 q 432 873 408 850 q 456 931 456 895 q 432 987 456 966 q 374 1009 407 1009 q 315 985 339 1008 q 292 926 292 962 m 593 926 q 617 869 593 891 q 675 848 642 848 q 734 872 710 849 q 758 930 758 895 q 733 987 758 966 q 675 1008 708 1009 q 617 984 640 1007 q 593 926 593 961 z "},"ì":{"ha":815,"x_min":61,"x_max":685,"o":"m 189 734 l 165 599 l 390 599 l 310 134 l 85 134 l 61 0 l 661 0 l 685 134 l 469 134 l 573 734 l 189 734 m 573 819 l 486 1004 l 316 1004 l 456 819 l 573 819 z "},"ī":{"ha":815,"x_min":61,"x_max":776,"o":"m 189 734 l 165 599 l 390 599 l 310 134 l 85 134 l 61 0 l 661 0 l 685 134 l 469 134 l 573 734 l 189 734 m 759 869 l 776 974 l 299 974 l 282 869 l 759 869 z "},"į":{"ha":815,"x_min":67,"x_max":679,"o":"m 195 734 l 171 599 l 390 599 l 310 134 l 91 134 l 67 0 l 277 0 q 239 -31 257 -14 q 207 -68 220 -48 q 185 -111 193 -88 q 176 -159 176 -134 q 184 -212 175 -189 q 209 -253 193 -236 q 250 -279 226 -270 q 302 -290 273 -289 q 362 -283 333 -290 q 419 -262 392 -277 l 399 -165 q 369 -176 385 -171 q 339 -180 354 -181 q 311 -168 319 -179 q 304 -137 302 -157 q 319 -91 307 -112 q 349 -54 331 -71 q 388 -25 367 -38 q 431 -2 410 -12 l 426 0 l 655 0 l 679 134 l 469 134 l 573 734 l 195 734 m 432 921 q 439 886 432 902 q 457 859 446 870 q 487 841 469 847 q 524 835 504 834 q 562 842 545 835 q 591 862 579 849 q 610 890 603 874 q 616 926 616 907 q 609 962 616 946 q 590 990 602 979 q 561 1008 578 1002 q 525 1014 545 1015 q 489 1006 505 1013 q 459 987 472 1000 q 440 958 447 975 q 432 921 433 941 z "},"ĩ":{"ha":815,"x_min":61,"x_max":773,"o":"m 189 734 l 165 599 l 390 599 l 310 134 l 85 134 l 61 0 l 661 0 l 685 134 l 469 134 l 573 734 l 189 734 m 773 1023 l 695 1042 q 684 1016 691 1029 q 666 991 677 1003 q 645 977 657 982 q 619 972 633 972 q 572 981 594 971 q 529 1004 550 991 q 485 1025 507 1015 q 438 1036 463 1036 q 377 1022 404 1036 q 332 985 351 1008 q 301 932 313 961 q 287 872 290 903 l 368 854 q 378 881 372 868 q 394 904 385 895 q 415 919 403 913 q 443 925 427 924 q 490 916 468 926 q 532 894 511 906 q 576 871 554 882 q 624 861 598 861 q 684 875 658 861 q 730 912 711 889 q 760 964 749 935 q 773 1023 770 993 z "},"ĵ":{"ha":815,"x_min":20,"x_max":782,"o":"m 247 734 l 222 599 l 428 599 l 325 -12 q 304 -77 319 -48 q 268 -125 290 -106 q 217 -154 246 -144 q 151 -163 187 -164 q 96 -160 123 -163 q 42 -153 69 -158 l 20 -286 q 85 -294 53 -292 q 151 -298 118 -297 q 278 -279 221 -298 q 378 -224 336 -260 q 448 -134 420 -188 q 484 -12 475 -81 l 611 734 l 247 734 m 782 859 l 621 1021 l 530 1021 l 329 859 l 328 839 l 458 840 l 574 932 l 657 840 l 781 839 l 782 859 z "},"ķ":{"ha":815,"x_min":33,"x_max":792,"o":"m 337 318 l 508 0 l 694 0 l 454 421 l 792 734 l 589 734 l 340 506 l 267 437 l 372 1042 l 214 1042 l 33 0 l 191 0 l 231 230 l 337 318 m 358 -90 l 363 -43 l 241 -43 l 234 -92 q 205 -186 226 -142 q 156 -272 185 -230 l 229 -324 q 316 -219 282 -280 q 358 -90 350 -159 z "},"ĺ":{"ha":815,"x_min":61,"x_max":823,"o":"m 242 1042 l 218 907 l 444 907 l 310 134 l 85 134 l 61 0 l 661 0 l 685 134 l 469 134 l 627 1042 l 242 1042 m 633 1284 l 481 1099 l 614 1099 l 823 1284 l 633 1284 z "},"ľ":{"ha":815,"x_min":12,"x_max":880,"o":"m 193 1042 l 168 907 l 394 907 l 260 134 l 35 134 l 12 0 l 612 0 l 635 134 l 420 134 l 577 1042 l 193 1042 m 861 935 l 880 1044 l 743 1044 l 724 934 q 689 824 713 875 q 630 726 665 774 l 705 673 q 762 727 736 697 q 808 791 788 757 q 842 860 828 824 q 861 935 855 897 z "},"ļ":{"ha":815,"x_min":61,"x_max":685,"o":"m 242 1042 l 218 907 l 444 907 l 310 134 l 85 134 l 61 0 l 661 0 l 685 134 l 469 134 l 627 1042 l 242 1042 m 420 -82 l 425 -36 l 303 -36 l 296 -85 q 268 -179 288 -135 q 218 -264 248 -222 l 292 -317 q 378 -212 345 -273 q 420 -82 412 -151 z "},"ŀ":{"ha":815,"x_min":12,"x_max":741,"o":"m 193 1042 l 168 907 l 394 907 l 260 134 l 35 134 l 12 0 l 612 0 l 635 134 l 420 134 l 577 1042 l 193 1042 m 562 551 q 588 489 562 513 q 651 467 614 465 q 714 492 688 467 q 741 556 740 517 q 715 618 741 595 q 651 641 689 642 q 587 615 611 640 q 562 551 562 589 z "},"ł":{"ha":815,"x_min":66,"x_max":772,"o":"m 248 1042 l 223 907 l 449 907 l 397 609 l 168 511 l 145 380 l 375 479 l 315 134 l 90 134 l 66 0 l 667 0 l 690 134 l 475 134 l 547 551 l 750 638 l 772 768 l 569 682 l 632 1042 l 248 1042 z "},"ń":{"ha":815,"x_min":31,"x_max":741,"o":"m 31 0 l 189 0 l 281 524 q 315 561 297 544 q 354 589 334 578 q 400 608 376 602 q 451 614 424 614 q 512 601 488 613 q 549 568 536 589 q 565 518 562 547 q 565 456 568 490 l 489 0 l 647 0 l 723 454 q 722 564 730 511 q 690 657 713 617 q 624 722 665 698 q 519 747 582 746 q 443 738 479 748 q 376 708 407 728 q 328 673 351 693 q 286 629 306 652 l 300 734 l 158 734 l 31 0 m 551 1018 l 399 833 l 532 833 l 741 1018 l 551 1018 z "},"ň":{"ha":815,"x_min":31,"x_max":741,"o":"m 31 0 l 189 0 l 281 524 q 315 561 297 544 q 354 589 334 578 q 400 608 376 602 q 451 614 424 614 q 512 601 488 613 q 549 568 536 589 q 565 518 562 547 q 565 456 568 490 l 489 0 l 647 0 l 723 454 q 722 564 730 511 q 690 657 713 617 q 624 722 665 698 q 519 747 582 746 q 443 738 479 748 q 376 708 407 728 q 328 673 351 693 q 286 629 306 652 l 300 734 l 158 734 l 31 0 m 487 955 l 407 1047 l 277 1048 l 275 1032 l 435 865 l 535 865 l 741 1034 l 741 1048 l 602 1046 l 487 955 z "},"ņ":{"ha":815,"x_min":31,"x_max":730,"o":"m 31 0 l 189 0 l 281 524 q 315 561 297 544 q 354 589 334 578 q 400 608 376 602 q 451 614 424 614 q 512 601 488 613 q 549 568 536 589 q 565 518 562 547 q 565 456 568 490 l 489 0 l 647 0 l 723 454 q 722 564 730 511 q 690 657 713 617 q 624 722 665 698 q 519 747 582 746 q 443 738 479 748 q 376 708 407 728 q 328 673 351 693 q 286 629 306 652 l 300 734 l 158 734 l 31 0 m 382 -83 l 387 -37 l 264 -37 l 258 -85 q 229 -179 250 -136 q 180 -265 209 -223 l 253 -317 q 340 -213 306 -273 q 382 -83 374 -152 z "},"ñ":{"ha":815,"x_min":31,"x_max":736,"o":"m 31 0 l 189 0 l 281 524 q 315 561 297 544 q 354 589 334 578 q 400 608 376 602 q 451 614 424 614 q 512 601 488 613 q 549 568 536 589 q 565 518 562 547 q 565 456 568 490 l 489 0 l 647 0 l 723 454 q 722 564 730 511 q 690 657 713 617 q 624 722 665 698 q 519 747 582 746 q 443 738 479 748 q 376 708 407 728 q 328 673 351 693 q 286 629 306 652 l 300 734 l 158 734 l 31 0 m 736 1040 l 658 1059 q 647 1032 654 1045 q 629 1007 640 1019 q 608 994 620 998 q 582 988 596 989 q 535 998 557 987 q 492 1020 513 1008 q 448 1042 470 1031 q 401 1052 426 1052 q 340 1038 367 1052 q 295 1001 313 1024 q 264 948 275 977 q 250 888 252 919 l 330 871 q 341 898 334 884 q 357 920 347 911 q 378 935 366 929 q 406 941 390 941 q 452 932 431 942 q 495 910 474 922 q 539 888 517 898 q 587 878 561 878 q 647 891 621 878 q 692 928 673 905 q 722 980 711 951 q 736 1040 733 1009 z "},"ó":{"ha":815,"x_min":60,"x_max":749,"o":"m 67 369 l 66 355 q 65 257 60 304 q 86 167 71 209 q 116 108 98 135 q 157 56 134 81 q 237 6 189 26 q 344 -14 285 -13 q 492 14 425 -16 q 608 96 558 44 q 687 216 656 147 q 727 361 718 285 l 728 376 q 729 474 734 426 q 709 565 724 522 q 676 629 696 600 q 629 684 656 659 q 552 729 597 712 q 450 747 507 747 q 303 720 369 749 q 189 640 237 690 q 107 517 138 587 q 67 369 77 446 m 224 355 l 225 369 q 246 457 231 412 q 288 537 262 501 q 351 596 313 574 q 440 616 389 618 q 512 593 484 614 q 553 540 539 572 q 572 458 570 502 q 570 375 574 414 l 568 361 q 548 276 564 322 q 507 194 532 229 q 442 136 480 158 q 354 115 404 114 q 280 139 309 117 q 239 194 252 161 q 222 272 224 229 q 224 355 219 315 m 559 1018 l 408 833 l 540 833 l 749 1018 l 559 1018 z "},"ŏ":{"ha":815,"x_min":60,"x_max":734,"o":"m 67 369 l 66 355 q 65 257 60 304 q 86 167 71 209 q 116 108 98 135 q 157 56 134 81 q 237 6 189 26 q 344 -14 285 -13 q 492 14 425 -16 q 608 96 558 44 q 687 216 656 147 q 727 361 718 285 l 728 376 q 729 474 734 426 q 709 565 724 522 q 676 629 696 600 q 629 684 656 659 q 552 729 597 712 q 450 747 507 747 q 303 720 369 749 q 189 640 237 690 q 107 517 138 587 q 67 369 77 446 m 224 355 l 225 369 q 246 457 231 412 q 288 537 262 501 q 351 596 313 574 q 440 616 389 618 q 512 593 484 614 q 553 540 539 572 q 572 458 570 502 q 570 375 574 414 l 568 361 q 548 276 564 322 q 507 194 532 229 q 442 136 480 158 q 354 115 404 114 q 280 139 309 117 q 239 194 252 161 q 222 272 224 229 q 224 355 219 315 m 724 1044 l 606 1043 q 593 1004 602 1021 q 570 974 584 987 q 540 955 557 962 q 499 948 522 948 q 460 956 476 949 q 435 977 444 964 q 421 1006 425 989 q 418 1044 418 1023 l 301 1044 q 315 964 300 1000 q 355 905 329 929 q 418 867 382 880 q 498 852 454 853 q 583 864 543 852 q 652 901 622 877 q 701 962 682 926 q 724 1044 720 998 z "},"ô":{"ha":815,"x_min":60,"x_max":734,"o":"m 67 369 l 66 355 q 65 257 60 304 q 86 167 71 209 q 116 108 98 135 q 157 56 134 81 q 237 6 189 26 q 344 -14 285 -13 q 492 14 425 -16 q 608 96 558 44 q 687 216 656 147 q 727 361 718 285 l 728 376 q 729 474 734 426 q 709 565 724 522 q 676 629 696 600 q 629 684 656 659 q 552 729 597 712 q 450 747 507 747 q 303 720 369 749 q 189 640 237 690 q 107 517 138 587 q 67 369 77 446 m 224 355 l 225 369 q 246 457 231 412 q 288 537 262 501 q 351 596 313 574 q 440 616 389 618 q 512 593 484 614 q 553 540 539 572 q 572 458 570 502 q 570 375 574 414 l 568 361 q 548 276 564 322 q 507 194 532 229 q 442 136 480 158 q 354 115 404 114 q 280 139 309 117 q 239 194 252 161 q 222 272 224 229 q 224 355 219 315 m 717 883 l 556 1046 l 465 1046 l 264 884 l 262 863 l 393 865 l 509 956 l 592 864 l 715 863 l 717 883 z "},"ö":{"ha":815,"x_min":60,"x_max":734,"o":"m 67 369 l 66 355 q 65 257 60 304 q 86 167 71 209 q 116 108 98 135 q 157 56 134 81 q 237 6 189 26 q 344 -14 285 -13 q 492 14 425 -16 q 608 96 558 44 q 687 216 656 147 q 727 361 718 285 l 728 376 q 729 474 734 426 q 709 565 724 522 q 676 629 696 600 q 629 684 656 659 q 552 729 597 712 q 450 747 507 747 q 303 720 369 749 q 189 640 237 690 q 107 517 138 587 q 67 369 77 446 m 224 355 l 225 369 q 246 457 231 412 q 288 537 262 501 q 351 596 313 574 q 440 616 389 618 q 512 593 484 614 q 553 540 539 572 q 572 458 570 502 q 570 375 574 414 l 568 361 q 548 276 564 322 q 507 194 532 229 q 442 136 480 158 q 354 115 404 114 q 280 139 309 117 q 239 194 252 161 q 222 272 224 229 q 224 355 219 315 m 263 943 q 287 887 262 909 q 346 866 311 865 q 404 889 380 867 q 428 947 427 911 q 403 1004 428 982 q 345 1025 378 1025 q 287 1001 311 1024 q 263 943 263 978 m 565 943 q 589 886 565 907 q 647 865 613 864 q 706 888 682 865 q 730 947 730 911 q 705 1004 730 982 q 647 1025 680 1025 q 588 1000 612 1023 q 565 943 565 977 z "},"ò":{"ha":815,"x_min":60,"x_max":734,"o":"m 67 369 l 66 355 q 65 257 60 304 q 86 167 71 209 q 116 108 98 135 q 157 56 134 81 q 237 6 189 26 q 344 -14 285 -13 q 492 14 425 -16 q 608 96 558 44 q 687 216 656 147 q 727 361 718 285 l 728 376 q 729 474 734 426 q 709 565 724 522 q 676 629 696 600 q 629 684 656 659 q 552 729 597 712 q 450 747 507 747 q 303 720 369 749 q 189 640 237 690 q 107 517 138 587 q 67 369 77 446 m 224 355 l 225 369 q 246 457 231 412 q 288 537 262 501 q 351 596 313 574 q 440 616 389 618 q 512 593 484 614 q 553 540 539 572 q 572 458 570 502 q 570 375 574 414 l 568 361 q 548 276 564 322 q 507 194 532 229 q 442 136 480 158 q 354 115 404 114 q 280 139 309 117 q 239 194 252 161 q 222 272 224 229 q 224 355 219 315 m 543 835 l 456 1020 l 286 1020 l 427 835 l 543 835 z "},"ơ":{"ha":815,"x_min":54,"x_max":848,"o":"m 705 720 q 679 687 694 701 q 644 665 665 672 q 561 724 610 702 q 446 747 511 746 q 341 734 390 749 q 250 694 292 720 q 183 637 214 670 q 129 566 152 604 q 86 472 103 522 q 63 369 70 422 l 62 355 q 67 218 54 283 q 116 101 81 152 q 152 58 132 77 q 197 24 173 38 q 262 -4 227 6 q 340 -14 298 -14 q 488 14 421 -16 q 604 96 554 44 q 683 216 652 147 q 723 361 713 285 l 725 376 q 724 482 730 430 q 699 578 718 534 q 760 615 733 592 q 806 668 787 637 q 833 730 823 695 q 848 805 844 764 l 731 804 q 721 760 727 781 q 705 720 714 738 m 566 375 l 564 363 q 543 273 558 317 q 503 194 528 229 q 438 136 476 158 q 350 115 401 114 q 293 129 317 117 q 254 162 269 142 q 220 247 227 197 q 220 355 214 297 l 221 369 q 242 457 227 412 q 283 537 258 501 q 348 596 310 574 q 436 616 385 618 q 486 606 465 615 q 522 581 507 596 q 544 546 535 566 q 559 505 553 527 q 568 440 568 474 q 566 375 569 406 z "},"ő":{"ha":815,"x_min":60,"x_max":878,"o":"m 67 369 l 66 355 q 65 257 60 304 q 86 167 71 209 q 116 108 98 135 q 157 56 134 81 q 237 6 189 26 q 344 -14 285 -13 q 492 14 425 -16 q 608 96 558 44 q 687 216 656 147 q 727 361 718 285 l 728 376 q 729 474 734 426 q 709 565 724 522 q 676 629 696 600 q 629 684 656 659 q 552 729 597 712 q 450 747 507 747 q 303 720 369 749 q 189 640 237 690 q 107 517 138 587 q 67 369 77 446 m 224 355 l 225 369 q 246 457 231 412 q 288 537 262 501 q 351 596 313 574 q 440 616 389 618 q 512 593 484 614 q 553 540 539 572 q 572 458 570 502 q 570 375 574 414 l 568 361 q 548 276 564 322 q 507 194 532 229 q 442 136 480 158 q 354 115 404 114 q 280 139 309 117 q 239 194 252 161 q 222 272 224 229 q 224 355 219 315 m 699 1047 l 505 867 l 645 867 l 878 1047 l 699 1047 m 470 1047 l 309 867 l 441 867 l 639 1047 l 470 1047 z "},"ō":{"ha":815,"x_min":60,"x_max":747,"o":"m 67 369 l 66 355 q 65 257 60 304 q 86 167 71 209 q 116 108 98 135 q 157 56 134 81 q 237 6 189 26 q 344 -14 285 -13 q 492 14 425 -16 q 608 96 558 44 q 687 216 656 147 q 727 361 718 285 l 728 376 q 729 474 734 426 q 709 565 724 522 q 676 629 696 600 q 629 684 656 659 q 552 729 597 712 q 450 747 507 747 q 303 720 369 749 q 189 640 237 690 q 107 517 138 587 q 67 369 77 446 m 224 355 l 225 369 q 246 457 231 412 q 288 537 262 501 q 351 596 313 574 q 440 616 389 618 q 512 593 484 614 q 553 540 539 572 q 572 458 570 502 q 570 375 574 414 l 568 361 q 548 276 564 322 q 507 194 532 229 q 442 136 480 158 q 354 115 404 114 q 280 139 309 117 q 239 194 252 161 q 222 272 224 229 q 224 355 219 315 m 730 884 l 747 989 l 270 989 l 253 884 l 730 884 z "},"ø":{"ha":815,"x_min":52,"x_max":750,"o":"m 67 369 l 66 355 q 64 270 61 311 q 78 191 67 228 q 107 120 89 153 q 153 61 126 87 l 52 -94 l 155 -94 l 224 12 q 279 -6 250 1 q 344 -14 309 -13 q 492 14 425 -16 q 608 96 558 44 q 687 216 656 147 q 727 361 718 285 l 728 376 q 730 459 733 418 q 718 538 728 500 q 690 607 707 574 q 648 665 673 639 l 750 822 l 648 822 l 579 717 q 519 739 551 730 q 450 747 488 747 q 301 720 368 749 q 186 636 235 690 q 107 514 138 583 q 67 369 77 445 m 224 355 l 225 369 q 246 457 231 412 q 288 537 262 501 q 351 596 313 574 q 440 616 389 618 q 474 611 458 616 q 503 599 489 607 l 239 195 q 228 236 232 214 q 222 281 223 258 q 221 318 220 300 q 224 355 222 336 m 570 375 l 568 361 q 547 273 562 317 q 506 194 532 229 q 442 136 480 158 q 354 115 404 114 q 325 119 338 116 q 299 128 311 122 l 557 525 q 567 487 564 507 q 572 447 571 467 q 572 410 573 429 q 570 375 572 392 z "},"ǿ":{"ha":815,"x_min":52,"x_max":750,"o":"m 67 369 l 66 355 q 64 270 61 311 q 78 191 67 228 q 107 120 89 153 q 153 61 126 87 l 52 -94 l 155 -94 l 224 12 q 279 -6 250 1 q 344 -14 309 -13 q 492 14 425 -16 q 608 96 558 44 q 687 216 656 147 q 727 361 718 285 l 728 376 q 730 459 733 418 q 718 538 728 500 q 690 607 707 574 q 648 665 673 639 l 750 822 l 648 822 l 579 717 q 519 739 551 730 q 450 747 488 747 q 301 720 368 749 q 186 636 235 690 q 107 514 138 583 q 67 369 77 445 m 224 355 l 225 369 q 246 457 231 412 q 288 537 262 501 q 351 596 313 574 q 440 616 389 618 q 474 611 458 616 q 503 599 489 607 l 239 195 q 228 236 232 214 q 222 281 223 258 q 221 318 220 300 q 224 355 222 336 m 570 375 l 568 361 q 547 273 562 317 q 506 194 532 229 q 442 136 480 158 q 354 115 404 114 q 325 119 338 116 q 299 128 311 122 l 557 525 q 567 487 564 507 q 572 447 571 467 q 572 410 573 429 q 570 375 572 392 m 532 1016 l 380 831 l 513 831 l 722 1016 l 532 1016 z "},"õ":{"ha":815,"x_min":60,"x_max":744,"o":"m 67 369 l 66 355 q 65 257 60 304 q 86 167 71 209 q 116 108 98 135 q 157 56 134 81 q 237 6 189 26 q 344 -14 285 -13 q 492 14 425 -16 q 608 96 558 44 q 687 216 656 147 q 727 361 718 285 l 728 376 q 729 474 734 426 q 709 565 724 522 q 676 629 696 600 q 629 684 656 659 q 552 729 597 712 q 450 747 507 747 q 303 720 369 749 q 189 640 237 690 q 107 517 138 587 q 67 369 77 446 m 224 355 l 225 369 q 246 457 231 412 q 288 537 262 501 q 351 596 313 574 q 440 616 389 618 q 512 593 484 614 q 553 540 539 572 q 572 458 570 502 q 570 375 574 414 l 568 361 q 548 276 564 322 q 507 194 532 229 q 442 136 480 158 q 354 115 404 114 q 280 139 309 117 q 239 194 252 161 q 222 272 224 229 q 224 355 219 315 m 744 1040 l 666 1059 q 655 1032 662 1045 q 637 1007 648 1019 q 616 994 628 998 q 590 988 604 989 q 543 998 565 987 q 500 1020 521 1008 q 456 1042 478 1031 q 409 1052 434 1052 q 348 1038 375 1052 q 303 1001 321 1024 q 272 948 283 977 q 258 888 260 919 l 338 871 q 349 898 342 884 q 365 920 355 911 q 386 935 374 929 q 414 941 398 941 q 460 932 439 942 q 503 910 482 922 q 547 888 525 898 q 595 878 569 878 q 655 891 629 878 q 701 928 682 905 q 730 980 720 951 q 744 1040 741 1009 z "},"ŕ":{"ha":815,"x_min":130,"x_max":778,"o":"m 644 749 q 568 739 604 749 q 499 712 532 730 q 439 670 467 694 q 385 615 410 645 l 390 641 l 405 734 l 257 734 l 130 0 l 288 0 l 366 454 q 410 513 386 487 q 463 555 434 538 q 526 579 492 571 q 598 587 559 588 q 668 582 633 587 q 736 569 702 577 l 778 729 q 711 744 745 739 q 644 749 677 748 m 536 1018 l 384 833 l 516 833 l 725 1018 l 536 1018 z "},"ř":{"ha":815,"x_min":130,"x_max":778,"o":"m 644 749 q 568 739 604 749 q 499 712 532 730 q 439 670 467 694 q 385 615 410 645 l 390 641 l 405 734 l 257 734 l 130 0 l 288 0 l 366 454 q 410 513 386 487 q 463 555 434 538 q 526 579 492 571 q 598 587 559 588 q 668 582 633 587 q 736 569 702 577 l 778 729 q 711 744 745 739 q 644 749 677 748 m 471 955 l 391 1047 l 260 1048 l 259 1032 l 419 865 l 519 865 l 724 1034 l 725 1048 l 585 1046 l 471 955 z "},"ŗ":{"ha":815,"x_min":61,"x_max":778,"o":"m 644 749 q 568 739 604 749 q 499 712 532 730 q 439 670 467 694 q 385 615 410 645 l 390 641 l 405 734 l 257 734 l 130 0 l 288 0 l 366 454 q 410 513 386 487 q 463 555 434 538 q 526 579 492 571 q 598 587 559 588 q 668 582 633 587 q 736 569 702 577 l 778 729 q 711 744 745 739 q 644 749 677 748 m 263 -83 l 268 -37 l 146 -37 l 139 -85 q 111 -179 131 -136 q 61 -265 90 -223 l 134 -317 q 221 -213 187 -273 q 263 -83 255 -152 z "},"ś":{"ha":815,"x_min":64,"x_max":736,"o":"m 534 203 q 512 156 530 174 q 470 127 494 138 q 418 112 446 117 q 367 108 390 108 q 310 115 336 108 q 263 137 283 122 q 231 175 243 152 q 218 230 218 197 l 65 231 q 90 124 64 170 q 157 49 115 79 q 251 2 198 18 q 359 -14 304 -14 q 464 -4 409 -15 q 566 31 519 7 q 651 102 616 58 q 690 212 686 147 q 673 293 692 259 q 623 351 654 328 q 584 377 606 366 q 540 398 563 389 q 483 417 512 409 q 425 431 453 425 q 381 440 406 435 q 334 456 356 446 q 300 483 313 466 q 292 528 287 500 q 312 573 296 555 q 351 604 328 592 q 399 620 373 614 q 449 625 425 625 q 499 617 475 624 q 541 597 523 610 q 568 563 558 583 q 578 514 578 542 l 735 513 q 712 616 736 572 q 650 689 688 660 q 559 732 610 718 q 454 747 509 747 q 361 738 409 748 q 271 707 313 727 q 178 634 216 682 q 138 521 140 586 q 159 432 136 469 q 220 371 182 396 q 287 336 252 350 q 361 312 322 322 q 409 300 384 307 q 460 287 433 294 q 489 275 475 282 q 514 259 503 268 q 532 235 526 249 q 534 203 538 221 m 544 1018 l 392 833 l 524 833 l 733 1018 l 544 1018 z "},"š":{"ha":815,"x_min":64,"x_max":736,"o":"m 534 203 q 512 156 530 174 q 470 127 494 138 q 418 112 446 117 q 367 108 390 108 q 310 115 336 108 q 263 137 283 122 q 231 175 243 152 q 218 230 218 197 l 65 231 q 90 124 64 170 q 157 49 115 79 q 251 2 198 18 q 359 -14 304 -14 q 464 -4 409 -15 q 566 31 519 7 q 651 102 616 58 q 690 212 686 147 q 673 293 692 259 q 623 351 654 328 q 584 377 606 366 q 540 398 563 389 q 483 417 512 409 q 425 431 453 425 q 381 440 406 435 q 334 456 356 446 q 300 483 313 466 q 292 528 287 500 q 312 573 296 555 q 351 604 328 592 q 399 620 373 614 q 449 625 425 625 q 499 617 475 624 q 541 597 523 610 q 568 563 558 583 q 578 514 578 542 l 735 513 q 712 616 736 572 q 650 689 688 660 q 559 732 610 718 q 454 747 509 747 q 361 738 409 748 q 271 707 313 727 q 178 634 216 682 q 138 521 140 586 q 159 432 136 469 q 220 371 182 396 q 287 336 252 350 q 361 312 322 322 q 409 300 384 307 q 460 287 433 294 q 489 275 475 282 q 514 259 503 268 q 532 235 526 249 q 534 203 538 221 m 479 955 l 399 1047 l 269 1048 l 267 1032 l 427 865 l 527 865 l 732 1034 l 733 1048 l 593 1046 l 479 955 z "},"ş":{"ha":815,"x_min":64,"x_max":736,"o":"m 534 203 q 512 156 530 174 q 470 127 494 138 q 418 112 446 117 q 367 108 390 108 q 310 115 336 108 q 263 137 283 122 q 231 175 243 152 q 218 230 218 197 l 65 231 q 90 124 64 170 q 157 49 115 79 q 251 2 198 18 q 359 -14 304 -14 q 464 -4 409 -15 q 566 31 519 7 q 651 102 616 58 q 690 212 686 147 q 673 293 692 259 q 623 351 654 328 q 584 377 606 366 q 540 398 563 389 q 483 417 512 409 q 425 431 453 425 q 381 440 406 435 q 334 456 356 446 q 300 483 313 466 q 292 528 287 500 q 312 573 296 555 q 351 604 328 592 q 399 620 373 614 q 449 625 425 625 q 499 617 475 624 q 541 597 523 610 q 568 563 558 583 q 578 514 578 542 l 735 513 q 712 616 736 572 q 650 689 688 660 q 559 732 610 718 q 454 747 509 747 q 361 738 409 748 q 271 707 313 727 q 178 634 216 682 q 138 521 140 586 q 159 432 136 469 q 220 371 182 396 q 287 336 252 350 q 361 312 322 322 q 409 300 384 307 q 460 287 433 294 q 489 275 475 282 q 514 259 503 268 q 532 235 526 249 q 534 203 538 221 m 391 -4 l 274 -5 l 243 -98 q 273 -100 256 -99 q 304 -106 290 -102 q 326 -122 317 -112 q 332 -151 334 -132 q 318 -183 328 -170 q 292 -202 307 -195 q 260 -213 277 -210 q 227 -217 243 -216 l 224 -312 q 276 -308 249 -311 q 330 -298 303 -304 q 379 -278 355 -290 q 422 -248 404 -267 q 449 -208 439 -232 q 460 -153 459 -184 q 454 -109 460 -130 q 434 -74 448 -89 q 409 -55 424 -63 q 377 -43 395 -47 l 391 -4 z "},"ŝ":{"ha":815,"x_min":64,"x_max":736,"o":"m 534 203 q 512 156 530 174 q 470 127 494 138 q 418 112 446 117 q 367 108 390 108 q 310 115 336 108 q 263 137 283 122 q 231 175 243 152 q 218 230 218 197 l 65 231 q 90 124 64 170 q 157 49 115 79 q 251 2 198 18 q 359 -14 304 -14 q 464 -4 409 -15 q 566 31 519 7 q 651 102 616 58 q 690 212 686 147 q 673 293 692 259 q 623 351 654 328 q 584 377 606 366 q 540 398 563 389 q 483 417 512 409 q 425 431 453 425 q 381 440 406 435 q 334 456 356 446 q 300 483 313 466 q 292 528 287 500 q 312 573 296 555 q 351 604 328 592 q 399 620 373 614 q 449 625 425 625 q 499 617 475 624 q 541 597 523 610 q 568 563 558 583 q 578 514 578 542 l 735 513 q 712 616 736 572 q 650 689 688 660 q 559 732 610 718 q 454 747 509 747 q 361 738 409 748 q 271 707 313 727 q 178 634 216 682 q 138 521 140 586 q 159 432 136 469 q 220 371 182 396 q 287 336 252 350 q 361 312 322 322 q 409 300 384 307 q 460 287 433 294 q 489 275 475 282 q 514 259 503 268 q 532 235 526 249 q 534 203 538 221 m 701 883 l 541 1046 l 449 1046 l 248 884 l 247 863 l 377 865 l 493 956 l 576 864 l 700 863 l 701 883 z "},"ŧ":{"ha":815,"x_min":121,"x_max":743,"o":"m 562 383 l 583 497 l 435 497 l 454 612 l 722 612 l 743 734 l 475 734 l 506 913 l 347 913 l 316 734 l 144 734 l 122 612 l 295 612 l 276 497 l 142 497 l 121 383 l 257 383 l 237 256 q 239 151 229 200 q 275 65 250 101 q 342 8 300 30 q 443 -14 384 -13 q 497 -13 469 -14 q 553 -6 525 -11 q 605 7 579 -1 q 654 28 631 15 l 646 141 q 570 127 608 133 q 493 122 532 121 q 440 134 461 123 q 409 163 420 144 q 395 207 398 182 q 395 261 392 232 l 416 383 l 562 383 z "},"ť":{"ha":815,"x_min":109,"x_max":905,"o":"m 492 913 l 334 913 l 302 734 l 130 734 l 109 612 l 281 612 l 222 252 q 226 149 216 197 q 261 65 236 101 q 329 8 287 30 q 429 -14 370 -13 q 537 -7 481 -15 q 640 28 593 1 l 632 141 q 556 127 594 133 q 479 122 518 121 q 427 134 448 123 q 395 163 406 144 q 381 207 385 182 q 382 261 378 232 l 440 612 l 708 612 l 729 734 l 461 734 l 492 913 m 887 1057 l 905 1166 l 769 1166 l 750 1055 q 715 946 739 996 q 656 847 690 895 l 731 794 q 788 848 762 819 q 834 912 814 878 q 867 982 854 945 q 887 1057 881 1018 z "},"ú":{"ha":815,"x_min":85,"x_max":768,"o":"m 294 -14 q 417 17 362 -16 q 513 102 471 50 l 498 0 l 641 0 l 768 734 l 610 734 l 519 214 q 487 175 504 192 q 450 146 469 158 q 399 125 427 132 q 342 119 372 119 q 282 137 303 121 q 254 178 262 153 q 245 235 245 203 q 249 297 245 266 l 321 734 l 163 734 l 91 299 q 90 187 85 242 q 121 85 96 132 q 186 15 144 42 q 294 -14 228 -13 m 557 1004 l 405 819 l 537 819 l 746 1004 l 557 1004 z "},"ŭ":{"ha":815,"x_min":85,"x_max":768,"o":"m 294 -14 q 417 17 362 -16 q 513 102 471 50 l 498 0 l 641 0 l 768 734 l 610 734 l 519 214 q 487 175 504 192 q 450 146 469 158 q 399 125 427 132 q 342 119 372 119 q 282 137 303 121 q 254 178 262 153 q 245 235 245 203 q 249 297 245 266 l 321 734 l 163 734 l 91 299 q 90 187 85 242 q 121 85 96 132 q 186 15 144 42 q 294 -14 228 -13 m 721 1029 l 603 1029 q 590 990 599 1007 q 568 960 581 972 q 537 941 555 947 q 496 934 519 934 q 457 942 473 935 q 432 962 441 949 q 419 992 422 975 q 416 1029 415 1009 l 298 1030 q 312 950 298 985 q 353 890 326 915 q 415 852 379 866 q 495 838 452 839 q 580 850 541 838 q 650 887 619 863 q 699 948 680 911 q 721 1029 718 984 z "},"û":{"ha":815,"x_min":85,"x_max":768,"o":"m 294 -14 q 417 17 362 -16 q 513 102 471 50 l 498 0 l 641 0 l 768 734 l 610 734 l 519 214 q 487 175 504 192 q 450 146 469 158 q 399 125 427 132 q 342 119 372 119 q 282 137 303 121 q 254 178 262 153 q 245 235 245 203 q 249 297 245 266 l 321 734 l 163 734 l 91 299 q 90 187 85 242 q 121 85 96 132 q 186 15 144 42 q 294 -14 228 -13 m 714 869 l 553 1032 l 462 1032 l 261 870 l 260 850 l 390 851 l 506 943 l 589 850 l 713 850 l 714 869 z "},"ü":{"ha":815,"x_min":85,"x_max":768,"o":"m 294 -14 q 417 17 362 -16 q 513 102 471 50 l 498 0 l 641 0 l 768 734 l 610 734 l 519 214 q 487 175 504 192 q 450 146 469 158 q 399 125 427 132 q 342 119 372 119 q 282 137 303 121 q 254 178 262 153 q 245 235 245 203 q 249 297 245 266 l 321 734 l 163 734 l 91 299 q 90 187 85 242 q 121 85 96 132 q 186 15 144 42 q 294 -14 228 -13 m 260 929 q 284 873 260 895 q 343 852 308 852 q 401 876 377 853 q 425 934 425 898 q 400 990 425 968 q 342 1012 376 1012 q 284 987 308 1010 q 260 929 260 964 m 562 929 q 586 872 562 894 q 644 851 610 850 q 703 875 679 852 q 727 933 727 898 q 702 990 727 968 q 644 1011 677 1012 q 586 987 609 1010 q 562 929 562 964 z "},"ù":{"ha":815,"x_min":85,"x_max":768,"o":"m 294 -14 q 417 17 362 -16 q 513 102 471 50 l 498 0 l 641 0 l 768 734 l 610 734 l 519 214 q 487 175 504 192 q 450 146 469 158 q 399 125 427 132 q 342 119 372 119 q 282 137 303 121 q 254 178 262 153 q 245 235 245 203 q 249 297 245 266 l 321 734 l 163 734 l 91 299 q 90 187 85 242 q 121 85 96 132 q 186 15 144 42 q 294 -14 228 -13 m 541 821 l 454 1006 l 284 1006 l 425 821 l 541 821 z "},"ư":{"ha":815,"x_min":75,"x_max":958,"o":"m 486 0 l 629 0 l 720 529 q 887 611 827 545 q 958 798 947 676 l 839 797 q 826 739 834 766 q 804 693 818 713 q 777 661 793 675 q 739 639 761 647 l 756 734 l 597 734 l 507 214 q 470 171 490 189 q 428 141 450 153 q 381 124 406 130 q 330 119 357 119 q 270 137 291 121 q 241 178 250 153 q 233 235 233 203 q 237 297 233 266 l 309 734 l 151 734 l 79 299 q 76 221 75 260 q 85 147 77 182 q 110 83 94 113 q 151 31 125 53 q 207 -2 174 10 q 281 -14 239 -14 q 351 -5 318 -15 q 412 22 384 4 q 459 57 437 37 q 500 102 481 78 l 486 0 z "},"ű":{"ha":815,"x_min":85,"x_max":875,"o":"m 294 -14 q 417 17 362 -16 q 513 102 471 50 l 498 0 l 641 0 l 768 734 l 610 734 l 519 214 q 487 175 504 192 q 450 146 469 158 q 399 125 427 132 q 342 119 372 119 q 282 137 303 121 q 254 178 262 153 q 245 235 245 203 q 249 297 245 266 l 321 734 l 163 734 l 91 299 q 90 187 85 242 q 121 85 96 132 q 186 15 144 42 q 294 -14 228 -13 m 696 1034 l 502 853 l 642 853 l 875 1034 l 696 1034 m 467 1034 l 306 853 l 438 853 l 636 1034 l 467 1034 z "},"ū":{"ha":815,"x_min":85,"x_max":768,"o":"m 294 -14 q 417 17 362 -16 q 513 102 471 50 l 498 0 l 641 0 l 768 734 l 610 734 l 519 214 q 487 175 504 192 q 450 146 469 158 q 399 125 427 132 q 342 119 372 119 q 282 137 303 121 q 254 178 262 153 q 245 235 245 203 q 249 297 245 266 l 321 734 l 163 734 l 91 299 q 90 187 85 242 q 121 85 96 132 q 186 15 144 42 q 294 -14 228 -13 m 728 871 l 745 977 l 268 977 l 251 871 l 728 871 z "},"ų":{"ha":815,"x_min":85,"x_max":768,"o":"m 629 0 l 641 0 l 768 734 l 610 734 l 519 214 q 483 172 503 190 q 440 141 463 153 q 394 124 419 130 q 342 119 370 119 q 282 137 303 121 q 254 178 262 153 q 245 235 245 203 q 249 297 245 266 l 321 734 l 163 734 l 91 299 q 91 186 85 242 q 120 86 96 130 q 186 15 144 42 q 294 -14 228 -13 q 362 -6 330 -15 q 422 21 394 3 q 470 57 448 36 q 513 102 493 78 l 500 13 q 455 -20 476 -2 q 416 -59 433 -37 q 389 -106 399 -81 q 378 -159 379 -131 q 387 -213 378 -189 q 414 -254 396 -237 q 453 -280 430 -271 q 505 -290 477 -290 q 566 -283 536 -290 q 622 -262 595 -277 l 602 -165 q 573 -176 588 -171 q 542 -180 557 -181 q 514 -168 522 -179 q 507 -137 506 -157 q 522 -91 510 -112 q 552 -54 534 -71 q 592 -25 570 -38 q 633 -2 613 -12 l 629 0 z "},"ů":{"ha":815,"x_min":85,"x_max":768,"o":"m 294 -14 q 417 17 362 -16 q 513 102 471 50 l 498 0 l 641 0 l 768 734 l 610 734 l 519 214 q 487 175 504 192 q 450 146 469 158 q 399 125 427 132 q 342 119 372 119 q 282 137 303 121 q 254 178 262 153 q 245 235 245 203 q 249 297 245 266 l 321 734 l 163 734 l 91 299 q 90 187 85 242 q 121 85 96 132 q 186 15 144 42 q 294 -14 228 -13 m 361 937 q 371 886 361 909 q 397 846 380 863 q 439 820 415 829 q 490 810 463 810 q 545 821 519 810 q 591 849 571 831 q 622 892 610 867 q 635 947 634 918 q 627 998 636 975 q 600 1039 617 1021 q 560 1066 583 1056 q 510 1076 537 1076 q 454 1066 481 1076 q 408 1037 428 1055 q 375 992 387 1018 q 361 937 362 966 m 433 939 q 441 966 435 953 q 458 990 448 980 q 482 1006 469 1000 q 510 1013 495 1013 q 534 1007 524 1013 q 553 992 545 1001 q 562 970 559 983 q 564 945 565 958 q 556 919 562 932 q 540 895 549 905 q 517 880 530 886 q 490 873 504 873 q 466 878 477 873 q 448 891 456 883 q 436 912 440 899 q 433 939 432 924 z "},"ũ":{"ha":815,"x_min":85,"x_max":768,"o":"m 294 -14 q 417 17 362 -16 q 513 102 471 50 l 498 0 l 641 0 l 768 734 l 610 734 l 519 214 q 487 175 504 192 q 450 146 469 158 q 399 125 427 132 q 342 119 372 119 q 282 137 303 121 q 254 178 262 153 q 245 235 245 203 q 249 297 245 266 l 321 734 l 163 734 l 91 299 q 90 187 85 242 q 121 85 96 132 q 186 15 144 42 q 294 -14 228 -13 m 741 1026 l 663 1045 q 652 1019 659 1031 q 634 994 646 1006 q 613 980 625 985 q 587 975 602 975 q 540 984 562 974 q 497 1006 518 994 q 453 1028 475 1018 q 406 1038 431 1038 q 346 1024 372 1038 q 300 987 319 1010 q 269 935 281 964 q 255 875 258 905 l 336 857 q 346 884 340 871 q 362 907 353 897 q 383 921 371 916 q 411 928 395 927 q 458 919 436 928 q 500 897 479 909 q 544 874 522 884 q 592 864 566 864 q 652 878 626 864 q 698 915 679 892 q 728 967 717 938 q 741 1026 739 996 z "},"ẃ":{"ha":815,"x_min":81,"x_max":839,"o":"m 92 0 l 227 0 l 386 408 l 420 505 l 420 414 l 440 0 l 574 0 l 839 734 l 692 734 l 551 287 l 524 199 l 524 291 l 509 734 l 404 734 l 236 291 l 206 205 l 210 286 l 222 734 l 81 734 l 92 0 m 552 1004 l 400 819 l 532 819 l 741 1004 l 552 1004 z "},"ŵ":{"ha":815,"x_min":81,"x_max":839,"o":"m 92 0 l 227 0 l 386 408 l 420 505 l 420 414 l 440 0 l 574 0 l 839 734 l 692 734 l 551 287 l 524 199 l 524 291 l 509 734 l 404 734 l 236 291 l 206 205 l 210 286 l 222 734 l 81 734 l 92 0 m 709 869 l 549 1032 l 457 1032 l 256 870 l 255 850 l 385 851 l 501 943 l 585 850 l 708 850 l 709 869 z "},"ẅ":{"ha":815,"x_min":81,"x_max":839,"o":"m 92 0 l 227 0 l 386 408 l 420 505 l 420 414 l 440 0 l 574 0 l 839 734 l 692 734 l 551 287 l 524 199 l 524 291 l 509 734 l 404 734 l 236 291 l 206 205 l 210 286 l 222 734 l 81 734 l 92 0 m 256 929 q 279 873 255 895 q 338 852 303 852 q 396 876 372 853 q 420 934 420 898 q 396 990 420 968 q 338 1012 371 1012 q 279 987 303 1010 q 256 929 256 964 m 557 929 q 582 872 557 894 q 640 851 606 850 q 698 875 674 852 q 722 933 722 898 q 697 990 722 968 q 640 1011 672 1012 q 581 987 604 1010 q 557 929 557 964 z "},"ẁ":{"ha":815,"x_min":81,"x_max":839,"o":"m 92 0 l 227 0 l 386 408 l 420 505 l 420 414 l 440 0 l 574 0 l 839 734 l 692 734 l 551 287 l 524 199 l 524 291 l 509 734 l 404 734 l 236 291 l 206 205 l 210 286 l 222 734 l 81 734 l 92 0 m 536 821 l 448 1006 l 279 1006 l 419 821 l 536 821 z "},"ý":{"ha":815,"x_min":-8,"x_max":850,"o":"m 366 281 l 266 734 l 98 734 l 279 41 l 212 -58 q 186 -93 199 -75 q 158 -125 174 -111 q 124 -151 142 -141 q 83 -163 106 -161 q 54 -161 69 -163 q 25 -158 39 -159 l -8 -285 q 36 -294 14 -290 q 81 -298 58 -298 q 166 -283 127 -298 q 237 -243 205 -269 q 295 -183 269 -217 q 343 -112 321 -149 l 850 734 l 667 734 l 376 208 l 366 281 m 572 1004 l 420 819 l 552 819 l 761 1004 l 572 1004 z "},"ŷ":{"ha":815,"x_min":-8,"x_max":850,"o":"m 366 281 l 266 734 l 98 734 l 279 41 l 212 -58 q 186 -93 199 -75 q 158 -125 174 -111 q 124 -151 142 -141 q 83 -163 106 -161 q 54 -161 69 -163 q 25 -158 39 -159 l -8 -285 q 36 -294 14 -290 q 81 -298 58 -298 q 166 -283 127 -298 q 237 -243 205 -269 q 295 -183 269 -217 q 343 -112 321 -149 l 850 734 l 667 734 l 376 208 l 366 281 m 729 869 l 568 1032 l 477 1032 l 276 870 l 275 850 l 405 851 l 521 943 l 604 850 l 728 850 l 729 869 z "},"ÿ":{"ha":815,"x_min":-8,"x_max":850,"o":"m 366 281 l 266 734 l 98 734 l 279 41 l 212 -58 q 186 -93 199 -75 q 158 -125 174 -111 q 124 -151 142 -141 q 83 -163 106 -161 q 54 -161 69 -163 q 25 -158 39 -159 l -8 -285 q 36 -294 14 -290 q 81 -298 58 -298 q 166 -283 127 -298 q 237 -243 205 -269 q 295 -183 269 -217 q 343 -112 321 -149 l 850 734 l 667 734 l 376 208 l 366 281 m 275 929 q 298 873 274 895 q 357 852 322 852 q 415 876 391 853 q 439 934 439 898 q 415 990 439 968 q 357 1012 390 1012 q 298 987 322 1010 q 275 929 275 964 m 576 929 q 601 872 576 894 q 659 851 625 850 q 717 875 693 852 q 741 933 741 898 q 716 990 741 968 q 659 1011 691 1012 q 600 987 623 1010 q 576 929 576 964 z "},"ỳ":{"ha":815,"x_min":-8,"x_max":850,"o":"m 366 281 l 266 734 l 98 734 l 279 41 l 212 -58 q 186 -93 199 -75 q 158 -125 174 -111 q 124 -151 142 -141 q 83 -163 106 -161 q 54 -161 69 -163 q 25 -158 39 -159 l -8 -285 q 36 -294 14 -290 q 81 -298 58 -298 q 166 -283 127 -298 q 237 -243 205 -269 q 295 -183 269 -217 q 343 -112 321 -149 l 850 734 l 667 734 l 376 208 l 366 281 m 556 821 l 469 1006 l 299 1006 l 439 821 l 556 821 z "},"ź":{"ha":815,"x_min":25,"x_max":765,"o":"m 262 131 l 748 625 l 765 734 l 148 734 l 127 602 l 524 602 l 43 113 l 25 0 l 669 0 l 690 131 l 262 131 m 573 1004 l 421 819 l 553 819 l 762 1004 l 573 1004 z "},"ž":{"ha":815,"x_min":25,"x_max":765,"o":"m 262 131 l 748 625 l 765 734 l 148 734 l 127 602 l 524 602 l 43 113 l 25 0 l 669 0 l 690 131 l 262 131 m 507 941 l 427 1033 l 297 1034 l 296 1018 l 456 850 l 555 850 l 761 1019 l 762 1034 l 622 1032 l 507 941 z "},"ż":{"ha":815,"x_min":25,"x_max":765,"o":"m 262 131 l 748 625 l 765 734 l 148 734 l 127 602 l 524 602 l 43 113 l 25 0 l 669 0 l 690 131 l 262 131 m 424 930 q 450 869 424 892 q 513 847 476 845 q 576 872 551 847 q 603 936 602 897 q 577 998 603 975 q 513 1021 551 1022 q 449 995 473 1020 q 424 930 425 969 z "},"`":{"ha":815,"x_min":370,"x_max":627,"o":"m 627 818 l 539 1003 l 370 1003 l 510 818 l 627 818 z "}}}
